<?xml version="1.0" encoding="utf-8"?>
<!-- Generator: Adobe Illustrator 24.3.0, SVG Export Plug-In . SVG Version: 6.00 Build 0)  -->
<svg version="1.1" id="Layer_1" xmlns="http://www.w3.org/2000/svg" xmlns:xlink="http://www.w3.org/1999/xlink" x="0px" y="0px"
	 viewBox="0 0 72 72" style="enable-background:new 0 0 72 72;" xml:space="preserve">
<style type="text/css">
	.st0{fill:#010101;}
</style>
<path class="st0" d="M71.85,65.61L69.9,62.6l0-8.09c0-0.04,0-0.08-0.01-0.13c0-0.01,0-0.02,0-0.03c-0.01-0.08-0.04-0.16-0.07-0.24
	c0-0.01-0.01-0.01-0.01-0.02c-0.02-0.04-0.04-0.07-0.06-0.11c0,0,0,0,0,0c-0.02-0.03-0.05-0.07-0.07-0.1
	c-0.01-0.01-0.01-0.01-0.02-0.02c-0.03-0.03-0.06-0.06-0.09-0.08c-0.03-0.03-0.07-0.05-0.1-0.07c-0.01-0.01-0.01-0.01-0.02-0.01
	c-0.04-0.02-0.08-0.04-0.11-0.06L43.5,42.98c-0.23-0.09-0.49-0.09-0.71,0l-8.99,3.71V12.73l27.03-8.8v42.65
	c0,0.52,0.42,0.94,0.94,0.94c0.52,0,0.94-0.42,0.94-0.94l0-43.94v0c0-0.02,0-0.05,0-0.07c0-0.01,0-0.02,0-0.03
	c0-0.02-0.01-0.03-0.01-0.05c0-0.02-0.01-0.03-0.01-0.05c0-0.01,0-0.02-0.01-0.02c0-0.02-0.01-0.05-0.02-0.07v0
	c0-0.01,0-0.01-0.01-0.02c-0.01-0.02-0.01-0.05-0.03-0.07c-0.01-0.01-0.01-0.02-0.01-0.03c-0.01-0.02-0.01-0.03-0.03-0.05
	c-0.01-0.01-0.01-0.03-0.02-0.04c-0.01-0.01-0.01-0.02-0.02-0.04c-0.01-0.02-0.02-0.03-0.03-0.04c-0.01-0.01-0.02-0.02-0.02-0.03
	C62.47,2.02,62.45,2.01,62.44,2c-0.01-0.01-0.01-0.02-0.02-0.03c-0.01-0.01-0.02-0.02-0.04-0.03c-0.01-0.01-0.02-0.02-0.03-0.03
	s-0.02-0.02-0.04-0.03c-0.01-0.01-0.02-0.02-0.04-0.03c-0.01-0.01-0.02-0.01-0.03-0.02c-0.02-0.01-0.03-0.02-0.05-0.02
	c-0.01-0.01-0.02-0.01-0.03-0.02c-0.01-0.01-0.03-0.02-0.05-0.02c-0.01-0.01-0.02-0.01-0.04-0.01c-0.01-0.01-0.03-0.01-0.05-0.02
	C62.02,1.74,62,1.73,61.99,1.73c-0.01,0-0.03-0.01-0.04-0.01c-0.02,0-0.04-0.01-0.06-0.01c-0.01,0-0.02,0-0.03,0
	c-0.03,0-0.05,0-0.08,0h-0.01h0c-0.03,0-0.05,0-0.08,0h-0.02c-0.02,0-0.04,0.01-0.05,0.01c-0.01,0-0.03,0-0.04,0.01
	c-0.01,0-0.02,0.01-0.03,0.01c-0.02,0.01-0.05,0.01-0.07,0.02h0l-28.61,9.32L4.25,1.75h0C4.23,1.74,4.2,1.73,4.18,1.73
	c-0.01,0-0.02,0-0.02-0.01c-0.02,0-0.03-0.01-0.05-0.01c-0.02,0-0.03,0-0.05-0.01c-0.01,0-0.02,0-0.02,0c-0.02,0-0.05,0-0.07,0h0
	H3.95c-0.02,0-0.05,0-0.07,0c-0.02,0-0.03,0.01-0.04,0.01c-0.02,0-0.04,0.01-0.06,0.01c-0.02,0-0.03,0.01-0.05,0.01
	c-0.02,0-0.03,0.01-0.04,0.01C3.68,1.75,3.66,1.75,3.65,1.76C3.63,1.76,3.62,1.77,3.61,1.77C3.59,1.78,3.58,1.79,3.56,1.79
	C3.55,1.8,3.54,1.8,3.53,1.81C3.52,1.82,3.5,1.83,3.49,1.84C3.47,1.84,3.46,1.85,3.45,1.85C3.44,1.86,3.43,1.87,3.41,1.88
	C3.4,1.89,3.39,1.9,3.38,1.91C3.37,1.92,3.36,1.93,3.35,1.94C3.33,1.95,3.32,1.96,3.31,1.97C3.3,1.98,3.29,1.99,3.29,2
	C3.27,2.01,3.26,2.02,3.25,2.03C3.24,2.05,3.23,2.06,3.23,2.06C3.21,2.08,3.2,2.09,3.19,2.11C3.18,2.12,3.18,2.13,3.17,2.14
	C3.16,2.15,3.15,2.17,3.14,2.18C3.14,2.2,3.13,2.21,3.12,2.23c0,0.01-0.01,0.02-0.01,0.03C3.1,2.29,3.09,2.31,3.08,2.33
	c0,0.01,0,0.01-0.01,0.02v0C3.07,2.37,3.06,2.4,3.05,2.42c0,0.01,0,0.02-0.01,0.02c0,0.02-0.01,0.03-0.01,0.05
	c0,0.02,0,0.03-0.01,0.05c0,0.01,0,0.02,0,0.03c0,0.02,0,0.05,0,0.07v0v48.62c0,0.41,0.26,0.77,0.65,0.89l8.33,2.72
	c0.1,0.03,0.2,0.05,0.29,0.05c0.39,0,0.76-0.25,0.89-0.65c0.16-0.49-0.11-1.02-0.6-1.18l-7.69-2.5l0-46.65l27.03,8.8v34.74
	l-14.96,6.18c-0.35,0.14-0.58,0.49-0.58,0.86c0,0.38,0.23,0.72,0.58,0.86l12.29,5.08v6.16v0.01c0,0.02,0,0.04,0,0.05
	c0,0.01,0,0.03,0,0.04c0,0.02,0,0.03,0.01,0.04c0,0.02,0.01,0.03,0.01,0.05c0,0.01,0.01,0.02,0.01,0.04
	c0.01,0.02,0.01,0.04,0.01,0.05c0,0.01,0.01,0.02,0.01,0.03c0.01,0.02,0.01,0.03,0.02,0.05c0.01,0.01,0.01,0.02,0.02,0.04
	c0.01,0.01,0.01,0.03,0.02,0.04c0.01,0.01,0.02,0.03,0.03,0.04c0.01,0.01,0.02,0.02,0.02,0.03c0.01,0.01,0.02,0.03,0.03,0.04
	c0.01,0.01,0.01,0.02,0.02,0.03c0.01,0.02,0.02,0.03,0.04,0.04c0.01,0.01,0.02,0.02,0.03,0.03c0.01,0.01,0.02,0.02,0.04,0.03
	c0.01,0.01,0.02,0.02,0.03,0.03c0.01,0.01,0.02,0.02,0.04,0.03c0.02,0.01,0.03,0.02,0.04,0.03c0.01,0,0.01,0.01,0.01,0.01
	c0.01,0,0.01,0.01,0.02,0.01c0.01,0.01,0.03,0.02,0.05,0.03c0.01,0.01,0.02,0.01,0.04,0.02c0.02,0.01,0.03,0.01,0.05,0.02
	c0.01,0.01,0.03,0.01,0.04,0.01c0.02,0.01,0.03,0.01,0.05,0.01c0.02,0,0.03,0.01,0.05,0.01c0.01,0,0.03,0.01,0.04,0.01
	c0.02,0,0.03,0.01,0.05,0.01c0.01,0,0.03,0,0.04,0c0.02,0,0.04,0,0.05,0h0.02h0.01c0.02,0,0.04,0,0.05,0c0.01,0,0.03,0,0.04,0
	c0.02,0,0.03,0,0.04-0.01c0.02,0,0.03-0.01,0.05-0.01c0.01,0,0.02-0.01,0.04-0.01c0.02-0.01,0.04-0.01,0.05-0.01
	c0.01,0,0.02-0.01,0.03-0.01c0.02-0.01,0.03-0.01,0.05-0.02c0.01-0.01,0.03-0.01,0.04-0.02c0.02-0.01,0.03-0.01,0.04-0.02
	c0.02-0.01,0.03-0.02,0.04-0.03c0.01-0.01,0.02-0.02,0.03-0.02c0.01-0.01,0.03-0.02,0.05-0.03c0.01-0.01,0.02-0.01,0.03-0.02
	c0.01-0.01,0.03-0.02,0.04-0.04c0.01-0.01,0.02-0.01,0.03-0.02c0.01-0.01,0.02-0.02,0.03-0.04c0.01-0.01,0.02-0.02,0.03-0.03
	c0.01-0.01,0.02-0.02,0.03-0.04c0.01-0.01,0.02-0.03,0.03-0.04c0-0.01,0.01-0.01,0.01-0.01c2.01-3.25,6.78-5.35,12.15-5.35
	c5.38,0,10.15,2.1,12.15,5.35c0,0,0.01,0.01,0.01,0.01c0.02,0.03,0.04,0.06,0.06,0.08c0,0,0.01,0.01,0.01,0.01
	c0.02,0.03,0.05,0.05,0.07,0.08c0.01,0.01,0.02,0.02,0.03,0.03c0.02,0.01,0.04,0.03,0.05,0.04c0.01,0.01,0.02,0.02,0.03,0.02
	c0.03,0.02,0.05,0.03,0.08,0.05c0,0,0.01,0,0.01,0.01c0.03,0.02,0.06,0.03,0.1,0.04c0.01,0,0.01,0.01,0.02,0.01
	c0.03,0.01,0.05,0.02,0.08,0.03c0.01,0,0.02,0.01,0.03,0.01c0.03,0.01,0.05,0.01,0.08,0.02c0.01,0,0.02,0,0.03,0.01
	c0.03,0,0.07,0.01,0.1,0.01h0.01h0.01c0.03,0,0.07,0,0.1-0.01c0.01,0,0.02,0,0.04-0.01c0.03-0.01,0.05-0.01,0.08-0.02
	c0.01,0,0.02-0.01,0.03-0.01c0.04-0.01,0.08-0.02,0.11-0.04c0,0,0.01,0,0.01-0.01c0.03-0.01,0.06-0.03,0.09-0.05
	c0.01,0,0.01-0.01,0.01-0.01c0.01,0,0.01-0.01,0.01-0.01c0.02-0.01,0.03-0.02,0.04-0.03c0.01-0.01,0.02-0.02,0.04-0.03
	c0.01-0.01,0.02-0.02,0.03-0.03c0.01-0.01,0.03-0.02,0.04-0.03c0.01-0.01,0.02-0.02,0.03-0.03c0.01-0.01,0.03-0.03,0.04-0.04
	c0.01-0.01,0.01-0.02,0.02-0.03c0.01-0.01,0.02-0.03,0.03-0.05c0.01-0.01,0.01-0.02,0.02-0.03c0.01-0.01,0.02-0.03,0.03-0.04
	s0.01-0.03,0.02-0.04s0.01-0.02,0.02-0.04c0.01-0.02,0.01-0.03,0.02-0.05c0-0.01,0.01-0.02,0.01-0.03c0.01-0.02,0.01-0.04,0.01-0.05
	c0-0.01,0.01-0.02,0.01-0.04C57,66.8,57,66.79,57,66.77s0.01-0.03,0.01-0.04c0-0.01,0-0.03,0-0.04c0-0.02,0-0.04,0-0.05v-0.02v-6.16
	l11-4.54v6.69l-1.95,3.01c-0.2,0.31-0.2,0.71,0,1.02l2.11,3.24c0.17,0.27,0.47,0.43,0.78,0.43c0.32,0,0.61-0.16,0.78-0.43l2.11-3.24
	C72.05,66.32,72.05,65.92,71.85,65.61L71.85,65.61z M43.15,59.89c-4.82,0-9.24,1.58-12.02,4.16v-4.22v-0.01v-2.66
	c2.08-3.13,6.76-5.13,12.02-5.13s9.93,2.01,12.02,5.13v2.66v0.01v4.22C52.39,61.46,47.97,59.89,43.15,59.89z M57.03,58.43v-1.55
	v-0.02c0-0.02,0-0.04,0-0.06c0-0.01,0-0.03,0-0.04c0-0.02-0.01-0.03-0.01-0.05c0-0.02-0.01-0.03-0.01-0.04
	c0-0.01-0.01-0.03-0.01-0.05c0-0.01-0.01-0.03-0.02-0.04c-0.01-0.02-0.01-0.03-0.01-0.04c-0.01-0.02-0.01-0.03-0.02-0.05
	c-0.01-0.01-0.01-0.02-0.02-0.04c-0.01-0.01-0.02-0.03-0.03-0.05c0-0.01-0.01-0.02-0.01-0.02c-0.01-0.01-0.01-0.02-0.02-0.03
	c0,0,0-0.01-0.01-0.01c-2.35-3.77-7.73-6.2-13.73-6.2s-11.37,2.43-13.73,6.2c0,0,0,0.01-0.01,0.01c-0.01,0.01-0.01,0.02-0.02,0.03
	c0,0.01-0.01,0.01-0.01,0.02c-0.01,0.02-0.02,0.03-0.03,0.05c-0.01,0.01-0.01,0.02-0.02,0.04c-0.01,0.01-0.01,0.03-0.02,0.05
	c-0.01,0.02-0.01,0.03-0.02,0.04c-0.01,0.01-0.01,0.03-0.01,0.05c0,0.01-0.01,0.03-0.01,0.05s-0.01,0.03-0.01,0.04
	c0,0.02-0.01,0.03-0.01,0.05c0,0.01,0,0.03,0,0.04c0,0.02,0,0.04,0,0.06v0.02v1.55l-9.47-3.92l13.44-5.55c0,0,0.01,0,0.01-0.01
	l9.92-4.1l23.37,9.65L57.03,58.43z M68.96,67.64l-0.99-1.52l0.99-1.52l0.99,1.52L68.96,67.64z M13.19,57.44
	c-0.13,0.4-0.5,0.65-0.89,0.65c-0.1,0-0.2-0.01-0.29-0.05l-11.36-3.7C0.26,54.22,0,53.86,0,53.45V6.2c0-0.52,0.42-0.94,0.94-0.94
	c0.52,0,0.94,0.42,0.94,0.94v46.57l10.72,3.49C13.08,56.42,13.35,56.95,13.19,57.44L13.19,57.44z M63.86,46.58V6.2
	c0-0.52,0.42-0.94,0.94-0.94c0.52,0,0.94,0.42,0.94,0.94v40.37c0,0.52-0.42,0.94-0.94,0.94C64.28,47.51,63.86,47.09,63.86,46.58z
	 M10.3,11.46c0.16-0.49,0.68-0.77,1.17-0.61l14.45,4.6c0.49,0.16,0.77,0.68,0.61,1.17c-0.13,0.4-0.5,0.65-0.89,0.65
	c-0.09,0-0.19-0.02-0.29-0.05l-14.45-4.59C10.41,12.48,10.14,11.95,10.3,11.46z M10.3,20.26c0.16-0.49,0.68-0.77,1.17-0.61
	l14.45,4.6c0.49,0.16,0.77,0.68,0.61,1.17c-0.13,0.4-0.5,0.65-0.89,0.65c-0.09,0-0.19-0.01-0.29-0.05l-14.45-4.59
	C10.41,21.28,10.14,20.76,10.3,20.26z M10.3,29.07c0.16-0.49,0.68-0.77,1.17-0.61l14.45,4.6c0.49,0.16,0.77,0.68,0.61,1.17
	c-0.13,0.4-0.5,0.65-0.89,0.65c-0.09,0-0.19-0.02-0.29-0.05l-14.45-4.59C10.41,30.09,10.14,29.56,10.3,29.07z M10.3,37.87
	c0.16-0.49,0.68-0.77,1.17-0.61l14.45,4.6c0.49,0.16,0.77,0.68,0.61,1.17c-0.13,0.4-0.5,0.65-0.89,0.65c-0.09,0-0.19-0.02-0.29-0.05
	l-14.45-4.59C10.41,38.89,10.14,38.37,10.3,37.87z M54.82,12.64l-14.45,4.6c-0.09,0.03-0.19,0.05-0.29,0.05
	c-0.4,0-0.77-0.26-0.89-0.65c-0.16-0.49,0.11-1.02,0.61-1.17l14.45-4.6c0.49-0.16,1.02,0.11,1.17,0.61
	C55.59,11.95,55.32,12.48,54.82,12.64L54.82,12.64z M54.82,21.44l-14.45,4.6c-0.09,0.03-0.19,0.05-0.29,0.05
	c-0.4,0-0.77-0.26-0.89-0.65c-0.16-0.49,0.11-1.02,0.61-1.17l14.45-4.6c0.49-0.16,1.02,0.11,1.17,0.61
	C55.59,20.76,55.32,21.28,54.82,21.44L54.82,21.44z M55.43,29.07c0.16,0.49-0.11,1.02-0.61,1.17l-14.45,4.6
	c-0.09,0.03-0.19,0.05-0.29,0.05c-0.4,0-0.77-0.26-0.89-0.65c-0.16-0.49,0.11-1.02,0.61-1.17l14.45-4.6
	C54.75,28.3,55.27,28.58,55.43,29.07L55.43,29.07z"/>
</svg>
