<?xml version="1.0" encoding="utf-8"?>
<!-- Generator: Adobe Illustrator 24.3.0, SVG Export Plug-In . SVG Version: 6.00 Build 0)  -->
<svg version="1.1" id="Layer_1" xmlns="http://www.w3.org/2000/svg" xmlns:xlink="http://www.w3.org/1999/xlink" x="0px" y="0px"
	 viewBox="0 0 72 72" style="enable-background:new 0 0 72 72;" xml:space="preserve">
<style type="text/css">
	.st0{fill-rule:evenodd;clip-rule:evenodd;}
</style>
<path class="st0" d="M48.4,24.7c-13,0-23.6,10.6-23.6,23.6S35.3,72,48.4,72S72,61.4,72,48.4S61.4,24.7,48.4,24.7z M48.4,70
	c-11.9,0-21.6-9.7-21.6-21.6s9.7-21.6,21.6-21.6S70,36.4,70,48.4S60.3,70,48.4,70z M48.4,29.2c-10.6,0-19.2,8.6-19.2,19.2
	s8.6,19.2,19.2,19.2s19.2-8.6,19.2-19.2S58.9,29.2,48.4,29.2z M48.4,65.5c-9.5,0-17.1-7.7-17.1-17.1s7.7-17.1,17.1-17.1
	s17.1,7.7,17.1,17.1S57.8,65.5,48.4,65.5z M54.6,52c-0.2,0.3-0.5,0.5-0.9,0.5c-0.2,0-0.3,0-0.5-0.1l-4.5-2.6c-0.1,0-0.3,0.1-0.4,0.1
	c-0.8,0-1.5-0.7-1.5-1.5c0-0.4,0.2-0.8,0.4-1v-8.2c0-0.6,0.5-1,1-1c0.6,0,1,0.5,1,1v8.2c0.2,0.2,0.3,0.4,0.4,0.7l4.5,2.6
	C54.8,50.9,54.9,51.5,54.6,52z M38.9,57.8c0.4,0.4,0.4,1,0,1.4l-0.7,0.7c-0.2,0.2-0.5,0.3-0.7,0.3s-0.5-0.1-0.7-0.3
	c-0.4-0.4-0.4-1,0-1.4l0.7-0.7C37.9,57.4,38.5,57.4,38.9,57.8z M47.3,34v-1c0-0.6,0.5-1,1-1c0.6,0,1,0.5,1,1v1c0,0.6-0.5,1-1,1
	C47.8,35,47.3,34.5,47.3,34z M35,48.4c0,0.6-0.5,1-1,1h-1c-0.6,0-1-0.5-1-1c0-0.6,0.5-1,1-1h1C34.5,47.3,35,47.8,35,48.4z
	 M59.9,36.8c0.4,0.4,0.4,1,0,1.4l-0.7,0.7c-0.2,0.2-0.5,0.3-0.7,0.3c-0.3,0-0.5-0.1-0.7-0.3c-0.4-0.4-0.4-1,0-1.4l0.7-0.7
	C58.9,36.4,59.5,36.4,59.9,36.8z M64.7,48.4c0,0.6-0.5,1-1,1h-1c-0.6,0-1-0.5-1-1c0-0.6,0.5-1,1-1h1C64.3,47.3,64.7,47.8,64.7,48.4z
	 M38.9,37.5c0.4,0.4,0.4,1,0,1.4c-0.2,0.2-0.5,0.3-0.7,0.3s-0.5-0.1-0.7-0.3l-0.7-0.7c-0.4-0.4-0.4-1,0-1.4c0.4-0.4,1-0.4,1.4,0
	L38.9,37.5z M49.4,62.7v1c0,0.6-0.5,1-1,1c-0.6,0-1-0.5-1-1v-1c0-0.6,0.5-1,1-1C48.9,61.7,49.4,62.2,49.4,62.7z M59.9,58.5
	c0.4,0.4,0.4,1,0,1.4c-0.2,0.2-0.5,0.3-0.7,0.3s-0.5-0.1-0.7-0.3l-0.7-0.7c-0.4-0.4-0.4-1,0-1.4c0.4-0.4,1-0.4,1.4,0L59.9,58.5z
	 M43.2,22.2h10.2c0.6,0,1-0.5,1-1v-6.8c0-3.4-2.8-6.1-6.1-6.1s-6.1,2.8-6.1,6.1v6.8C42.2,21.7,42.7,22.2,43.2,22.2z M44.3,20.1v-1
	h8.2v1C52.4,20.1,44.3,20.1,44.3,20.1z M48.4,10.3c2.3,0,4.1,1.8,4.1,4.1v2.8h-3.1v-2.8c0-0.6-0.5-1-1-1c-0.6,0-1,0.5-1,1v2.8h-3.1
	v-2.8C44.3,12.1,46.1,10.3,48.4,10.3z M33.2,15.2c0-0.6,0.5-1,1-1H38c0.6,0,1,0.5,1,1s-0.5,1-1,1h-3.9
	C33.6,16.2,33.2,15.8,33.2,15.2z M47.3,4.9V1c0-0.6,0.5-1,1-1c0.6,0,1,0.5,1,1v3.9c0,0.6-0.5,1-1,1C47.8,5.9,47.3,5.4,47.3,4.9z
	 M58.7,14.2h3.9c0.6,0,1,0.5,1,1s-0.5,1-1,1h-3.9c-0.6,0-1-0.5-1-1S58.1,14.2,58.7,14.2z M54.9,8.6c-0.4-0.4-0.4-1,0-1.4l2.7-2.7
	c0.4-0.4,1-0.4,1.4,0c0.4,0.4,0.4,1,0,1.4l-2.7,2.7c-0.2,0.2-0.5,0.3-0.7,0.3C55.4,8.9,55.1,8.8,54.9,8.6z M37.6,5.9
	c-0.4-0.4-0.4-1,0-1.4c0.4-0.4,1-0.4,1.4,0l2.7,2.7c0.4,0.4,0.4,1,0,1.4c-0.2,0.2-0.5,0.3-0.7,0.3s-0.5-0.1-0.7-0.3L37.6,5.9z
	 M23.9,40.4c0,0.6-0.5,1-1,1h-8.1c-0.6,0-1-0.5-1-1c0-0.6,0.5-1,1-1h8.1C23.4,39.3,23.9,39.8,23.9,40.4z M6.4,32.4c0-0.6,0.5-1,1-1
	h19.6c0.6,0,1,0.5,1,1c0,0.6-0.5,1-1,1H7.4C6.8,33.4,6.4,32.9,6.4,32.4z M28,64.3c0,0.6-0.5,1-1,1H7.4c-0.6,0-1-0.5-1-1
	c0-0.6,0.5-1,1-1h19.6C27.5,63.3,28,63.8,28,64.3z M21.6,49.4H1c-0.6,0-1-0.5-1-1c0-0.6,0.5-1,1-1h20.6c0.6,0,1,0.5,1,1
	C22.7,48.9,22.2,49.4,21.6,49.4z M9.1,57.4H2.5c-0.6,0-1-0.5-1-1s0.5-1,1-1h6.7c0.6,0,1,0.5,1,1S9.7,57.4,9.1,57.4z M23.9,56.3
	c0,0.6-0.5,1-1,1h-8.1c-0.6,0-1-0.5-1-1s0.5-1,1-1h8.1C23.4,55.3,23.9,55.8,23.9,56.3z M1.4,40.4c0-0.6,0.5-1,1-1h6.7
	c0.6,0,1,0.5,1,1c0,0.6-0.5,1-1,1H2.5C1.9,41.4,1.4,40.9,1.4,40.4z"/>
</svg>
