<?xml version="1.0" encoding="utf-8"?>
<!-- Generator: Adobe Illustrator 24.3.0, SVG Export Plug-In . SVG Version: 6.00 Build 0)  -->
<svg version="1.1" id="Layer_1" xmlns="http://www.w3.org/2000/svg" xmlns:xlink="http://www.w3.org/1999/xlink" x="0px" y="0px"
	 viewBox="0 0 72 72" style="enable-background:new 0 0 72 72;" xml:space="preserve">
<path d="M31.6,34.93c5.73-0.27,10.31-5.01,10.31-10.8c0-4.4-2.66-8.34-6.69-10c-0.06-4.57-3.58-8.33-8.05-8.76
	c-0.44-3.04-3.06-5.39-6.22-5.39s-5.78,2.34-6.22,5.39c-4.48,0.44-7.99,4.19-8.05,8.76C2.66,15.79,0,19.72,0,24.13
	c0,5.79,4.58,10.54,10.31,10.8c2.31,3.13,5.86,5.07,9.71,5.35v30.8c0,0.52,0.42,0.94,0.94,0.94c0.52,0,0.94-0.42,0.94-0.94l0-30.8
	C25.74,40,29.29,38.06,31.6,34.93L31.6,34.93z M11.57,33.48c-0.17-0.26-0.46-0.41-0.77-0.41c-4.93-0.01-8.93-4.02-8.93-8.94
	c0-3.84,2.44-7.24,6.07-8.47c0.4-0.14,0.66-0.53,0.63-0.95c-0.01-0.16-0.02-0.32-0.02-0.46c0-3.89,3.16-7.05,7.05-7.05
	c0.52,0,0.94-0.42,0.94-0.94c0-2.43,1.98-4.41,4.41-4.41s4.41,1.98,4.41,4.41c0,0.52,0.42,0.94,0.94,0.94
	c3.89,0,7.05,3.16,7.05,7.05c0,0.15-0.01,0.3-0.02,0.46c-0.03,0.42,0.23,0.81,0.63,0.95c3.63,1.23,6.07,4.64,6.07,8.47
	c0,4.93-4.01,8.94-8.93,8.94c-0.31,0-0.6,0.15-0.77,0.41c-2.12,3.11-5.62,4.96-9.38,4.96C17.2,38.44,13.69,36.59,11.57,33.48
	L11.57,33.48z M60.24,57.38h-5.94v-3.97h0.61c1.5,0,2.72-1.22,2.72-2.72v-3.44c0-1.5-1.22-2.72-2.72-2.72l-22.89,0
	c-1.5,0-2.72,1.22-2.72,2.72v3.44c0,1.5,1.22,2.72,2.72,2.72h0.61v3.97H26.7c-0.52,0-0.94,0.42-0.94,0.94v1.97
	c0,1.47,1.1,2.69,2.52,2.88v7.91c0,0.52,0.42,0.94,0.94,0.94c0.52,0,0.94-0.42,0.94-0.94v-7.88h26.63v7.88
	c0,0.52,0.42,0.94,0.94,0.94c0.52,0,0.94-0.42,0.94-0.94v-7.91c1.42-0.19,2.52-1.4,2.52-2.88v-1.97
	C61.18,57.8,60.76,57.38,60.24,57.38L60.24,57.38z M31.17,50.69v-3.44c0-0.47,0.38-0.85,0.85-0.85h22.89c0.47,0,0.85,0.38,0.85,0.85
	v3.44c0,0.47-0.38,0.85-0.85,0.85H32.03C31.56,51.54,31.17,51.16,31.17,50.69z M34.5,53.41h17.93v3.97H34.5V53.41z M59.31,60.29
	c0,0.57-0.47,1.04-1.04,1.04l-29.6,0c-0.57,0-1.04-0.47-1.04-1.04v-1.04h31.68L59.31,60.29L59.31,60.29z M18.41,62.73
	c0-0.01,0-0.02,0-0.02c0-0.02-0.01-0.04-0.01-0.06c0-0.01,0-0.03-0.01-0.04c0-0.01-0.01-0.02-0.01-0.03
	c-0.01-0.02-0.01-0.04-0.02-0.06c0-0.01-0.01-0.01-0.01-0.02c-0.01-0.02-0.02-0.05-0.03-0.07c0,0,0,0,0,0
	c0-0.01-0.01-0.01-0.01-0.02c-0.01-0.02-0.02-0.04-0.03-0.06c-0.01-0.01-0.01-0.02-0.02-0.03c-0.01-0.02-0.02-0.03-0.03-0.05
	c-0.01-0.01-0.02-0.03-0.03-0.04c-0.01-0.01-0.02-0.02-0.03-0.03c-0.01-0.02-0.02-0.03-0.04-0.04c-0.01-0.01-0.02-0.02-0.03-0.03
	c-0.01-0.01-0.02-0.02-0.04-0.03c-0.01-0.01-0.02-0.02-0.03-0.03l-0.04-0.03c-0.01-0.01-0.03-0.02-0.04-0.03
	C17.98,62.01,17.96,62,17.96,62c-0.02-0.01-0.03-0.02-0.05-0.03c-0.01-0.01-0.02-0.01-0.03-0.01c-0.02-0.01-0.04-0.02-0.06-0.03
	c-0.01,0-0.02-0.01-0.02-0.01c-0.02-0.01-0.04-0.02-0.06-0.02c-0.01,0-0.02-0.01-0.03-0.01c-0.02-0.01-0.04-0.01-0.06-0.02
	c-0.01,0-0.03,0-0.04-0.01c-0.02,0-0.03-0.01-0.05-0.01c-0.02,0-0.04,0-0.05,0c-0.01,0-0.02,0-0.03,0h-0.01h-0.02
	c-2.26,0.01-4.33,0.83-5.93,2.19l-1.39-12.17c-0.05-0.47-0.45-0.83-0.93-0.83c-0.47,0-0.88,0.36-0.93,0.83L6.88,64.06
	c-1.6-1.36-3.67-2.19-5.93-2.19H0.93H0.93c-0.01,0-0.02,0-0.03,0c-0.02,0-0.04,0-0.05,0s-0.03,0-0.05,0.01c-0.02,0-0.03,0-0.04,0.01
	c-0.02,0-0.04,0.01-0.06,0.02c-0.01,0-0.02,0.01-0.03,0.01c-0.02,0.01-0.04,0.01-0.06,0.02c-0.01,0-0.02,0.01-0.03,0.01
	c-0.02,0.01-0.04,0.02-0.06,0.02c-0.01,0-0.02,0.01-0.03,0.02C0.48,61.98,0.46,61.99,0.45,62C0.44,62,0.43,62.01,0.41,62.01
	c-0.02,0.01-0.03,0.02-0.04,0.03l-0.04,0.03c-0.01,0.01-0.02,0.02-0.03,0.03c-0.01,0.01-0.02,0.02-0.04,0.03
	c-0.01,0.01-0.02,0.02-0.03,0.03c-0.01,0.01-0.02,0.02-0.03,0.04c-0.01,0.01-0.02,0.02-0.03,0.03c-0.01,0.01-0.02,0.02-0.03,0.04
	c-0.01,0.02-0.02,0.03-0.03,0.05c-0.01,0.01-0.01,0.02-0.02,0.03c-0.01,0.02-0.02,0.04-0.03,0.06c0,0.01-0.01,0.01-0.01,0.02
	c0,0,0,0,0,0c-0.01,0.02-0.02,0.05-0.03,0.07c0,0.01,0,0.01-0.01,0.02c-0.01,0.02-0.01,0.04-0.02,0.06c0,0.01-0.01,0.02-0.01,0.03
	c0,0.01,0,0.03-0.01,0.04c0,0.02-0.01,0.04-0.01,0.05c0,0.01,0,0.02,0,0.02c0,0.02,0,0.05,0,0.07v0v0.02c0,0.02,0,0.05,0,0.07
	c0,0.02,0,0.03,0.01,0.04c0,0.02,0,0.03,0.01,0.05c0,0.02,0.01,0.03,0.01,0.05c0,0.01,0.01,0.03,0.01,0.04
	c0.01,0.02,0.01,0.04,0.02,0.05c0,0.01,0.01,0.02,0.01,0.03c0.01,0.02,0.02,0.03,0.02,0.05c0.01,0.01,0.01,0.02,0.02,0.03
	c0.01,0.02,0.02,0.03,0.02,0.04c0.01,0.01,0.02,0.02,0.02,0.04c0.01,0.01,0.02,0.02,0.02,0.03c0.01,0.02,0.02,0.03,0.03,0.04
	c0.01,0.01,0.02,0.02,0.02,0.03c0.01,0.02,0.02,0.03,0.04,0.04c0.01,0.01,0.02,0.02,0.02,0.02c0.02,0.01,0.03,0.02,0.04,0.04
	c0.01,0.01,0.02,0.02,0.03,0.02c0.02,0.01,0.03,0.02,0.04,0.03c0.02,0.01,0.03,0.02,0.04,0.03c0.01,0.01,0.02,0.02,0.03,0.02
	c0.02,0.01,0.04,0.02,0.06,0.03c0.01,0,0.01,0.01,0.02,0.01c2.87,1.27,4.62,4.21,4.36,7.34c-0.05,0.51,0.34,0.97,0.85,1.01
	c0.05,0.03,0.08,0.03,0.1,0.03c0.48,0,0.89-0.37,0.93-0.86c0.19-2.22-0.44-4.37-1.67-6.11c1.91,1.33,3.16,3.53,3.16,6.03
	c0,0.52,0.42,0.94,0.94,0.94c0.52,0,0.94-0.42,0.94-0.94c0-2.49,1.25-4.7,3.16-6.03c-1.23,1.73-1.85,3.89-1.67,6.11
	c0.04,0.49,0.45,0.86,0.93,0.86c0.03,0,0.05,0,0.08,0c0.51-0.05,0.9-0.5,0.85-1.01c-0.27-3.12,1.48-6.07,4.36-7.34
	c0.01,0,0.01-0.01,0.02-0.01c0.02-0.01,0.04-0.02,0.06-0.03c0.01-0.01,0.02-0.02,0.03-0.02c0.02-0.01,0.03-0.02,0.04-0.03
	c0.02-0.01,0.03-0.02,0.04-0.03c0.01-0.01,0.02-0.02,0.03-0.02c0.02-0.01,0.03-0.02,0.04-0.04c0.01-0.01,0.02-0.02,0.03-0.02
	c0.01-0.01,0.02-0.03,0.04-0.04c0.01-0.01,0.02-0.02,0.02-0.03c0.01-0.01,0.02-0.03,0.03-0.04c0.01-0.01,0.02-0.02,0.02-0.04
	c0.01-0.01,0.02-0.02,0.02-0.04c0.01-0.02,0.02-0.03,0.02-0.04s0.01-0.02,0.02-0.03c0.01-0.02,0.02-0.03,0.02-0.05
	c0-0.01,0.01-0.02,0.01-0.03c0.01-0.02,0.01-0.03,0.02-0.05c0-0.01,0.01-0.02,0.01-0.04c0-0.02,0.01-0.03,0.01-0.05
	c0-0.02,0.01-0.03,0.01-0.05c0-0.02,0-0.03,0.01-0.04c0-0.02,0-0.04,0-0.07v-0.02v0C18.42,62.78,18.41,62.75,18.41,62.73
	L18.41,62.73z M8.56,65.93l0.65-5.66l0.65,5.66c-0.24,0.35-0.45,0.73-0.65,1.11C9.02,66.66,8.8,66.28,8.56,65.93z M57.58,10.08
	c-3.42,0-6.2,2.78-6.2,6.2s2.78,6.2,6.2,6.2c3.42,0,6.2-2.78,6.2-6.2C63.78,12.86,61,10.08,57.58,10.08z M57.58,20.61
	c-2.39,0-4.33-1.94-4.33-4.33s1.94-4.33,4.33-4.33c2.39,0,4.33,1.94,4.33,4.33S59.97,20.61,57.58,20.61z M56.65,7.68v-4.9
	c0-0.52,0.42-0.94,0.94-0.94c0.52,0,0.94,0.42,0.94,0.94v4.9c0,0.52-0.42,0.94-0.94,0.94C57.06,8.61,56.65,8.2,56.65,7.68
	L56.65,7.68z M63,10.86c-0.37-0.37-0.37-0.96,0-1.32l3.46-3.46c0.37-0.37,0.96-0.37,1.32,0c0.37,0.37,0.37,0.96,0,1.32l-3.46,3.46
	c-0.18,0.18-0.42,0.27-0.66,0.27C63.42,11.13,63.18,11.04,63,10.86L63,10.86z M72.01,16.28c0,0.52-0.42,0.94-0.94,0.94h-4.9
	c-0.52,0-0.94-0.42-0.94-0.94c0-0.52,0.42-0.94,0.94-0.94h4.9C71.59,15.34,72.01,15.76,72.01,16.28z M67.79,25.16
	c0.37,0.37,0.37,0.96,0,1.32c-0.18,0.18-0.42,0.27-0.66,0.27c-0.24,0-0.48-0.09-0.66-0.27L63,23.02c-0.37-0.37-0.37-0.96,0-1.32
	c0.37-0.37,0.96-0.37,1.32,0L67.79,25.16z M56.65,29.78v-4.9c0-0.52,0.42-0.94,0.94-0.94c0.52,0,0.94,0.42,0.94,0.94v4.9
	c0,0.52-0.42,0.94-0.94,0.94C57.06,30.71,56.65,30.29,56.65,29.78z M47.38,25.16l3.46-3.46c0.37-0.37,0.96-0.37,1.32,0
	c0.37,0.37,0.37,0.96,0,1.32l-3.46,3.46c-0.18,0.18-0.42,0.27-0.66,0.27c-0.24,0-0.48-0.09-0.66-0.27
	C47.01,26.12,47.01,25.53,47.38,25.16L47.38,25.16z M43.15,16.28c0-0.52,0.42-0.94,0.94-0.94h4.9c0.52,0,0.94,0.42,0.94,0.94
	c0,0.52-0.42,0.94-0.94,0.94h-4.9C43.57,17.22,43.15,16.8,43.15,16.28z M47.38,7.4c-0.37-0.37-0.37-0.96,0-1.32
	c0.37-0.37,0.96-0.37,1.32,0l3.46,3.46c0.37,0.37,0.37,0.96,0,1.32c-0.18,0.18-0.42,0.27-0.66,0.27c-0.24,0-0.48-0.09-0.66-0.27
	L47.38,7.4z"/>
</svg>
