<?xml version="1.0" encoding="utf-8"?>
<!-- Generator: Adobe Illustrator 24.3.0, SVG Export Plug-In . SVG Version: 6.00 Build 0)  -->
<svg version="1.1" id="Layer_1" xmlns="http://www.w3.org/2000/svg" xmlns:xlink="http://www.w3.org/1999/xlink" x="0px" y="0px"
	 viewBox="0 0 72 72" style="enable-background:new 0 0 72 72;" xml:space="preserve">
<path d="M50.53,42.47c-0.43-0.29-1.01-0.17-1.3,0.25c-1.5,2.23-3.38,4.13-5.59,5.66c-0.12,0.08-0.22,0.19-0.29,0.33l-2.74,5.12
	c-0.37-0.14-0.76-0.21-1.18-0.21l-15.89,0c-0.41,0-0.81,0.07-1.18,0.21l-2.74-5.12c-0.07-0.13-0.17-0.24-0.29-0.33
	c-5.77-4-9.22-10.57-9.22-17.58c0-11.79,9.59-21.38,21.38-21.38c7.23,0,13.92,3.61,17.89,9.67c0.28,0.43,0.86,0.55,1.29,0.27
	c0.43-0.28,0.55-0.86,0.27-1.29C46.62,11.49,39.35,7.57,31.49,7.57c-12.82,0-23.24,10.43-23.24,23.24c0,7.55,3.67,14.63,9.83,18.99
	l2.77,5.17c-0.43,0.57-0.68,1.27-0.68,2.03v0.96c0,1.34,0.79,2.51,1.93,3.05c-0.34,0.53-0.54,1.16-0.54,1.83v0.96
	c0,1.86,1.51,3.37,3.37,3.37h1.03c0.44,2.65,2.75,4.67,5.52,4.67c2.77,0,5.08-2.02,5.53-4.67h1.03c1.86,0,3.37-1.51,3.37-3.37v-0.96
	c0-0.67-0.2-1.3-0.54-1.83c1.14-0.54,1.93-1.7,1.93-3.05v-0.96c0-0.76-0.25-1.46-0.68-2.03l2.77-5.17c2.32-1.64,4.3-3.67,5.89-6.03
	C51.07,43.34,50.95,42.76,50.53,42.47L50.53,42.47z M31.48,69.98c-1.74,0-3.2-1.19-3.62-2.81h7.24
	C34.69,68.79,33.22,69.98,31.48,69.98L31.48,69.98z M39.54,63.8c0,0.83-0.68,1.51-1.51,1.51H24.93c-0.83,0-1.51-0.68-1.51-1.51
	v-0.96c0-0.83,0.68-1.51,1.51-1.51l13.11,0c0.83,0,1.51,0.68,1.51,1.51L39.54,63.8z M40.94,57.96c0,0.83-0.68,1.51-1.51,1.51H23.54
	c-0.83,0-1.51-0.68-1.51-1.51V57c0-0.83,0.68-1.51,1.51-1.51h15.89c0.83,0,1.51,0.68,1.51,1.51V57.96z M30.55,5.24V0.93
	c0-0.52,0.42-0.93,0.93-0.93s0.93,0.42,0.93,0.93v4.31c0,0.51-0.42,0.93-0.93,0.93C30.97,6.17,30.55,5.76,30.55,5.24z M48.9,13.39
	c-0.37-0.37-0.37-0.95,0-1.32l3.05-3.05c0.37-0.37,0.95-0.37,1.32,0c0.37,0.37,0.37,0.95,0,1.32l-3.05,3.05
	c-0.18,0.18-0.42,0.27-0.66,0.27C49.32,13.66,49.08,13.57,48.9,13.39L48.9,13.39z M53.27,51.27c0.37,0.37,0.37,0.95,0,1.32
	c-0.18,0.18-0.42,0.27-0.66,0.27c-0.24,0-0.48-0.09-0.66-0.27l-3.05-3.05c-0.37-0.37-0.37-0.95,0-1.32c0.37-0.37,0.95-0.37,1.32,0
	L53.27,51.27z M14.07,48.22c0.37,0.37,0.37,0.95,0,1.32l-3.05,3.05c-0.18,0.18-0.42,0.27-0.66,0.27c-0.24,0-0.48-0.09-0.66-0.27
	c-0.37-0.37-0.37-0.95,0-1.32l3.05-3.05C13.11,47.86,13.7,47.86,14.07,48.22L14.07,48.22z M6.85,30.81c0,0.51-0.42,0.93-0.93,0.93
	h-4.3c-0.51,0-0.93-0.42-0.93-0.93c0-0.51,0.42-0.93,0.93-0.93h4.31C6.43,29.87,6.85,30.29,6.85,30.81L6.85,30.81z M9.7,10.34
	c-0.37-0.37-0.37-0.95,0-1.32c0.37-0.37,0.95-0.37,1.32,0l3.05,3.05c0.37,0.37,0.37,0.95,0,1.32c-0.18,0.18-0.42,0.27-0.66,0.27
	c-0.24,0-0.48-0.09-0.66-0.27L9.7,10.34z M66.39,38.32c-2.4,0-4.4,1.72-4.84,4h-6.06l-4.9-4.9c-0.17-0.17-0.41-0.27-0.66-0.27h-5.42
	c0.37-0.76,0.67-1.55,0.9-2.36l2.64-0.67c0.41-0.1,0.7-0.48,0.7-0.9v-1.47h7.85c0.44,2.36,2.51,4.16,5,4.16
	c2.81,0,5.09-2.28,5.09-5.09c0-2.81-2.28-5.09-5.09-5.09c-2.49,0-4.56,1.79-5,4.16h-7.85v-1.47c0-0.43-0.29-0.8-0.7-0.9l-2.64-0.67
	c-0.21-0.74-0.48-1.45-0.8-2.14h5.18c0.25,0,0.48-0.1,0.66-0.27l4.9-4.9h6.06c0.44,2.28,2.44,4,4.84,4c2.72,0,4.93-2.21,4.93-4.93
	c0-2.72-2.21-4.93-4.93-4.93c-2.4,0-4.4,1.72-4.84,4h-6.45c-0.25,0-0.48,0.1-0.66,0.27l-4.9,4.9H44.7l0.83-1.4
	c0.22-0.37,0.16-0.84-0.14-1.14L42,16.9c-0.3-0.3-0.77-0.36-1.14-0.14l-2.34,1.39c-0.97-0.54-2-0.97-3.07-1.27l-0.67-2.64
	c-0.1-0.41-0.48-0.7-0.9-0.7h-4.8c-0.43,0-0.8,0.29-0.9,0.7l-0.67,2.64c-1.07,0.31-2.1,0.73-3.07,1.27l-2.34-1.39
	c-0.37-0.22-0.84-0.16-1.14,0.14l-3.39,3.39c-0.3,0.3-0.36,0.77-0.14,1.14l1.39,2.34c-0.54,0.97-0.97,2-1.27,3.07l-2.64,0.67
	c-0.41,0.1-0.7,0.48-0.7,0.9v4.8c0,0.43,0.29,0.8,0.7,0.9l2.64,0.67c0.31,1.07,0.73,2.1,1.27,3.07l-1.39,2.34
	c-0.22,0.37-0.16,0.84,0.14,1.14l3.39,3.39c0.3,0.3,0.77,0.36,1.14,0.14l2.34-1.39c0.97,0.54,2,0.97,3.07,1.27l0.67,2.64
	c0.1,0.41,0.48,0.7,0.9,0.7h4.8c0.43,0,0.8-0.29,0.9-0.7l0.67-2.64c1.07-0.31,2.1-0.73,3.07-1.27l2.34,1.39
	c0.37,0.22,0.84,0.16,1.14-0.14l3.39-3.39c0.3-0.3,0.36-0.77,0.14-1.14L44.83,39h4.71l4.9,4.9c0.17,0.17,0.41,0.27,0.66,0.27h6.45
	c0.44,2.28,2.44,4,4.84,4c2.72,0,4.93-2.21,4.93-4.93C71.32,40.52,69.11,38.32,66.39,38.32L66.39,38.32z M61.6,27.58
	c1.78,0,3.22,1.45,3.22,3.22s-1.45,3.22-3.22,3.22s-3.22-1.45-3.22-3.22S59.83,27.58,61.6,27.58z M66.26,15.52
	c1.69,0,3.07,1.37,3.07,3.07s-1.37,3.07-3.07,3.07s-3.07-1.37-3.07-3.07S64.57,15.52,66.26,15.52z M41.19,42.88l-2.19-1.3
	c-0.3-0.18-0.67-0.17-0.96,0.01c-1.11,0.68-2.32,1.18-3.58,1.48c-0.34,0.08-0.6,0.34-0.69,0.68l-0.63,2.46h-3.35l-0.63-2.47
	c-0.09-0.34-0.35-0.6-0.69-0.68c-1.26-0.31-2.47-0.81-3.58-1.48c-0.3-0.18-0.67-0.18-0.96-0.01l-2.19,1.3l-2.36-2.36l1.3-2.19
	c0.18-0.3,0.17-0.67-0.01-0.96c-0.68-1.11-1.18-2.32-1.48-3.58c-0.08-0.34-0.34-0.6-0.68-0.69l-2.46-0.63v-3.35l2.46-0.63
	c0.34-0.08,0.6-0.35,0.68-0.69c0.31-1.26,0.81-2.47,1.48-3.58c0.18-0.3,0.18-0.66,0.01-0.96l-1.3-2.19l2.36-2.36l2.19,1.3
	c0.3,0.18,0.67,0.18,0.96-0.01c1.11-0.68,2.32-1.18,3.58-1.48c0.34-0.08,0.6-0.34,0.69-0.68l0.63-2.47h3.35l0.63,2.47
	c0.08,0.34,0.35,0.6,0.69,0.68c1.26,0.31,2.47,0.81,3.58,1.48c0.3,0.18,0.67,0.18,0.96,0.01l2.19-1.3l2.36,2.36l-1.3,2.19
	c0,0,0,0.01-0.01,0.01c-0.04,0.07-0.07,0.14-0.09,0.21c0,0.01-0.01,0.02-0.01,0.03c-0.01,0.03-0.01,0.06-0.02,0.09
	c0,0.01,0,0.02,0,0.03c0,0.04-0.01,0.07-0.01,0.11v0v0.01c0,0.03,0,0.07,0.01,0.1c0,0.01,0,0.02,0.01,0.03
	c0.01,0.03,0.01,0.06,0.02,0.09c0,0.01,0,0.01,0.01,0.02c0.01,0.04,0.02,0.07,0.04,0.11c0,0,0,0.01,0,0.01
	c0.01,0.03,0.03,0.07,0.05,0.1c0,0,0,0.01,0.01,0.01c0.68,1.11,1.18,2.32,1.48,3.58c0.08,0.34,0.34,0.6,0.68,0.69l2.46,0.63v1.67v0
	v0v1.67l-2.47,0.63c-0.34,0.08-0.6,0.35-0.68,0.69c-0.31,1.26-0.81,2.46-1.48,3.58c-0.18,0.3-0.18,0.66-0.01,0.96l1.3,2.19
	L41.19,42.88z M66.39,46.31c-1.69,0-3.07-1.37-3.07-3.07s1.37-3.07,3.07-3.07s3.07,1.37,3.07,3.07
	C69.46,44.94,68.08,46.31,66.39,46.31z M31.48,21.77c-4.98,0-9.04,4.05-9.04,9.04s4.05,9.04,9.04,9.04s9.04-4.05,9.04-9.04
	S36.47,21.77,31.48,21.77z M31.48,37.98c-3.95,0-7.17-3.22-7.17-7.17s3.22-7.17,7.17-7.17s7.17,3.22,7.17,7.17
	C38.66,34.76,35.44,37.98,31.48,37.98z"/>
</svg>
