<?xml version="1.0" encoding="utf-8"?>
<!-- Generator: Adobe Illustrator 24.3.0, SVG Export Plug-In . SVG Version: 6.00 Build 0)  -->
<svg version="1.1" id="Layer_1" xmlns="http://www.w3.org/2000/svg" xmlns:xlink="http://www.w3.org/1999/xlink" x="0px" y="0px"
	 viewBox="0 0 72 72" style="enable-background:new 0 0 72 72;" xml:space="preserve">
<path d="M59.1,0H12.9c-2.3,0-4.2,1.9-4.2,4.2v63.6c0,2.3,1.9,4.2,4.2,4.2H59c2.3,0,4.2-1.9,4.2-4.2l0-63.6C63.2,1.9,61.4,0,59.1,0
	L59.1,0z M61.4,67.8c0,1.3-1,2.3-2.3,2.3H12.9c-1.3,0-2.3-1-2.3-2.3V4.2c0-1.3,1-2.3,2.3-2.3H59c1.3,0,2.3,1,2.3,2.3L61.4,67.8z
	 M18.9,30.5c0.5,0,1.1-0.2,1.5-0.5L34.2,21l1.6,2.4c-0.1,0.1-0.1,0.2-0.1,0.4c-0.1,0.5,0,0.9,0.3,1.3l1,1.5c0.2,0.3,0.5,0.4,0.8,0.4
	c0.2,0,0.4-0.1,0.5-0.2l8.7-5.8c0.2-0.1,0.4-0.4,0.4-0.6c0-0.2,0-0.5-0.1-0.7l-1-1.5c-0.3-0.4-0.7-0.7-1.1-0.8c-0.1,0-0.3,0-0.4,0
	l-1.7-2.6c0.5-0.7,0.5-1.7,0-2.5l-0.6-0.9c-0.3-0.5-0.8-0.8-1.4-1c-0.3-0.1-0.5-0.1-0.8,0L38.4,8c0.2-0.5,0.2-1.2-0.1-1.7l-1-1.5
	c-0.1-0.2-0.4-0.4-0.6-0.4s-0.5,0-0.7,0.1l-8.7,5.8c-0.2,0.1-0.4,0.4-0.4,0.6s0,0.5,0.1,0.7l1,1.5c0.3,0.4,0.7,0.7,1.1,0.8
	c0.1,0,0.2,0,0.4,0c0,0,0,0,0,0l1.6,2.4l-13.8,9.1c-0.6,0.4-1,1-1.2,1.8c-0.1,0.7,0,1.5,0.4,2.1C17.1,30.1,18,30.5,18.9,30.5
	L18.9,30.5z M38,24.7l-0.4-0.6l7.1-4.7l0.4,0.6L38,24.7z M36.2,6.6l0.4,0.6l-7.1,4.7l-0.4-0.6L36.2,6.6z M18,27.6
	c0-0.2,0.2-0.5,0.4-0.6l14.5-9.6c0.4-0.3,0.5-0.9,0.3-1.3l-2-3l5.8-3.8l2,3c0.3,0.4,0.9,0.5,1.3,0.3c0.1-0.1,0.2-0.1,0.3-0.1
	c0.1,0,0.2,0.1,0.3,0.2l0.6,0.9c0.1,0.2,0.1,0.4-0.1,0.6c-0.3,0.2-0.4,0.5-0.4,0.8v0v0c0,0.2,0.1,0.3,0.2,0.4l2,3l-5.8,3.8l-2-3
	c-0.3-0.4-0.9-0.5-1.3-0.3l-14.5,9.6c-0.4,0.3-1,0.2-1.3-0.3C18,28.1,17.9,27.8,18,27.6L18,27.6z M34.2,30.6v0.7h-0.8
	c-1.4,0-2.6,1.1-2.6,2.6v1.6c0,0.5,0.4,0.9,0.9,0.9H55c0.5,0,0.9-0.4,0.9-0.9v-1.6c0-1.4-1.1-2.6-2.6-2.6h-0.8v-0.7
	c0-1.4-1.1-2.6-2.6-2.6H36.7C35.3,28.1,34.2,29.2,34.2,30.6L34.2,30.6z M54,33.9v0.7H32.7v-0.7c0-0.4,0.3-0.7,0.7-0.7h1.8h0h0h16.4
	h0h0h1.8C53.7,33.2,54,33.5,54,33.9L54,33.9z M50.6,30.6v0.7l-14.6,0v-0.7c0-0.4,0.3-0.7,0.7-0.7h13.2C50.3,30,50.6,30.3,50.6,30.6
	L50.6,30.6z M24.1,40.2h-9.6c-0.5,0-0.9,0.4-0.9,0.9v9.6c0,0.5,0.4,0.9,0.9,0.9h9.6c0.5,0,0.9-0.4,0.9-0.9v-9.6
	C25.1,40.6,24.6,40.2,24.1,40.2z M23.2,49.8h-7.8V42h7.8V49.8z M16.3,46.8c-0.3-0.4-0.3-1,0.1-1.3c0.4-0.3,1-0.3,1.3,0.1l0.8,0.9
	l2.4-3.3c0.3-0.4,0.9-0.5,1.3-0.2c0.4,0.3,0.5,0.9,0.2,1.3l-3.1,4.3c-0.2,0.2-0.4,0.4-0.7,0.4h0c-0.3,0-0.5-0.1-0.7-0.3L16.3,46.8z
	 M29.3,42.5c0-0.5,0.4-0.9,0.9-0.9h13.6c0.5,0,0.9,0.4,0.9,0.9c0,0.5-0.4,0.9-0.9,0.9H30.2C29.7,43.5,29.3,43.1,29.3,42.5z
	 M30.2,48.4h27.3c0.5,0,0.9,0.4,0.9,0.9c0,0.5-0.4,0.9-0.9,0.9H30.2c-0.5,0-0.9-0.4-0.9-0.9C29.3,48.8,29.7,48.4,30.2,48.4z
	 M24.1,56.1h-9.6c-0.5,0-0.9,0.4-0.9,0.9v9.6c0,0.5,0.4,0.9,0.9,0.9h9.6c0.5,0,0.9-0.4,0.9-0.9v-9.6C25.1,56.6,24.6,56.1,24.1,56.1z
	 M23.2,65.8h-7.8V58h7.8V65.8z M16.3,62.8c-0.3-0.4-0.3-1,0.1-1.3c0.4-0.3,1-0.3,1.3,0.1l0.8,0.9l2.4-3.3c0.3-0.4,0.9-0.5,1.3-0.2
	c0.4,0.3,0.5,0.9,0.2,1.3l-3.1,4.3c-0.2,0.2-0.4,0.4-0.7,0.4h0c-0.3,0-0.5-0.1-0.7-0.3L16.3,62.8z M58.4,58.5c0,0.5-0.4,0.9-0.9,0.9
	H30.2c-0.5,0-0.9-0.4-0.9-0.9c0-0.5,0.4-0.9,0.9-0.9h27.3C58,57.6,58.4,58,58.4,58.5L58.4,58.5z M58.4,65.3c0,0.5-0.4,0.9-0.9,0.9
	H30.2c-0.5,0-0.9-0.4-0.9-0.9c0-0.5,0.4-0.9,0.9-0.9h27.3C58,64.3,58.4,64.7,58.4,65.3L58.4,65.3z"/>
</svg>
