<?xml version="1.0" encoding="utf-8"?>
<!-- Generator: Adobe Illustrator 24.3.0, SVG Export Plug-In . SVG Version: 6.00 Build 0)  -->
<svg version="1.1" id="Layer_1" xmlns="http://www.w3.org/2000/svg" xmlns:xlink="http://www.w3.org/1999/xlink" x="0px" y="0px"
	 viewBox="0 0 72 72" style="enable-background:new 0 0 72 72;" xml:space="preserve">
<path d="M59.05,42.9v20.37c0,0.52-0.42,0.94-0.94,0.94c-0.52,0-0.94-0.42-0.94-0.94l0-20.37c0-0.52,0.42-0.94,0.94-0.94
	C58.64,41.96,59.05,42.38,59.05,42.9L59.05,42.9z M25.15,65.67H12.21l-2.13-13.84c-0.07-0.46-0.46-0.79-0.92-0.79l-6.42,0
	c-0.31,0-0.57-0.14-0.73-0.41c-0.16-0.27-0.16-0.56-0.01-0.84l7.58-13.95c0-0.01,0.01-0.01,0.01-0.02c0.01-0.01,0.01-0.03,0.02-0.04
	c0.01-0.01,0.01-0.03,0.02-0.04c0.01-0.01,0.01-0.03,0.01-0.04c0.01-0.01,0.01-0.03,0.01-0.04c0-0.01,0.01-0.03,0.01-0.04
	c0-0.01,0.01-0.03,0.01-0.04s0.01-0.03,0.01-0.04c0-0.01,0-0.03,0.01-0.04s0-0.03,0-0.04v-0.04c0-0.01,0-0.03,0-0.05s0-0.03,0-0.04
	c0-0.01,0-0.03-0.01-0.05c0-0.01-0.01-0.03-0.01-0.04c0-0.01-0.01-0.03-0.01-0.04c0-0.01-0.01-0.03-0.01-0.05
	c0-0.01,0-0.01-0.01-0.02c-0.88-2.55-1.32-5.23-1.32-7.95C8.3,13.67,19.27,2.7,32.74,2.7c2.73,0,5.41,0.45,7.97,1.33
	c0.49,0.17,1.02-0.09,1.19-0.58s-0.09-1.02-0.58-1.19c-2.75-0.95-5.64-1.43-8.58-1.43c-14.51,0-26.31,11.8-26.31,26.31
	c0,2.79,0.43,5.54,1.29,8.17L0.34,48.9c-0.47,0.86-0.45,1.84,0.05,2.68c0.5,0.84,1.35,1.33,2.33,1.33h5.62l2.13,13.84
	c0,0,0,0.01,0,0.01c0.01,0.05,0.02,0.1,0.04,0.15c0,0.01,0.01,0.01,0.01,0.02c0.02,0.04,0.04,0.09,0.06,0.13
	c0,0.01,0.01,0.01,0.01,0.02c0.02,0.04,0.05,0.08,0.08,0.12c0,0,0,0,0.01,0.01c0.03,0.04,0.07,0.07,0.1,0.1c0,0,0.01,0.01,0.01,0.01
	c0.04,0.03,0.08,0.06,0.12,0.08c0.01,0,0.01,0.01,0.02,0.01c0.04,0.02,0.08,0.04,0.13,0.06c0.01,0,0.01,0.01,0.02,0.01
	c0.04,0.01,0.09,0.03,0.14,0.04c0.01,0,0.01,0,0.02,0c0.05,0.01,0.1,0.01,0.15,0.01h0.01h0h12.81v2.67c0,0.52,0.42,0.94,0.94,0.94
	c0.52,0,0.94-0.42,0.94-0.94v-3.6C26.09,66.09,25.67,65.67,25.15,65.67L25.15,65.67z M64.75,23.09c0,5.67-2.75,10.98-7.36,14.27
	l-1.96,3.66c0.29,0.44,0.46,0.96,0.46,1.53v0.72c0,1-0.54,1.88-1.35,2.36c0.2,0.38,0.31,0.81,0.31,1.27v0.72
	c0,1.27-0.86,2.33-2.03,2.65c-0.67,2.45-2.92,4.26-5.59,4.26c-2.66,0-4.91-1.81-5.59-4.26c-1.17-0.31-2.03-1.38-2.03-2.65v-0.72
	c0-0.46,0.11-0.88,0.31-1.27c-0.8-0.48-1.35-1.36-1.35-2.36v-0.72c0-0.56,0.17-1.09,0.46-1.53l-1.96-3.66
	c-4.61-3.29-7.36-8.6-7.36-14.27c0-9.65,7.85-17.51,17.51-17.51C56.9,5.58,64.76,13.43,64.75,23.09L64.75,23.09z M53.15,41.66h-11.8
	c-0.48,0-0.88,0.39-0.88,0.88v0.72c0,0.48,0.39,0.88,0.88,0.88h11.81c0.48,0,0.88-0.39,0.88-0.88l0-0.72
	C54.03,42.06,53.63,41.66,53.15,41.66L53.15,41.66z M52.11,46.01h-9.74c-0.48,0-0.88,0.39-0.88,0.88v0.72
	c0,0.48,0.39,0.88,0.88,0.88h9.74c0.48,0,0.88-0.39,0.88-0.88v-0.72C52.99,46.4,52.6,46.01,52.11,46.01z M50.81,50.35h-7.13
	c0.62,1.35,1.99,2.29,3.57,2.29C48.83,52.64,50.19,51.7,50.81,50.35L50.81,50.35z M62.89,23.09c0-8.62-7.02-15.64-15.64-15.64
	c-8.62,0-15.64,7.02-15.64,15.64c0,5.13,2.52,9.94,6.74,12.86c0.12,0.08,0.22,0.19,0.29,0.33l1.94,3.63
	c0.24-0.07,0.49-0.11,0.76-0.11h11.81c0.26,0,0.52,0.04,0.76,0.11l1.94-3.63c0.07-0.13,0.17-0.24,0.29-0.33
	C60.37,33.02,62.89,28.22,62.89,23.09L62.89,23.09z M63.43,5.58l-2.28,2.28c-0.37,0.37-0.37,0.96,0,1.32
	c0.18,0.18,0.42,0.27,0.66,0.27c0.24,0,0.48-0.09,0.66-0.27l2.28-2.28c0.37-0.37,0.37-0.96,0-1.32C64.38,5.22,63.79,5.22,63.43,5.58
	L63.43,5.58z M71.06,22.15h-3.22c-0.52,0-0.94,0.42-0.94,0.94c0,0.52,0.42,0.94,0.94,0.94h3.22c0.52,0,0.94-0.42,0.94-0.94
	C72,22.57,71.58,22.15,71.06,22.15z M62.47,36.99c-0.37-0.37-0.96-0.37-1.32,0c-0.37,0.37-0.37,0.96,0,1.32l2.28,2.28
	c0.18,0.18,0.42,0.27,0.66,0.27c0.24,0,0.48-0.09,0.66-0.27c0.37-0.37,0.37-0.96,0-1.32L62.47,36.99z M32.02,36.99l-2.28,2.28
	c-0.37,0.37-0.37,0.96,0,1.32c0.18,0.18,0.42,0.27,0.66,0.27c0.24,0,0.48-0.09,0.66-0.27l2.28-2.28c0.37-0.37,0.37-0.96,0-1.32
	C32.98,36.62,32.39,36.62,32.02,36.99L32.02,36.99z M26.65,22.15h-3.22c-0.52,0-0.94,0.42-0.94,0.94c0,0.52,0.42,0.94,0.94,0.94
	h3.22c0.52,0,0.94-0.42,0.94-0.94C27.59,22.57,27.17,22.15,26.65,22.15z M29.74,5.58c-0.37,0.37-0.37,0.96,0,1.32l2.28,2.28
	c0.18,0.18,0.42,0.27,0.66,0.27c0.24,0,0.48-0.09,0.66-0.27c0.37-0.37,0.37-0.96,0-1.32l-2.28-2.28C30.7,5.22,30.11,5.22,29.74,5.58
	L29.74,5.58z M53.6,16.96c0.12,0.16,0.19,0.35,0.19,0.56v16.94c0,1.61-1.31,2.92-2.92,2.92h-7.25c-1.61,0-2.92-1.31-2.92-2.92
	l0-16.93c0-0.21,0.07-0.4,0.19-0.56l5.61-7.51c0.18-0.24,0.45-0.37,0.75-0.37c0.29,0,0.57,0.14,0.75,0.37L53.6,16.96L53.6,16.96z
	 M43.5,16.58h7.49l-3.74-5.02L43.5,16.58z M51.92,18.45h-1.27v12.5h1.27V18.45z M43.84,30.95v-12.5h-1.27v12.5H43.84z M45.71,30.95
	h3.08v-12.5h-3.08L45.71,30.95z M51.92,34.45v-1.63h-9.35v1.63c0,0.58,0.47,1.05,1.05,1.05h7.25
	C51.45,35.51,51.92,35.03,51.92,34.45L51.92,34.45z"/>
</svg>
