<?xml version="1.0" encoding="utf-8"?>
<!-- Generator: Adobe Illustrator 24.3.0, SVG Export Plug-In . SVG Version: 6.00 Build 0)  -->
<svg version="1.1" id="Layer_1" xmlns="http://www.w3.org/2000/svg" xmlns:xlink="http://www.w3.org/1999/xlink" x="0px" y="0px"
	 viewBox="0 0 72 72" style="enable-background:new 0 0 72 72;" xml:space="preserve">
<style type="text/css">
	.st0{fill-rule:evenodd;clip-rule:evenodd;}
</style>
<path class="st0" d="M17.6,60.7L0.5,50.5c-0.4-0.3-0.6-0.8-0.4-1.3L20.9,0.6c0-0.1,0.1-0.1,0.1-0.2c0.1-0.2,0.3-0.3,0.4-0.4
	C21.5,0,21.7,0,21.8,0c0,0,0,0,0.1,0c0,0,0,0,0,0c0.2,0,0.3,0.1,0.5,0.2c0.2,0.1,0.3,0.3,0.4,0.4l16.5,37v-2.9
	c0-0.4,0.2-0.7,0.5-0.9l15.3-8.4c0.3-0.2,0.7-0.2,1,0l15.3,8.4c0.3,0.2,0.5,0.5,0.5,0.9v16.7c0,0.4-0.2,0.7-0.5,0.9l-15.3,8.4
	c-0.3,0.2-0.7,0.2-1,0l-3.9-2.1C50.3,66.2,43.8,72,36,72c-7.5,0-13.7-5.3-15.1-12.4l-2.3,1.2c-0.2,0.1-0.3,0.1-0.5,0.1
	C17.9,60.9,17.7,60.8,17.6,60.7z M20.5,6.9L2.3,49.2c0,0,11.5,6.9,14.9,8.9L20.5,6.9z M38.8,41.5L22.6,5.2l-3.4,52.9l1.4-0.7
	c0-0.3,0-0.6,0-0.9c0-8.5,6.9-15.4,15.4-15.4C36.9,41.2,37.9,41.3,38.8,41.5z M51.4,56.4l3.2,1.8V43.7l-13.3-7.3v5.8
	C47.1,44.3,51.3,49.8,51.4,56.4z M56.7,58.1L70,50.9c0,0,0-10.9,0-14.4l-13.3,7.3V58.1z M68.9,34.8l-13.2-7.2c0,0-9.7,5.3-13.1,7.2
	L55.7,42L68.9,34.8z M22.7,58c0.7,6.7,6.4,12,13.3,12c7.3,0,13.2-5.8,13.4-13c0,0,0,0,0,0c0-0.1,0-0.2,0-0.3c0-7.4-6-13.4-13.4-13.4
	c-7.4,0-13.4,6-13.4,13.4C22.6,57.1,22.7,57.5,22.7,58C22.7,58,22.7,58,22.7,58z"/>
</svg>
