<?xml version="1.0" encoding="utf-8"?>
<!-- Generator: Adobe Illustrator 24.3.0, SVG Export Plug-In . SVG Version: 6.00 Build 0)  -->
<svg version="1.1" id="Layer_1" xmlns="http://www.w3.org/2000/svg" xmlns:xlink="http://www.w3.org/1999/xlink" x="0px" y="0px"
	 viewBox="0 0 72 72" style="enable-background:new 0 0 72 72;" xml:space="preserve">
<path d="M17.1,17c-0.5,0-0.9-0.4-0.9-0.9c0-0.5,0.4-0.9,0.9-0.9h16.1c0.5,0,0.9,0.4,0.9,0.9c0,0.5-0.4,0.9-0.9,0.9H17.1z M14.7,21.7
	c0,0.5,0.4,0.9,0.9,0.9h17.5c0.5,0,0.9-0.4,0.9-0.9c0-0.5-0.4-0.9-0.9-0.9H15.7C15.1,20.8,14.7,21.2,14.7,21.7z M13.2,27.4
	c0,0.5,0.4,0.9,0.9,0.9h19c0.5,0,0.9-0.4,0.9-0.9c0-0.5-0.4-0.9-0.9-0.9h-19C13.6,26.4,13.2,26.9,13.2,27.4z M23,59.2
	c0.2,0.2,0.4,0.3,0.7,0.3h0c0.3,0,0.6-0.2,0.7-0.4l7-9.7c0.3-0.4,0.2-1-0.2-1.3c-0.4-0.3-1-0.2-1.3,0.2l-6.3,8.7l-2.8-3.2
	c-0.3-0.4-0.9-0.4-1.3-0.1c-0.4,0.3-0.4,0.9-0.1,1.3L23,59.2z M12.4,53.8c0-7.2,5.8-13,13-13c3.5,0,6.6,1.4,9,3.6
	c0.7-0.4,1.5-0.7,2.3-0.7h2.9v-1.1c0-1.6,1.3-3,3-3h2.5l2.4-20c-3.2-1.6-5.4-5-5.6-8.8H13.7L2.1,69.9h59.1l-2.1-10.5H42.2
	c-0.5,0-0.9-0.4-0.9-0.9c0-0.5,0.4-0.9,0.9-0.9h17.7h0h11.2c0.5,0,0.9,0.4,0.9,0.9c0,0.5-0.4,0.9-0.9,0.9H61l2.2,11.3v0v0
	c0,0,0,0,0,0c0,0,0,0,0,0.1c0,0,0,0,0,0.1v0v0c0,0,0,0.1,0,0.1v0c0,0,0,0.1,0,0.1v0c0,0,0,0,0,0.1c0,0.1-0.1,0.2-0.1,0.3
	c0,0,0,0,0,0c0,0,0,0,0,0c0,0,0,0,0,0c0,0,0,0,0,0c0,0,0,0,0,0l0,0c-0.1,0.1-0.2,0.1-0.2,0.2c0,0,0,0,0,0c0,0,0,0,0,0
	c0,0-0.1,0-0.1,0c0,0,0,0,0,0c0,0-0.1,0-0.1,0h0c0,0,0,0,0,0c0,0,0,0-0.1,0c0,0-0.1,0-0.1,0h0l-61.4,0h0c0,0-0.1,0-0.1,0
	c0,0,0,0-0.1,0c0,0,0,0,0,0h0c0,0-0.1,0-0.1,0c0,0,0,0,0,0c0,0-0.1,0-0.1,0c0,0,0,0,0,0c0,0,0,0,0,0c-0.1,0-0.2-0.1-0.2-0.2l0,0
	c0,0,0,0,0,0c0,0,0,0,0,0c0,0,0,0,0,0c0,0,0,0,0,0c0,0,0,0,0,0C0.1,71.2,0.1,71.1,0,71c0,0,0,0,0-0.1v0c0,0,0-0.1,0-0.1v0
	c0,0,0-0.1,0-0.1v0v0c0,0,0,0,0-0.1c0,0,0,0,0-0.1c0,0,0,0,0,0v0v0L12,9.7v0c0,0,0-0.1,0-0.1c0,0,0,0,0,0c0,0,0,0,0-0.1c0,0,0,0,0,0
	c0,0,0,0,0,0c0.1-0.1,0.1-0.2,0.2-0.3l0,0c0,0,0,0,0.1,0c0,0,0,0,0,0c0,0,0,0,0,0c0,0,0,0,0,0c0,0,0,0,0,0c0,0,0,0,0.1,0
	c0.1,0,0.2-0.1,0.4-0.1h0h29.2c0.8-4.9,5-8.6,10.1-8.6c5.6,0,10.2,4.6,10.2,10.2c0,4-2.3,7.4-5.6,9.1l2.4,20h2.5c1.6,0,3,1.3,3,3
	v1.1h2.9c2.4,0,4.3,1.9,4.3,4.3v6.5c0,0.5-0.4,0.9-0.9,0.9l-32.6,0c-0.8,6.4-6.3,11.4-12.9,11.4C18.3,66.8,12.4,60.9,12.4,53.8
	L12.4,53.8z M52.2,18.8c4.6,0,8.3-3.7,8.3-8.3c0-4.6-3.7-8.3-8.3-8.3c-4.6,0-8.3,3.7-8.3,8.3C43.9,15.1,47.6,18.8,52.2,18.8z
	 M47,39.6h10.3L55,20.3c-0.9,0.3-1.9,0.4-2.8,0.4s-1.9-0.1-2.8-0.4L47,39.6z M41.5,43.6h21.3v-1.1c0-0.6-0.5-1.1-1.1-1.1H42.6
	c-0.6,0-1.1,0.5-1.1,1.1L41.5,43.6z M36.7,45.5c-0.3,0-0.7,0.1-1,0.2c1.7,2.2,2.7,4.9,2.8,7.8h31.6V48c0-1.4-1.1-2.5-2.5-2.5h-3.9h0
	h0H40.6h0h0L36.7,45.5z M14.3,53.8c0,6.2,5,11.2,11.2,11.2c6.2,0,11.2-5,11.2-11.2s-5-11.2-11.2-11.2C19.3,42.6,14.3,47.6,14.3,53.8
	z"/>
</svg>
