<?xml version="1.0" encoding="utf-8"?>
<!-- Generator: Adobe Illustrator 24.3.0, SVG Export Plug-In . SVG Version: 6.00 Build 0)  -->
<svg version="1.1" id="Layer_1" xmlns="http://www.w3.org/2000/svg" xmlns:xlink="http://www.w3.org/1999/xlink" x="0px" y="0px"
	 viewBox="0 0 72 72" style="enable-background:new 0 0 72 72;" xml:space="preserve">
<path d="M1,9.8h5l6.1,14.3c0.2,0.4,0.5,0.6,0.9,0.6l0,0c0.4,0,0.8-0.3,0.9-0.6l5.8-14.3h5.6c0.4,0,0.8-0.3,0.9-0.6l2.3-5.8l6.5,12
	c0.2,0.3,0.5,0.5,0.8,0.5s0.7-0.1,0.9-0.4L41,9.8h23.1c0.5,1.7,2,2.9,3.8,2.9c2.2,0,4-1.8,4-4s-1.8-4-4-4c-1.8,0-3.4,1.2-3.8,2.9
	H40.6c-0.3,0-0.6,0.2-0.8,0.4l-3.6,5L29.4,0.5c-0.2-0.3-0.6-0.6-1-0.5c-0.4,0-0.7,0.3-0.9,0.6l-2.9,7.1H19c-0.4,0-0.8,0.3-0.9,0.6
	L13,21.1L7.6,8.4C7.5,8,7.1,7.8,6.7,7.8H1c-0.6,0-1,0.5-1,1C0,9.4,0.5,9.8,1,9.8z M68,6.9c1.1,0,1.9,0.9,1.9,1.9S69,10.7,68,10.7
	s-1.9-0.9-1.9-1.9S67,6.9,68,6.9z M30.1,63.5h-0.6c-0.5-2-1-4.2-1.5-6.3c-0.9-4-1.9-6.5-7.3-8.1l-5.2-3.7c-0.9-0.6-2-0.9-3-0.7
	l-3.4-8.1C6.8,31,3.8,31.7,2.9,32c-2.2,0.8-3.4,3.7-2.7,6l4.4,13.3c0,0.1,0.1,0.3,0.1,0.4c0.7,2.2,1.6,4.9,3.7,6.4l6,4.1
	c0.5,0.3,0.8,0.7,1,1.2h-0.1l0,0c-0.7,0-1.3,0.3-1.7,0.7c-0.5,0.5-0.7,1.1-0.7,1.7v3.6c0,1.4,1.1,2.5,2.5,2.5h14.8
	c0.7,0,1.3-0.3,1.7-0.7c0.5-0.5,0.7-1.1,0.7-1.7v-3.6C32.6,64.6,31.5,63.5,30.1,63.5z M15.6,60.6l-6-4.1c-1.5-1-2.3-3.4-2.9-5.3
	c0-0.1-0.1-0.3-0.1-0.4L2.2,37.4C1.7,36,2.6,34.3,3.6,34c1.2-0.4,2.6,0.8,3.6,3.4l3.5,8.2c-0.3,0.2-0.5,0.5-0.7,0.8
	c-0.6,0.9-0.9,1.9-0.7,3s0.7,2,1.6,2.6l7.1,5c0.5,0.3,1.1,0.2,1.4-0.2c0.3-0.5,0.2-1.1-0.2-1.4l-7.1-5.1c-0.4-0.3-0.7-0.8-0.8-1.3
	s0-1,0.3-1.5c0.6-0.9,1.9-1.1,2.7-0.4l5.3,3.8c0.1,0.1,0.2,0.1,0.3,0.2c4.5,1.2,5.2,3,6,6.6c0.5,2,0.9,3.9,1.4,5.8h-9.8
	C17.3,62.3,16.6,61.3,15.6,60.6z M30.4,69.8c-0.1,0.1-0.1,0.1-0.3,0.1H15.3c-0.2,0-0.4-0.2-0.4-0.4v-3.6c0-0.1,0.1-0.2,0.1-0.3
	c0.1-0.1,0.1-0.1,0.3-0.1h14.8c0.2,0,0.4,0.2,0.4,0.4v3.6C30.5,69.7,30.5,69.8,30.4,69.8z M69.1,32c-0.9-0.3-3.9-1-6.2,4.5l-3.4,8.1
	c-1-0.2-2.1,0.1-3,0.7L51.3,49c-5.4,1.5-6.3,4.1-7.3,8.1c-0.5,2.1-1,4.2-1.5,6.3h-0.6c-1.4,0-2.5,1.1-2.5,2.5v3.6
	c0,0.7,0.3,1.3,0.7,1.7c0.5,0.5,1.1,0.7,1.7,0.7h14.8c1.4,0,2.5-1.1,2.5-2.5v-3.6c0-0.7-0.3-1.3-0.7-1.7c-0.5-0.5-1.1-0.7-1.7-0.7
	h-0.1c0.2-0.5,0.6-0.9,1-1.2l6-4.1c2.1-1.4,3-4.2,3.7-6.4c0-0.1,0.1-0.3,0.1-0.4L71.8,38C72.5,35.7,71.3,32.8,69.1,32z M56.7,65.5
	c0.1,0,0.2,0.1,0.3,0.1c0.1,0.1,0.1,0.1,0.1,0.3v3.6c0,0.2-0.2,0.4-0.4,0.4H41.9c-0.1,0-0.2-0.1-0.3-0.1c-0.1-0.1-0.1-0.1-0.1-0.3
	v-3.6c0-0.2,0.2-0.4,0.4-0.4H56.7z M69.8,37.4l-4.4,13.3c0,0.1-0.1,0.3-0.1,0.4c-0.6,1.9-1.4,4.3-2.9,5.3l-6,4.1
	c-1,0.7-1.7,1.7-2,2.9h-9.8c0.5-1.9,1-3.9,1.4-5.8c0.8-3.6,1.5-5.4,6-6.6c0.1,0,0.2-0.1,0.3-0.2l5.3-3.8c0.4-0.3,0.9-0.4,1.5-0.3
	c0.5,0.1,1,0.4,1.3,0.8c0.3,0.4,0.4,0.9,0.3,1.5c-0.1,0.5-0.4,1-0.8,1.3l-7.1,5.1c-0.5,0.3-0.6,1-0.2,1.4c0.3,0.5,1,0.6,1.4,0.2
	l7.1-5.1c0.9-0.6,1.4-1.5,1.6-2.6c0.2-1.1-0.1-2.1-0.7-3c-0.2-0.3-0.5-0.6-0.7-0.8l3.5-8.2c1.1-2.6,2.5-3.9,3.6-3.4
	C69.4,34.3,70.3,36,69.8,37.4z M49.3,40.5c3.7-4.5,5.6-8.6,5.6-12.3c0-5-4.5-9-10-9c-4,0-6.6,1.5-8.9,5c-2.3-3.6-4.9-5-8.9-5
	c-5.5,0-10,4-10,9c0,3.7,1.8,7.8,5.6,12.3c3.2,3.8,7.3,7.6,12,11.8c0.4,0.3,0.9,0.5,1.3,0.5s1-0.2,1.3-0.5
	C42,48.1,46.2,44.3,49.3,40.5z M36,50.7c-7.9-7.1-16.8-15-16.8-22.5c0-3.8,3.5-7,7.9-7c3.3,0,5.3,1.1,7.2,4.1c0.4,0.6,1,0.9,1.7,0.9
	s1.3-0.3,1.7-0.9c2-3,3.9-4.1,7.2-4.1c4.4,0,7.9,3.1,7.9,7C52.8,35.7,43.9,43.7,36,50.7z M42.2,32.6h-2.8v-2.8c0-0.6-0.5-1-1-1h-4.8
	c-0.6,0-1,0.5-1,1v2.8h-2.8c-0.6,0-1,0.5-1,1v4.8c0,0.6,0.5,1,1,1h2.8v2.8c0,0.6,0.5,1,1,1h4.8c0.6,0,1-0.5,1-1v-2.8h2.8
	c0.6,0,1-0.5,1-1v-4.8C43.2,33.1,42.7,32.6,42.2,32.6z M41.1,37.4h-2.8c-0.6,0-1,0.5-1,1v2.8h-2.7v-2.8c0-0.6-0.5-1-1-1h-2.8v-2.7
	h2.8c0.6,0,1-0.5,1-1v-2.8h2.7v2.8c0,0.6,0.5,1,1,1h2.8V37.4z"/>
</svg>
