<?xml version="1.0" encoding="utf-8"?>
<!-- Generator: Adobe Illustrator 24.3.0, SVG Export Plug-In . SVG Version: 6.00 Build 0)  -->
<svg version="1.1" id="Layer_1" xmlns="http://www.w3.org/2000/svg" xmlns:xlink="http://www.w3.org/1999/xlink" x="0px" y="0px"
	 viewBox="0 0 72 72" style="enable-background:new 0 0 72 72;" xml:space="preserve">
<path d="M70.7,65.1l-6-8.7c0.7-0.8,0.9-2,0.4-3.1l-0.6-1.2c1.6-1.7,2.8-3.7,3.5-5.9c1.3-3.9,0.9-8.1-0.9-11.7
	c-1.9-3.6-5-6.3-8.9-7.6c-1.3-0.4-2.5-0.6-3.8-0.7V4c0-0.5-0.4-0.9-0.9-0.9c-0.5,0-0.9,0.4-0.9,0.9v22.2c-0.4,0-0.9,0.1-1.3,0.1V0.8
	c0-0.5-0.4-0.9-0.9-0.9H1.5C1-0.1,0.6,0.3,0.6,0.8v61.4c0,0.5,0.4,0.9,0.9,0.9h48.6c0.5,0,0.9-0.4,0.9-0.9v-5.6
	c0.4,0.1,0.9,0.1,1.3,0.1v7.6l-47.7,0c-0.5,0-0.9,0.4-0.9,0.9c0,0.5,0.4,0.9,0.9,0.9h48.6c0.5,0,0.9-0.4,0.9-0.9l0-8.6
	c0.4,0,0.9-0.1,1.3-0.1l0.6,1.2c0.5,1,1.5,1.5,2.5,1.5c0.1,0,0.2,0,0.2,0l3.5,9.9c0.4,1.1,1.2,1.9,2.3,2.3c0.6,0.2,1.2,0.3,1.8,0.3
	c0.8,0,1.5-0.2,2.2-0.5c1.2-0.6,2.2-1.8,2.5-3.1C71.5,67.2,71.4,66,70.7,65.1L70.7,65.1z M65.4,35.3c1.6,3.2,1.9,6.9,0.8,10.3
	c-1.1,3.4-3.5,6.2-6.7,7.9c-1.9,1-4.1,1.5-6.2,1.5h0h0c-1.4,0-2.7-0.2-4.1-0.7c-3.4-1.1-6.2-3.5-7.9-6.7C38,41,40.6,32.9,47.3,29.5
	c1-0.5,2-0.9,3.1-1.1c0,0,0,0,0.1,0c2.3-0.5,4.8-0.4,7.1,0.3C61,29.8,63.7,32.1,65.4,35.3L65.4,35.3z M49.3,61.3H2.5V1.8h46.8v25
	c-1,0.3-1.9,0.6-2.9,1.1c-7.5,3.9-10.5,13.1-6.7,20.7c1.9,3.6,5,6.3,8.9,7.6c0.2,0.1,0.4,0.1,0.6,0.2L49.3,61.3z M57.9,57.1
	l-0.4-0.8c1-0.3,2-0.7,2.9-1.1c0.9-0.5,1.8-1.1,2.6-1.7l0.4,0.8c0.2,0.4,0.1,1-0.4,1.2l-4,2C58.6,57.7,58.1,57.5,57.9,57.1
	L57.9,57.1z M69.4,67.9c-0.2,0.8-0.8,1.5-1.5,1.9c-0.7,0.4-1.7,0.4-2.5,0.1c-0.4-0.2-1-0.5-1.2-1.2l-3.5-10l2.5-1.3l6,8.7
	C69.6,66.8,69.6,67.4,69.4,67.9L69.4,67.9z M51.2,46.1l8.1-11.2c0.3-0.4,0.9-0.5,1.3-0.2c0.4,0.3,0.5,0.9,0.2,1.3L52,48.1
	c-0.2,0.2-0.4,0.4-0.7,0.4h0c-0.3,0-0.5-0.1-0.7-0.3L46.1,43c-0.3-0.4-0.3-1,0.1-1.3c0.4-0.3,1-0.3,1.3,0.1L51.2,46.1z M6.6,15h38.4
	c0.5,0,0.9-0.4,0.9-0.9V6.3c0-0.5-0.4-0.9-0.9-0.9l-38.4,0c-0.5,0-0.9,0.4-0.9,0.9v7.8C5.7,14.6,6.1,15,6.6,15L6.6,15z M7.6,7.2
	h36.6v6H7.6V7.2z M5.7,23.7c0-0.5,0.4-0.9,0.9-0.9h38.4c0.5,0,0.9,0.4,0.9,0.9c0,0.5-0.4,0.9-0.9,0.9l-38.4,0
	C6.1,24.7,5.7,24.3,5.7,23.7L5.7,23.7z M33.9,33.4c0,0.5-0.4,0.9-0.9,0.9H6.6c-0.5,0-0.9-0.4-0.9-0.9c0-0.5,0.4-0.9,0.9-0.9H33
	C33.5,32.4,33.9,32.8,33.9,33.4z M33.9,43c0,0.5-0.4,0.9-0.9,0.9H6.6c-0.5,0-0.9-0.4-0.9-0.9c0-0.5,0.4-0.9,0.9-0.9H33
	C33.5,42,33.9,42.5,33.9,43z M33.9,52.6c0,0.5-0.4,0.9-0.9,0.9H6.6c-0.5,0-0.9-0.4-0.9-0.9c0-0.5,0.4-0.9,0.9-0.9H33
	C33.5,51.7,33.9,52.1,33.9,52.6z"/>
</svg>
