<?xml version="1.0" encoding="utf-8"?>
<!-- Generator: Adobe Illustrator 24.3.0, SVG Export Plug-In . SVG Version: 6.00 Build 0)  -->
<svg version="1.1" id="Layer_1" xmlns="http://www.w3.org/2000/svg" xmlns:xlink="http://www.w3.org/1999/xlink" x="0px" y="0px"
	 viewBox="0 0 72 72" style="enable-background:new 0 0 72 72;" xml:space="preserve">
<path d="M68.83,0.31H3.17C1.42,0.31,0,1.73,0,3.48v33.93c0,1.75,1.42,3.17,3.17,3.17h40.59v3.44c0,0.52,0.42,0.94,0.94,0.94h14.96
	c2.77,0,5.11-1.85,5.86-4.37h3.33c1.75,0,3.17-1.42,3.17-3.17V3.48C72,1.73,70.58,0.31,68.83,0.31L68.83,0.31z M63.89,38.84
	c0,2.09-1.52,3.83-3.51,4.18l0-12.5c0-0.52-0.42-0.94-0.94-0.94c-0.52,0-0.94,0.42-0.94,0.94v12.57l-12.88,0V25.24
	c0-0.52-0.42-0.94-0.94-0.94H27.47c0.35-1.99,2.09-3.51,4.18-3.51h25.9c3.5,0,6.34,2.84,6.34,6.34L63.89,38.84z M70.13,37.41
	c0,0.72-0.58,1.3-1.3,1.3l-3.07,0V27.14c0-4.53-3.68-8.21-8.21-8.21h-25.9c-3.37,0-6.11,2.74-6.11,6.11v0.2
	c0,0.52,0.42,0.94,0.94,0.94h17.28v12.53H3.17c-0.72,0-1.3-0.58-1.3-1.3V3.48c0-0.72,0.58-1.3,1.3-1.3h65.66
	c0.72,0,1.3,0.58,1.3,1.3L70.13,37.41z M52.07,4.14c-3.89,0-7.05,3.17-7.05,7.05c0,3.89,3.17,7.05,7.05,7.05
	c3.89,0,7.05-3.17,7.05-7.05S55.96,4.14,52.07,4.14z M52.07,16.38c-2.86,0-5.18-2.32-5.18-5.18s2.32-5.18,5.18-5.18
	c2.86,0,5.18,2.32,5.18,5.18C57.25,14.05,54.93,16.38,52.07,16.38z M15.19,58.16c1.81-1.24,3.01-3.32,3.01-5.68
	c0-3.79-3.08-6.87-6.87-6.87s-6.87,3.08-6.87,6.87c0,2.35,1.19,4.44,3.01,5.68C3.12,59.74,0,63.91,0,68.81v1.95
	c0,0.52,0.42,0.94,0.94,0.94h20.79c0.52,0,0.94-0.42,0.94-0.94v-1.95C22.66,63.91,19.54,59.74,15.19,58.16L15.19,58.16z M6.33,52.48
	c0-2.75,2.24-5,5-5c2.75,0,5,2.24,5,5c0,2.75-2.24,5-5,5C8.57,57.48,6.33,55.24,6.33,52.48z M20.79,69.82H1.87v-1.01
	c0-5.21,4.24-9.46,9.46-9.46c5.21,0,9.46,4.24,9.46,9.46L20.79,69.82z M39.86,58.16c1.81-1.24,3.01-3.32,3.01-5.68
	c0-3.79-3.08-6.87-6.87-6.87c-3.79,0-6.87,3.08-6.87,6.87c0,2.35,1.19,4.44,3.01,5.68c-4.35,1.58-7.47,5.76-7.47,10.65v1.94v0
	c0,0.52,0.42,0.94,0.94,0.94h20.79c0.52,0,0.94-0.42,0.94-0.94v-1.95C47.33,63.91,44.21,59.74,39.86,58.16L39.86,58.16z M31,52.48
	c0-2.75,2.24-5,5-5c2.75,0,5,2.24,5,5c0,2.75-2.24,5-5,5C33.24,57.48,31,55.24,31,52.48z M45.46,69.82H26.54v-1.01
	c0-5.21,4.24-9.46,9.46-9.46c5.21,0,9.46,4.24,9.46,9.46L45.46,69.82z M64.53,58.16c1.81-1.24,3.01-3.32,3.01-5.68
	c0-3.79-3.08-6.87-6.87-6.87c-3.79,0-6.87,3.08-6.87,6.87c0,2.35,1.19,4.44,3.01,5.68c-4.35,1.58-7.47,5.76-7.47,10.65v1.94v0
	c0,0.52,0.42,0.94,0.94,0.94h20.79c0.52,0,0.94-0.42,0.94-0.94v-1.95C72,63.91,68.88,59.74,64.53,58.16L64.53,58.16z M55.67,52.48
	c0-2.75,2.24-5,5-5c2.75,0,5,2.24,5,5c0,2.75-2.24,5-5,5C57.91,57.47,55.67,55.24,55.67,52.48z M70.13,69.82H51.21v-1.01
	c0-5.21,4.24-9.46,9.46-9.46c5.21,0,9.46,4.24,9.46,9.46L70.13,69.82z"/>
</svg>
