<?xml version="1.0" encoding="utf-8"?>
<!-- Generator: Adobe Illustrator 24.3.0, SVG Export Plug-In . SVG Version: 6.00 Build 0)  -->
<svg version="1.1" id="Layer_1" xmlns="http://www.w3.org/2000/svg" xmlns:xlink="http://www.w3.org/1999/xlink" x="0px" y="0px"
	 viewBox="0 0 72 72" style="enable-background:new 0 0 72 72;" xml:space="preserve">
<g>
	<path d="M2.03,43.94c1.2-2.71,3.74-3.44,6.25-4.1c3.08-0.8,5.75-0.24,7.8,2.5c3.34,4.46,6.8,8.84,10.2,13.26
		c0.32,0.41,0.59,0.85,1,1.43c0.69-1.75,1.34-3.36,1.96-4.98c6.4-16.6,14.47-32.32,24.44-47.07C55.71,2,58.6,0.71,61.97,0.27
		c1.78-0.23,3.61-0.29,5.41-0.26c2.6,0.04,3.28,1.28,1.86,3.48c-2.45,3.77-5.06,7.43-7.52,11.19C50.82,31.3,41.89,48.93,35.18,67.65
		c-0.96,2.67-2.47,4.1-5.26,4.21c-0.36,0.02-0.72,0.09-1.08,0.1c-5.83,0.18-6.2-0.01-9.3-4.93c-4.38-6.96-9.47-13.36-15.1-19.35
		c-0.92-0.98-1.61-2.16-2.41-3.25C2.03,44.27,2.03,44.11,2.03,43.94z"/>
</g>
</svg>
