<svg xmlns="http://www.w3.org/2000/svg" version="1.1" viewBox="-5.0 -10.0 110.0 135.0">
 <path d="m44.262 48.613c7.4531-0.34766 13.418-6.5234 13.418-14.062 0-5.7305-3.4609-10.852-8.7031-13.012-0.078124-5.9492-4.6562-10.836-10.477-11.402-0.56641-3.9609-3.9805-7.0117-8.0938-7.0117s-7.5234 3.0508-8.0898 7.0117c-5.8242 0.56641-10.398 5.4531-10.477 11.402-5.2422 2.1602-8.7031 7.2812-8.7031 13.012 0 7.5352 5.9609 13.715 13.418 14.062 3 4.0703 7.6211 6.6016 12.637 6.957v40.086c0 0.67188 0.54297 1.2188 1.2188 1.2188 0.67188 0 1.2188-0.54297 1.2188-1.2188l-0.003906-40.086c5.0156-0.35547 9.6367-2.8867 12.637-6.957zm-26.062-1.8867c-0.22656-0.33203-0.60156-0.53125-1.0039-0.53125-6.4102-0.011718-11.621-5.2344-11.621-11.641 0-4.9922 3.1758-9.4219 7.8984-11.027 0.52344-0.17578 0.85938-0.68359 0.82422-1.2305-0.011719-0.21094-0.019531-0.41016-0.019531-0.60156 0-5.0586 4.1172-9.1797 9.1797-9.1797 0.67188 0 1.2188-0.54297 1.2188-1.2188 0-3.1641 2.5742-5.7383 5.7383-5.7383 3.1641 0 5.7383 2.5742 5.7383 5.7383 0 0.67188 0.54297 1.2188 1.2188 1.2188 5.0625 0 9.1797 4.1172 9.1797 9.1797 0 0.19141-0.007812 0.39453-0.019531 0.60156-0.035156 0.55078 0.30078 1.0547 0.82422 1.2305 4.7227 1.6016 7.8984 6.0352 7.8984 11.027 0 6.4102-5.2148 11.633-11.621 11.641-0.40234 0-0.77734 0.19922-1.0039 0.53125-2.7578 4.043-7.3203 6.457-12.207 6.457-4.8984-0.003906-9.4648-2.4141-12.223-6.457zm63.344 31.102h-7.7266v-5.1641h0.78906c1.9531 0 3.543-1.5898 3.543-3.543v-4.4766c0-1.9531-1.5898-3.543-3.543-3.543l-29.785-0.003906c-1.9531 0-3.543 1.5898-3.543 3.543v4.4766c0 1.9531 1.5898 3.543 3.543 3.543h0.78906v5.1641h-7.7266c-0.67187 0-1.2188 0.54297-1.2188 1.2188v2.5664c0 1.9141 1.4336 3.5 3.2812 3.7461v10.301c0 0.67188 0.54297 1.2188 1.2188 1.2188 0.67188 0 1.2188-0.54297 1.2188-1.2188v-10.262h34.66v10.262c0 0.67188 0.54297 1.2188 1.2188 1.2188 0.67188 0 1.2188-0.54297 1.2188-1.2188v-10.301c1.8477-0.24609 3.2812-1.8281 3.2812-3.7461v-2.5664c0-0.66797-0.54688-1.2148-1.2188-1.2148zm-37.832-8.707v-4.4766c0-0.61328 0.49609-1.1094 1.1094-1.1094h29.785c0.61328 0 1.1094 0.49609 1.1094 1.1094v4.4766c0 0.61328-0.49609 1.1094-1.1094 1.1094h-29.785c-0.60937 0-1.1094-0.49609-1.1094-1.1094zm4.332 3.543h23.336v5.1641h-23.336zm32.281 8.9492c0 0.74219-0.60547 1.3477-1.3477 1.3477l-38.527-0.003907c-0.74219 0-1.3477-0.60547-1.3477-1.3477v-1.3477h41.227v1.3516zm-53.223 3.1758c0-0.011718 0-0.019531-0.003906-0.03125-0.003906-0.023437-0.007812-0.050781-0.011718-0.074218-0.003907-0.015625-0.003907-0.035156-0.007813-0.050782-0.003906-0.015624-0.007813-0.027343-0.011719-0.042968-0.007812-0.027344-0.011718-0.050782-0.019531-0.078125-0.003906-0.007813-0.007813-0.015625-0.007813-0.023438-0.011718-0.03125-0.023437-0.0625-0.035156-0.089843 0 0 0-0.003907-0.003906-0.003907-0.003906-0.007812-0.007812-0.015625-0.011719-0.023437-0.011719-0.027344-0.027343-0.054688-0.039062-0.082032-0.007813-0.015624-0.015625-0.027343-0.023438-0.042968-0.011719-0.019532-0.023437-0.039063-0.035156-0.058594-0.011719-0.015625-0.023437-0.035156-0.039063-0.050781-0.011718-0.015625-0.023437-0.027344-0.035156-0.042969-0.015625-0.019531-0.03125-0.035156-0.046875-0.050781-0.011719-0.011719-0.023437-0.023438-0.035156-0.035157-0.015625-0.015624-0.03125-0.027343-0.046875-0.042968-0.011719-0.011719-0.027344-0.023438-0.042969-0.035156l-0.046875-0.035157c-0.015625-0.011719-0.035156-0.023437-0.050781-0.035156-0.011719-0.007813-0.027344-0.015625-0.039063-0.023437-0.019531-0.011719-0.042968-0.023438-0.066406-0.035157-0.011718-0.007812-0.023437-0.011719-0.035156-0.015625-0.023438-0.011718-0.050781-0.023437-0.074219-0.035156-0.011719-0.003906-0.019531-0.007812-0.03125-0.011719-0.027343-0.007812-0.050781-0.019531-0.078125-0.027343-0.011718-0.003907-0.023437-0.007813-0.035156-0.007813-0.023438-0.007813-0.050781-0.011719-0.078125-0.019531-0.015625-0.003906-0.035156-0.003906-0.050781-0.007813-0.023438-0.003906-0.042969-0.007812-0.066406-0.007812-0.023438-0.003907-0.046876-0.003907-0.070313-0.003907-0.011719 0-0.027344-0.003906-0.039063-0.003906h-0.011718-0.019532c-2.9453 0.007813-5.6406 1.082-7.7227 2.8555l-1.8047-15.844c-0.070313-0.61719-0.58984-1.082-1.2109-1.082-0.61719 0-1.1406 0.46484-1.2109 1.082l-1.8047 15.844c-2.0859-1.7734-4.7812-2.8477-7.7227-2.8555h-0.019531-0.011719c-0.011719 0-0.027344 0.003906-0.039062 0.003906-0.023438 0-0.046876 0-0.070313 0.003907-0.023437 0.003906-0.042969 0.003906-0.0625 0.007812-0.019531 0.003907-0.035156 0.003907-0.050781 0.007813-0.023438 0.003906-0.050782 0.011718-0.074219 0.019531-0.011719 0.003906-0.023437 0.007813-0.039063 0.007813-0.027343 0.007812-0.050781 0.015624-0.078124 0.027343-0.011719 0.003907-0.023438 0.007813-0.035157 0.011719-0.023437 0.007812-0.050781 0.019531-0.074219 0.03125-0.011718 0.003906-0.023437 0.011719-0.035156 0.019531-0.023437 0.011719-0.042968 0.023438-0.0625 0.035157-0.011718 0.007812-0.027344 0.015624-0.042968 0.023437-0.019532 0.011719-0.035157 0.023437-0.050782 0.035156l-0.046875 0.035157c-0.015625 0.011718-0.027343 0.023437-0.042969 0.035156-0.015624 0.015625-0.03125 0.027344-0.046874 0.042968-0.011719 0.011719-0.023438 0.023438-0.035157 0.039063-0.015625 0.015625-0.03125 0.03125-0.042969 0.050781-0.011718 0.015625-0.023437 0.027344-0.035156 0.042969-0.011718 0.015625-0.023437 0.03125-0.035156 0.046875-0.011719 0.019531-0.027344 0.039062-0.039062 0.058594-0.007813 0.011718-0.015626 0.027344-0.023438 0.039062-0.015625 0.027344-0.027344 0.054688-0.042969 0.082032-0.003906 0.007812-0.007812 0.011718-0.011719 0.019531 0 0 0 0.003906-0.003906 0.003906-0.011718 0.03125-0.023437 0.0625-0.035156 0.09375-0.003906 0.007813-0.003906 0.015625-0.007812 0.023437-0.007813 0.027344-0.015626 0.050782-0.019532 0.078126-0.003906 0.011718-0.007812 0.027343-0.011718 0.039062-0.003907 0.015625-0.003907 0.035156-0.007813 0.050781-0.003906 0.023438-0.007813 0.046875-0.011719 0.070313 0 0.011718 0 0.019531-0.003906 0.03125-0.003906 0.03125-0.003906 0.0625-0.003906 0.089844v0.003906 0.027344c0 0.027343 0.003906 0.058593 0.003906 0.085937 0.003906 0.019531 0.003906 0.035156 0.007812 0.050781 0.003907 0.023438 0.003907 0.042969 0.007813 0.0625 0.003906 0.023438 0.007813 0.042969 0.015625 0.0625 0.003906 0.015625 0.007812 0.035156 0.011719 0.050782 0.007812 0.023437 0.015625 0.046874 0.023437 0.066406 0.003906 0.015625 0.011719 0.027344 0.015625 0.042968 0.007813 0.023438 0.019531 0.042969 0.027344 0.066407 0.007813 0.015625 0.011719 0.027343 0.019531 0.042969 0.007813 0.019531 0.019532 0.039062 0.03125 0.054687 0.007813 0.015625 0.019532 0.03125 0.027344 0.046875 0.011719 0.015625 0.019531 0.03125 0.03125 0.042969 0.011719 0.019531 0.023438 0.035156 0.039062 0.050781 0.011719 0.011719 0.019532 0.023438 0.03125 0.035156 0.015626 0.019532 0.03125 0.035156 0.046876 0.050782 0.011718 0.011718 0.023437 0.019531 0.03125 0.03125 0.019531 0.015624 0.035156 0.03125 0.054687 0.046874 0.011719 0.011719 0.027344 0.019532 0.039063 0.03125 0.019531 0.011719 0.035156 0.027344 0.050781 0.039063 0.019531 0.011719 0.035156 0.023437 0.054687 0.035156 0.015625 0.007813 0.027344 0.019531 0.042969 0.027344 0.023437 0.011719 0.050781 0.027344 0.078125 0.039063 0.007812 0.003906 0.015625 0.007812 0.023438 0.011718 3.7383 1.6484 6.0156 5.4844 5.668 9.5508-0.058594 0.66797 0.44141 1.2578 1.1094 1.3164 0.0625 0.035156 0.097657 0.035156 0.13281 0.035156 0.625 0 1.1562-0.48047 1.2109-1.1133 0.24609-2.8906-0.56641-5.6914-2.168-7.9492 2.4844 1.7266 4.1133 4.5977 4.1133 7.8477 0 0.67188 0.54297 1.2188 1.2188 1.2188 0.67188 0 1.2188-0.54297 1.2188-1.2188 0-3.2461 1.6289-6.1172 4.1133-7.8477-1.6016 2.2578-2.4141 5.0586-2.168 7.9492 0.054688 0.63281 0.58984 1.1133 1.2148 1.1133 0.035156 0 0.070312 0 0.10547-0.003906 0.66797-0.058594 1.168-0.64844 1.1094-1.3164-0.34766-4.0664 1.9297-7.9023 5.668-9.5508 0.007813-0.003906 0.015626-0.007812 0.023438-0.011718 0.027344-0.011719 0.050781-0.023438 0.078125-0.039063 0.015625-0.007813 0.027344-0.019531 0.042969-0.027344 0.019531-0.011719 0.039062-0.023437 0.054687-0.035156 0.019531-0.011719 0.035157-0.023437 0.050781-0.039063 0.011719-0.011718 0.027344-0.019531 0.039063-0.03125 0.019531-0.015624 0.035156-0.03125 0.050781-0.046874 0.011719-0.011719 0.023438-0.019532 0.035156-0.03125 0.015626-0.015626 0.03125-0.035157 0.046876-0.050782 0.011718-0.011718 0.023437-0.023437 0.03125-0.039062 0.011718-0.015625 0.027343-0.035156 0.039062-0.050782 0.011719-0.015624 0.023438-0.03125 0.03125-0.046874 0.011719-0.015626 0.019531-0.03125 0.027344-0.046876 0.011718-0.019531 0.023437-0.039062 0.03125-0.054687 0.007812-0.015625 0.011718-0.027344 0.019531-0.042969 0.011719-0.023437 0.019531-0.042968 0.027344-0.066406 0.003906-0.011719 0.011719-0.027344 0.015625-0.042969 0.007812-0.023437 0.015625-0.042969 0.023437-0.070312 0.003907-0.015625 0.007813-0.03125 0.011719-0.046875 0.003906-0.023438 0.011719-0.042969 0.015625-0.066406 0.003906-0.019532 0.007813-0.042969 0.007813-0.0625 0.003906-0.019532 0.003906-0.035157 0.007812-0.050782 0.003906-0.027344 0.003906-0.054687 0.003906-0.085937v-0.027344-0.003906c0.011719-0.035157 0.007813-0.066407 0.003906-0.097657zm-12.816 4.1641 0.83984-7.3672 0.83984 7.3672c-0.3125 0.46094-0.58984 0.94531-0.83984 1.4492-0.25-0.50391-0.52734-0.98828-0.83984-1.4492zm63.793-72.684c-4.4492 0-8.0664 3.6172-8.0664 8.0664 0 4.4492 3.6172 8.0664 8.0664 8.0664s8.0664-3.6172 8.0664-8.0664c0.003907-4.4492-3.6172-8.0664-8.0664-8.0664zm0 13.699c-3.1055 0-5.6328-2.5273-5.6328-5.6328 0-3.1055 2.5273-5.6328 5.6328-5.6328s5.6328 2.5273 5.6328 5.6328c0 3.1055-2.5273 5.6328-5.6328 5.6328zm-1.2148-16.824v-6.375c0-0.67188 0.54297-1.2188 1.2188-1.2188 0.67188 0 1.2188 0.54297 1.2188 1.2188v6.3711c0 0.67188-0.54297 1.2188-1.2188 1.2188s-1.2188-0.54297-1.2188-1.2148zm8.2695 4.1367c-0.47656-0.47656-0.47656-1.2461 0-1.7227l4.5078-4.5078c0.47656-0.47656 1.2461-0.47656 1.7227 0 0.47656 0.47656 0.47656 1.2461 0 1.7227l-4.5078 4.5078c-0.23828 0.23828-0.55078 0.35547-0.85938 0.35547-0.3125 0-0.625-0.11719-0.86328-0.35547zm11.73 7.0547c0 0.67187-0.54297 1.2188-1.2188 1.2188h-6.3711c-0.67188 0-1.2188-0.54297-1.2188-1.2188 0-0.67188 0.54297-1.2188 1.2188-1.2188h6.3711c0.67188 0 1.2188 0.54687 1.2188 1.2188zm-5.5039 11.559c0.47656 0.47656 0.47656 1.2461 0 1.7227-0.23828 0.23828-0.55078 0.35547-0.85938 0.35547-0.3125 0-0.62109-0.11719-0.85938-0.35547l-4.5078-4.5078c-0.47656-0.47656-0.47656-1.2461 0-1.7227 0.47656-0.47656 1.2461-0.47656 1.7227 0zm-14.496 6.0078v-6.3711c0-0.67188 0.54297-1.2188 1.2188-1.2188 0.67188 0 1.2188 0.54297 1.2188 1.2188v6.3711c0 0.67188-0.54297 1.2188-1.2188 1.2188s-1.2188-0.54688-1.2188-1.2188zm-12.066-6.0078 4.5078-4.5078c0.47656-0.47656 1.2461-0.47656 1.7227 0 0.47656 0.47656 0.47656 1.2461 0 1.7227l-4.5078 4.5078c-0.23828 0.23828-0.55078 0.35547-0.85938 0.35547-0.3125 0-0.62109-0.11719-0.85938-0.35547-0.48047-0.47266-0.48047-1.2461-0.003906-1.7227zm-5.5-11.559c0-0.67188 0.54297-1.2188 1.2188-1.2188h6.3711c0.67188 0 1.2188 0.54297 1.2188 1.2188 0 0.67187-0.54297 1.2188-1.2188 1.2188h-6.3711c-0.67578 0-1.2188-0.54688-1.2188-1.2188zm5.5-11.559c-0.47656-0.47656-0.47656-1.2461 0-1.7227 0.47656-0.47656 1.2461-0.47656 1.7227 0l4.5078 4.5078c0.47656 0.47656 0.47656 1.2461 0 1.7227-0.23828 0.23828-0.55078 0.35547-0.85938 0.35547-0.3125 0-0.62109-0.11719-0.85938-0.35547z"/>
<text x="0.0" y="117.5" font-size="5.0" font-weight="bold" font-family="Arbeit Regular, Helvetica, Arial-Unicode, Arial, Sans-serif" fill="#000000">Created by jumiati</text><text x="0.0" y="122.5" font-size="5.0" font-weight="bold" font-family="Arbeit Regular, Helvetica, Arial-Unicode, Arial, Sans-serif" fill="#000000">from Noun Project</text></svg>