<svg xmlns="http://www.w3.org/2000/svg" version="1.1" viewBox="-5.0 -10.0 110.0 135.0">
 <path d="m92.75 3.5312h-85.5c-2.2734 0-4.125 1.8477-4.125 4.125v44.184c0 2.2734 1.8516 4.125 4.125 4.125h52.848v4.4766c0 0.67188 0.54297 1.2188 1.2188 1.2188h19.477c3.6016 0 6.6484-2.4062 7.625-5.6953h4.332c2.2734 0 4.125-1.8516 4.125-4.125v-44.184c0-2.2773-1.8516-4.125-4.125-4.125zm-6.4336 50.172c0 2.7188-1.9766 4.9844-4.5664 5.4375l-0.003906-16.277c0-0.67188-0.54297-1.2188-1.2188-1.2188-0.67188 0-1.2188 0.54297-1.2188 1.2188v16.363l-16.773-0.003906v-23.23c0-0.67188-0.54297-1.2188-1.2188-1.2188h-22.418c0.45312-2.5898 2.7188-4.5664 5.4375-4.5664h33.727c4.5508 0 8.2539 3.7031 8.2539 8.2539zm8.125-1.8633c0 0.93359-0.75781 1.6914-1.6914 1.6914l-4-0.003906v-15.066c0-5.8945-4.793-10.688-10.688-10.688h-33.727c-4.3867 0-7.957 3.5703-7.957 7.957v0.26172c0 0.67187 0.54297 1.2188 1.2188 1.2188h22.5v16.32h-52.848c-0.93359 0-1.6914-0.75781-1.6914-1.6914v-44.184c0-0.93359 0.75781-1.6914 1.6914-1.6914h85.5c0.93359 0 1.6914 0.75781 1.6914 1.6914zm-23.516-43.32c-5.0664 0-9.1836 4.1211-9.1836 9.1836 0 5.0664 4.1211 9.1836 9.1836 9.1836 5.0664 0 9.1836-4.1211 9.1836-9.1836s-4.1211-9.1836-9.1836-9.1836zm0 15.934c-3.7227 0-6.75-3.0273-6.75-6.75s3.0273-6.75 6.75-6.75c3.7227 0 6.75 3.0273 6.75 6.75-0.003906 3.7227-3.0312 6.75-6.75 6.75zm-48.023 54.398c2.3594-1.6133 3.9141-4.3203 3.9141-7.3906 0-4.9297-4.0117-8.9414-8.9414-8.9414s-8.9414 4.0117-8.9414 8.9414c0 3.0664 1.5547 5.7773 3.9141 7.3906-5.6641 2.0586-9.7227 7.4961-9.7227 13.867v2.5352c0 0.67188 0.54297 1.2188 1.2188 1.2188h27.066c0.67188 0 1.2188-0.54297 1.2188-1.2188v-2.5352c0-6.3711-4.0586-11.809-9.7266-13.867zm-11.531-7.3906c0-3.5859 2.918-6.5078 6.5078-6.5078 3.5859 0 6.5078 2.918 6.5078 6.5078 0 3.5859-2.918 6.5078-6.5078 6.5078-3.5898-0.003906-6.5078-2.918-6.5078-6.5078zm18.82 22.574h-24.633v-1.3164c0-6.7891 5.5234-12.316 12.316-12.316 6.7891 0 12.316 5.5234 12.316 12.316zm24.836-15.184c2.3594-1.6133 3.9141-4.3203 3.9141-7.3906 0-4.9297-4.0117-8.9414-8.9414-8.9414s-8.9414 4.0117-8.9414 8.9414c0 3.0664 1.5547 5.7773 3.9141 7.3906-5.6641 2.0586-9.7227 7.5-9.7227 13.867v2.5312 0.003906c0 0.67188 0.54297 1.2188 1.2188 1.2188h27.066c0.67188 0 1.2188-0.54297 1.2188-1.2188v-2.5352c-0.003906-6.3711-4.0625-11.809-9.7266-13.867zm-11.535-7.3906c0-3.5859 2.918-6.5078 6.5078-6.5078 3.5859 0 6.5078 2.918 6.5078 6.5078 0 3.5859-2.918 6.5078-6.5078 6.5078-3.5859 0-6.5078-2.918-6.5078-6.5078zm18.824 22.574h-24.633v-1.3164c0-6.7891 5.5234-12.316 12.316-12.316 6.7891 0 12.316 5.5234 12.316 12.316zm24.836-15.184c2.3594-1.6133 3.9141-4.3203 3.9141-7.3906 0-4.9297-4.0117-8.9414-8.9414-8.9414s-8.9414 4.0117-8.9414 8.9414c0 3.0664 1.5547 5.7773 3.9141 7.3906-5.6641 2.0586-9.7227 7.5-9.7227 13.867v2.5312 0.003906c0 0.67188 0.54297 1.2188 1.2188 1.2188h27.066c0.67188 0 1.2188-0.54297 1.2188-1.2188v-2.5352c-0.003906-6.3711-4.0625-11.809-9.7266-13.867zm-11.535-7.3906c0-3.5859 2.918-6.5078 6.5078-6.5078 3.5859 0 6.5078 2.918 6.5078 6.5078 0 3.5859-2.918 6.5078-6.5078 6.5078-3.5898-0.003906-6.5078-2.918-6.5078-6.5078zm18.824 22.574h-24.633v-1.3164c0-6.7891 5.5234-12.316 12.316-12.316 6.7891 0 12.316 5.5234 12.316 12.316z"/>
<text x="0.0" y="117.5" font-size="5.0" font-weight="bold" font-family="Arbeit Regular, Helvetica, Arial-Unicode, Arial, Sans-serif" fill="#000000">Created by jumiati</text><text x="0.0" y="122.5" font-size="5.0" font-weight="bold" font-family="Arbeit Regular, Helvetica, Arial-Unicode, Arial, Sans-serif" fill="#000000">from Noun Project</text></svg>