<svg xmlns="http://www.w3.org/2000/svg" version="1.1" viewBox="-5.0 -10.0 110.0 135.0">
 <path d="m45.613 24.469c-4.582 0-8.3086 3.7266-8.3086 8.3086 0 4.582 3.7266 8.3086 8.3086 8.3086s8.3086-3.7266 8.3086-8.3086c-0.003906-4.582-3.7305-8.3086-8.3086-8.3086zm0 14.18c-3.2383 0-5.8711-2.6328-5.8711-5.8711 0-3.2383 2.6328-5.8711 5.8711-5.8711s5.8711 2.6328 5.8711 5.8711c0 3.2383-2.6328 5.8711-5.8711 5.8711zm21.047-3.2109c1.5078-2.1484 0.98438-5.1211-1.1641-6.6289-2.1484-1.5078-5.1211-0.98438-6.6289 1.1641l-8.8047 12.555h-8.9023l-8.8047-12.555c-0.1875-0.26562-0.39453-0.50781-0.62109-0.72266l6.4688-11.438c0.72266 0.86328 1.5977 1.5938 2.5977 2.1602 1.4297 0.80859 3.0273 1.2305 4.6562 1.2305 0.21484 0 0.43359-0.007813 0.64844-0.023437 1.3711-0.09375 2.7344 0.21484 3.9375 0.89844 1.2031 0.67969 2.1719 1.6875 2.7969 2.9141 0.003906 0.003906 0.003906 0.007812 0.007812 0.011718 0.023438 0.042969 0.046875 0.082032 0.074219 0.12109 0.007813 0.011719 0.011719 0.019531 0.019531 0.027344 0.03125 0.039062 0.0625 0.082031 0.097656 0.11719l0.003907 0.003907c0.03125 0.035156 0.066406 0.066406 0.10547 0.097656 0.011718 0.007812 0.023437 0.019531 0.035156 0.027344 0.027344 0.023437 0.058594 0.042968 0.089844 0.0625 0.011718 0.007812 0.023437 0.015624 0.035156 0.023437 0.003906 0.003906 0.007812 0.007813 0.015625 0.007813 0.023437 0.011718 0.042969 0.019531 0.066406 0.03125 0.023437 0.011718 0.042969 0.023437 0.066406 0.03125 0.035157 0.011718 0.066407 0.023437 0.10156 0.035156 0.015625 0.003906 0.035156 0.011718 0.050781 0.015625 0.042969 0.011719 0.085937 0.019531 0.125 0.027343 0.011719 0.003907 0.019531 0.003907 0.03125 0.007813 0.054687 0.007813 0.10547 0.011719 0.16016 0.011719 0.050781 0 0.10156-0.003906 0.15234-0.011719 0.011719 0 0.023437-0.003906 0.035156-0.007813 0.039063-0.007812 0.074219-0.011718 0.11328-0.023437 0.019532-0.003906 0.035157-0.011719 0.050782-0.015625 0.03125-0.007812 0.058594-0.019531 0.089844-0.03125 0.019531-0.007812 0.039062-0.019531 0.0625-0.027344 0.015624-0.007812 0.035156-0.011718 0.050781-0.023437 0.007812-0.003907 0.019531-0.011719 0.027343-0.015625 0.015626-0.007813 0.03125-0.015625 0.042969-0.027344 0.027344-0.019531 0.058594-0.035156 0.085938-0.054688 0.011719-0.007812 0.023437-0.015624 0.035156-0.027343 0.039063-0.027344 0.074219-0.0625 0.10938-0.09375 0.003906-0.003907 0.007812-0.007813 0.011719-0.015625 0.03125-0.03125 0.058593-0.0625 0.085937-0.097656 0.007813-0.007813 0.015625-0.019532 0.023438-0.03125 0.027344-0.035157 0.050781-0.074219 0.074218-0.11328 0.003907-0.003906 0.003907-0.007812 0.007813-0.011718l0.003906-0.007813s0-0.003906 0.003907-0.003906l6.3008-11.141s0-0.003906 0.003906-0.003906c0.015625-0.027344 0.027344-0.054688 0.042969-0.082032 0.003906-0.007812 0.007812-0.019531 0.011718-0.027344 0.007813-0.019531 0.015626-0.039062 0.023438-0.058593 0.03125-0.085938 0.054688-0.17578 0.066406-0.26172 0-0.007812 0.003906-0.011719 0.003906-0.019531 0.003907-0.023438 0.003907-0.050781 0.003907-0.074219 0-0.015625 0.003906-0.03125 0.003906-0.046875v-0.050781c0-0.023438 0-0.046875-0.003906-0.070313 0-0.007812-0.003907-0.015625-0.003907-0.023437-0.007812-0.089844-0.027343-0.18359-0.058593-0.27344-0.003907-0.015625-0.011719-0.03125-0.015625-0.050781-0.003906-0.011719-0.011719-0.023437-0.015625-0.035156-0.011719-0.027344-0.023438-0.054688-0.035157-0.078125 0 0 0-0.003906-0.003906-0.003906-0.84375-1.6523-2.1484-3.0078-3.7656-3.9258-1.6211-0.91406-3.4531-1.332-5.3047-1.207-1.3711 0.09375-2.7344-0.21484-3.9375-0.89844-1.2031-0.67969-2.1719-1.6875-2.7969-2.9141-0.003907-0.007813-0.011719-0.019531-0.015625-0.027344-0.011719-0.023437-0.027344-0.050781-0.042969-0.074219-0.007813-0.011718-0.015625-0.023437-0.027344-0.035156-0.015625-0.019531-0.027343-0.039062-0.042969-0.058594-0.011718-0.015624-0.023437-0.027343-0.035156-0.042968-0.011718-0.015625-0.027344-0.03125-0.042968-0.046875-0.015626-0.015625-0.03125-0.03125-0.046876-0.042969-0.011718-0.011719-0.027343-0.023438-0.039062-0.039062-0.019531-0.015626-0.039062-0.03125-0.058594-0.046876-0.011718-0.007812-0.023437-0.019531-0.035156-0.027343-0.023438-0.015625-0.046875-0.03125-0.070312-0.046875-0.007813-0.003906-0.019532-0.011719-0.027344-0.019532 0 0-0.003906 0-0.003906-0.003906-0.027344-0.015625-0.054688-0.027344-0.082032-0.039062-0.011718-0.003906-0.019531-0.011719-0.027344-0.015625-0.023437-0.007813-0.042968-0.019531-0.066406-0.023438-0.046875-0.015625-0.09375-0.03125-0.14062-0.042969-0.003906 0-0.011719-0.003906-0.015625-0.003906-0.023437-0.003906-0.046875-0.007812-0.070312-0.011718-0.015625-0.003907-0.03125-0.007813-0.046875-0.007813-0.015625-0.003906-0.035157-0.003906-0.050781-0.003906-0.027344 0.023437-0.050782 0.019531-0.074219 0.019531h-0.023438c-0.14453 0-0.28906 0.023438-0.43359 0.078125h-0.003907c-0.015625 0.007813-0.035156 0.015625-0.050781 0.023437-0.019531 0.007813-0.042969 0.019532-0.0625 0.027344-0.003906 0-0.003906 0.003906-0.003906 0.003906-0.011719 0.007813-0.023438 0.011719-0.035156 0.019532-0.023438 0.011718-0.042969 0.023437-0.066407 0.039062-0.015625 0.007813-0.027343 0.019532-0.042969 0.03125-0.019531 0.011719-0.035156 0.023438-0.054687 0.039063-0.015625 0.011719-0.03125 0.027343-0.046875 0.039062-0.011719 0.011719-0.027344 0.023438-0.039062 0.035157-0.015626 0.015624-0.03125 0.035156-0.046876 0.050781-0.011718 0.011719-0.023437 0.023437-0.035156 0.035156-0.019531 0.019531-0.035156 0.042969-0.050781 0.0625-0.007813 0.011719-0.015625 0.019531-0.023437 0.03125-0.019532 0.023437-0.035157 0.050781-0.050782 0.078125-0.003906 0.007812-0.007812 0.015625-0.011718 0.023438l-0.003907 0.007812-0.003906 0.003906-6.3047 11.152-7.457 13.18c-1.2891-0.31641-2.6992-0.097657-3.8672 0.72266-2.1484 1.5078-2.6719 4.4805-1.1641 6.6289l0.48438 0.69141-1.9258 3.4062c-0.33203 0.58594-0.125 1.3281 0.46094 1.6602 0.19141 0.10547 0.39453 0.16016 0.59766 0.16016 0.42578 0 0.83594-0.22266 1.0586-0.61719l1.3555-2.3945 9.7734 13.938v39.367c0 2.8828 2.3477 5.2305 5.2305 5.2305 1.6094 0 3.0508-0.73047 4.0117-1.8789 0.95703 1.1445 2.3984 1.875 4.0117 1.875 2.8828 0 5.2305-2.3477 5.2305-5.2305v-39.371zm-19.551-26.617c1.4297 0.80859 3.0273 1.2305 4.6562 1.2305 0.21484 0 0.42969-0.007812 0.64844-0.023437 1.3711-0.097656 2.7344 0.21484 3.9375 0.89844 1.0195 0.57422 1.8633 1.3867 2.4805 2.3633l-4.9961 8.8281c-0.72266-0.86328-1.5977-1.5938-2.5977-2.1602-1.6211-0.91406-3.4531-1.332-5.3047-1.207-1.3711 0.097656-2.7344-0.21484-3.9375-0.89844-1.0195-0.57422-1.8633-1.3867-2.4805-2.3633l4.9961-8.8281c0.72656 0.86328 1.6016 1.5977 2.5977 2.1602zm5.3086 82.824c0 1.543-1.2539 2.793-2.793 2.793s-2.793-1.2539-2.793-2.793l-0.003906-19.012c0-0.67187-0.54297-1.2188-1.2188-1.2188-0.67188 0-1.2188 0.54297-1.2188 1.2188v19.012c0 1.543-1.2539 2.793-2.793 2.793-1.5391 0-2.793-1.2539-2.793-2.793v-39.758-0.007813c0-0.027344-0.003907-0.054687-0.003907-0.078125 0-0.011719 0-0.027343-0.003906-0.042969-0.003906-0.023437-0.007813-0.050781-0.011719-0.074218-0.003906-0.015625-0.003906-0.027344-0.007812-0.042969-0.003906-0.019531-0.011719-0.042969-0.015625-0.0625-0.003907-0.019531-0.007813-0.035156-0.015625-0.054687-0.003906-0.015626-0.011719-0.03125-0.015625-0.046876-0.007813-0.023437-0.015625-0.042968-0.023438-0.066406-0.003906-0.011718-0.011719-0.023437-0.015625-0.035156-0.011718-0.023438-0.023437-0.050781-0.035156-0.074219-0.007812-0.011719-0.011719-0.023437-0.019531-0.03125-0.015625-0.023437-0.027344-0.046875-0.042969-0.070312-0.003906-0.003907-0.003906-0.003907-0.003906-0.007813l-12.031-17.152c-0.73438-1.0508-0.48047-2.5 0.57031-3.2383 1.0508-0.73438 2.5-0.48047 3.2383 0.57031l9.168 13.074c0.007813 0.011719 0.015625 0.019532 0.023438 0.027344 0.015625 0.019532 0.027344 0.039063 0.042968 0.058594 0.011719 0.015625 0.027344 0.027344 0.039063 0.042969s0.027344 0.027343 0.039063 0.042969c0.015624 0.015624 0.03125 0.027343 0.046874 0.042968 0.011719 0.011719 0.027344 0.023438 0.039063 0.035156 0.015625 0.011719 0.035156 0.027344 0.050781 0.039063s0.027344 0.019531 0.042969 0.03125 0.035156 0.019531 0.050781 0.03125c0.019532 0.011719 0.035156 0.019531 0.054688 0.03125 0.015625 0.007813 0.03125 0.015625 0.046875 0.023437 0.019531 0.007813 0.042969 0.019532 0.0625 0.027344 0.015625 0.003906 0.027343 0.011719 0.042969 0.015625 0.023437 0.007813 0.046874 0.015625 0.070312 0.023438 0.015625 0.003906 0.027344 0.007812 0.042969 0.011719 0.023437 0.007812 0.046875 0.011718 0.070312 0.015624 0.015625 0.003907 0.03125 0.003907 0.050781 0.007813 0.023438 0.003906 0.042969 0.007813 0.066407 0.007813 0.019531 0.003906 0.042969 0.003906 0.0625 0.003906 0.015625 0 0.03125 0.003906 0.042969 0.003906h10.172c0.015626 0 0.027344-0.003906 0.042969-0.003906 0.023438 0 0.042969 0 0.066407-0.003906 0.023437-0.003907 0.042968-0.003907 0.0625-0.007813 0.019531-0.003906 0.035156-0.003906 0.050781-0.007813 0.023437-0.003906 0.046875-0.011718 0.070312-0.015624 0.015625-0.003907 0.027344-0.007813 0.042969-0.011719 0.023438-0.007813 0.046875-0.015625 0.070312-0.023438 0.015626-0.003906 0.027344-0.011719 0.042969-0.015625 0.019531-0.007812 0.042969-0.019531 0.0625-0.027344 0.015625-0.007812 0.03125-0.015624 0.046875-0.023437 0.019532-0.007813 0.035156-0.019531 0.050782-0.027344 0.019531-0.011719 0.035156-0.019531 0.050781-0.03125 0.015625-0.007812 0.03125-0.019531 0.042969-0.03125 0.019531-0.011719 0.035156-0.023437 0.050781-0.039062 0.011719-0.011719 0.027343-0.023438 0.039062-0.035157 0.015625-0.015624 0.03125-0.027343 0.046875-0.042968 0.015625-0.011719 0.027344-0.027344 0.039063-0.042969s0.027343-0.027344 0.039062-0.042969c0.015625-0.019531 0.03125-0.039062 0.042969-0.058594 0.007812-0.007812 0.015625-0.019531 0.023438-0.027343l9.168-13.074c0.73438-1.0508 2.1875-1.3047 3.2383-0.57031 1.0508 0.73437 1.3047 2.1875 0.57031 3.2383l-12.016 17.148c-0.003906 0.003906-0.003906 0.003906-0.003906 0.007813-0.015625 0.023437-0.03125 0.046875-0.042969 0.070312-0.007812 0.011719-0.011719 0.023438-0.019531 0.03125-0.011719 0.023438-0.023438 0.050781-0.035157 0.074219-0.003906 0.011719-0.011718 0.023438-0.015624 0.035156-0.007813 0.023438-0.015626 0.042969-0.023438 0.066406-0.003906 0.015626-0.011719 0.03125-0.015625 0.046876-0.003906 0.019531-0.007813 0.035156-0.015625 0.054687-0.003906 0.019531-0.011719 0.042969-0.015625 0.0625-0.003906 0.015625-0.003906 0.027344-0.007813 0.042969-0.003906 0.023437-0.007812 0.050781-0.011718 0.074218 0 0.011719-0.003906 0.027344-0.003906 0.042969-0.003907 0.027344-0.003907 0.054688-0.003907 0.078125v0.007813 20.746zm-31.082-39.168-3.8867-0.49609-1.6719-3.5469c-0.19922-0.42578-0.62891-0.69922-1.1016-0.69922-0.47266 0-0.89844 0.27344-1.1016 0.69922l-1.6719 3.5469-3.8867 0.49609c-0.46875 0.058594-0.85938 0.38281-1.0039 0.83203-0.14453 0.44922-0.019531 0.94141 0.32422 1.2617l2.8555 2.6875-0.73047 3.8516c-0.085938 0.46094 0.097656 0.93359 0.48047 1.2109 0.21094 0.15234 0.46484 0.23047 0.71484 0.23047 0.19922 0 0.40234-0.050781 0.58594-0.14844l3.4375-1.8867 3.4375 1.8867c0.41406 0.22656 0.91797 0.19531 1.3008-0.082032 0.38281-0.27734 0.57031-0.75 0.48047-1.2109l-0.73047-3.8516 2.8555-2.6836c0.34375-0.32422 0.46875-0.81641 0.32422-1.2617-0.15234-0.45312-0.54297-0.77734-1.0117-0.83594zm-4.3281 3.4648c-0.30469 0.28516-0.44141 0.70703-0.36328 1.1133l0.375 1.9727-1.7578-0.96484c-0.18359-0.10156-0.38281-0.14844-0.58594-0.14844-0.19922 0-0.40234 0.050782-0.58594 0.14844l-1.7578 0.96484 0.375-1.9727c0.078125-0.41016-0.058593-0.82813-0.36328-1.1133l-1.4609-1.375 1.9883-0.25391c0.41406-0.050781 0.76953-0.3125 0.94922-0.6875l0.85547-1.8164 0.85547 1.8164c0.17578 0.375 0.53516 0.63672 0.94922 0.6875l1.9883 0.25391zm-4.4492-38.18-0.73047 3.8516c-0.085937 0.46094 0.097656 0.93359 0.48047 1.2109 0.21094 0.15234 0.46484 0.23047 0.71484 0.23047 0.19922 0 0.40234-0.050782 0.58594-0.14844l3.4375-1.8867 3.4375 1.8867c0.41406 0.22656 0.91797 0.19531 1.3008-0.082031 0.38281-0.27734 0.57031-0.75 0.48047-1.2109l-0.73047-3.8516 2.8555-2.6836c0.34375-0.32422 0.46875-0.81641 0.32422-1.2617-0.14453-0.44922-0.53516-0.77344-1.0039-0.83203l-3.8867-0.49609-1.6719-3.5469c-0.19922-0.42578-0.62891-0.69922-1.1016-0.69922-0.47266 0-0.89844 0.27344-1.1016 0.69922l-1.6719 3.5469-3.8867 0.49609c-0.46875 0.058594-0.85938 0.38281-1.0039 0.83203-0.14453 0.44922-0.019531 0.94141 0.32422 1.2617zm2.6836-2.9453c0.41406-0.050781 0.76953-0.3125 0.94922-0.6875l0.85547-1.8164 0.85547 1.8164c0.17578 0.375 0.53516 0.63672 0.94922 0.6875l1.9922 0.25391-1.4609 1.375c-0.30469 0.28516-0.44141 0.70703-0.36328 1.1133l0.375 1.9727-1.7578-0.96484c-0.36328-0.19922-0.80469-0.19922-1.1719 0l-1.7578 0.96484 0.375-1.9727c0.078125-0.41016-0.058593-0.82812-0.36328-1.1133l-1.4609-1.375zm63.047 9.4219-0.73047-3.8516 2.8555-2.6875c0.34375-0.32422 0.46875-0.81641 0.32422-1.2617-0.14453-0.44922-0.53516-0.77344-1.0039-0.83203l-3.8867-0.49609-1.6719-3.543c-0.19922-0.42578-0.62891-0.69922-1.1016-0.69922-0.47266 0-0.89844 0.27344-1.1016 0.69922l-1.6719 3.543-3.8867 0.49609c-0.46875 0.058593-0.85937 0.38281-1.0039 0.83203-0.14453 0.44922-0.019531 0.94141 0.32422 1.2617l2.8555 2.6875-0.73047 3.8516c-0.085937 0.46094 0.097656 0.93359 0.48047 1.2109 0.38281 0.27734 0.88672 0.30859 1.3008 0.082031l3.4375-1.8867 3.4375 1.8867c0.18359 0.10156 0.38281 0.14844 0.58594 0.14844 0.25391 0 0.50391-0.078126 0.71484-0.23047 0.37109-0.27344 0.55859-0.75 0.47266-1.2109zm-2.8867-5.168c-0.30469 0.28516-0.44141 0.70703-0.36328 1.1133l0.375 1.9727-1.7578-0.96484c-0.18359-0.10156-0.38281-0.14844-0.58594-0.14844-0.20312 0-0.40234 0.050781-0.58594 0.14844l-1.7578 0.96484 0.375-1.9727c0.078126-0.41016-0.058593-0.82812-0.36328-1.1133l-1.4609-1.375 1.9883-0.25391c0.41406-0.050781 0.76953-0.3125 0.94922-0.6875l0.85547-1.8164 0.85547 1.8164c0.17578 0.375 0.53516 0.63672 0.94922 0.6875l1.9922 0.25391zm17.59 26.91c-0.14453-0.44922-0.53516-0.77344-1.0039-0.83203l-3.8867-0.49609-1.6719-3.543c-0.19922-0.42578-0.62891-0.69922-1.1016-0.69922s-0.89844 0.27344-1.1016 0.69922l-1.6719 3.543-3.8867 0.49609c-0.46875 0.058593-0.85938 0.38281-1.0039 0.83203-0.14453 0.44922-0.019531 0.94141 0.32422 1.2617l2.8555 2.6836-0.73047 3.8516c-0.085937 0.46094 0.097657 0.93359 0.48047 1.2109 0.21094 0.15234 0.46484 0.23047 0.71484 0.23047 0.19922 0 0.40234-0.050781 0.58594-0.14844l3.4375-1.8867 3.4375 1.8867c0.41406 0.22656 0.91797 0.19531 1.3008-0.082031 0.38281-0.27734 0.57031-0.75 0.48047-1.2109l-0.73047-3.8516 2.8555-2.6836c0.33594-0.32031 0.46094-0.8125 0.31641-1.2617zm-5.3359 2.6328c-0.30469 0.28516-0.44141 0.70703-0.36328 1.1133l0.375 1.9727-1.7578-0.96484c-0.36328-0.19922-0.80469-0.19922-1.1719 0l-1.7578 0.96484 0.375-1.9727c0.078125-0.41016-0.058594-0.82812-0.36328-1.1133l-1.4609-1.375 1.9883-0.25391c0.41406-0.050781 0.76953-0.3125 0.94922-0.6875l0.85547-1.8164 0.85547 1.8164c0.17578 0.375 0.53516 0.63672 0.94922 0.6875l1.9922 0.25391zm-14.051 11.199-3.8867-0.49609-1.6719-3.5469c-0.19922-0.42578-0.62891-0.69922-1.1016-0.69922-0.47266 0-0.89844 0.27344-1.1016 0.69922l-1.6719 3.5469-3.8867 0.49609c-0.46875 0.058594-0.85938 0.38281-1.0039 0.83203s-0.019531 0.94141 0.32422 1.2617l2.8555 2.6875-0.73047 3.8516c-0.085938 0.46094 0.097656 0.93359 0.48047 1.2109 0.21094 0.15234 0.46484 0.23047 0.71484 0.23047 0.19922 0 0.40234-0.050781 0.58594-0.14844l3.4375-1.8867 3.4375 1.8867c0.41406 0.22656 0.91797 0.19531 1.3008-0.082031s0.57031-0.75 0.48047-1.2109l-0.73047-3.8516 2.8555-2.6836c0.34375-0.32422 0.46875-0.81641 0.32422-1.2617-0.15625-0.45313-0.54688-0.77734-1.0117-0.83594zm-4.332 3.4648c-0.30469 0.28516-0.44141 0.70703-0.36328 1.1133l0.375 1.9727-1.7578-0.96484c-0.18359-0.10156-0.38281-0.14844-0.58594-0.14844s-0.40234 0.050781-0.58594 0.14844l-1.7578 0.96484 0.375-1.9727c0.078125-0.41016-0.058594-0.82812-0.36328-1.1133l-1.4609-1.375 1.9883-0.25391c0.41406-0.050782 0.76953-0.3125 0.94922-0.6875l0.85547-1.8164 0.85547 1.8164c0.17578 0.375 0.53516 0.63672 0.94922 0.6875l1.9883 0.25391z"/>
<text x="0.0" y="117.5" font-size="5.0" font-weight="bold" font-family="Arbeit Regular, Helvetica, Arial-Unicode, Arial, Sans-serif" fill="#000000">Created by jumiati</text><text x="0.0" y="122.5" font-size="5.0" font-weight="bold" font-family="Arbeit Regular, Helvetica, Arial-Unicode, Arial, Sans-serif" fill="#000000">from Noun Project</text></svg>