<svg xmlns="http://www.w3.org/2000/svg" version="1.1" viewBox="-5.0 -10.0 110.0 135.0">
 <path d="m96.68 88.555-2.543-3.9141-0.003907-10.535c0-0.054688-0.003906-0.10938-0.011718-0.16406-0.003906-0.011718-0.003906-0.023437-0.003906-0.039062-0.019532-0.10938-0.050782-0.21094-0.09375-0.30859-0.003907-0.007812-0.007813-0.019531-0.011719-0.027344-0.023438-0.046875-0.050781-0.09375-0.078125-0.13672 0 0 0-0.003907-0.003906-0.003907-0.027344-0.042969-0.0625-0.085937-0.097657-0.125-0.007812-0.007812-0.015625-0.019531-0.027343-0.027343-0.035157-0.039063-0.074219-0.074219-0.11328-0.10938-0.042968-0.035156-0.085937-0.066406-0.13281-0.09375-0.007813-0.007812-0.019532-0.011718-0.027344-0.019531-0.046875-0.027343-0.097656-0.054687-0.14844-0.074219l-33.613-13.887c-0.29688-0.12109-0.63281-0.12109-0.92969 0l-11.707 4.8359v-44.227l35.195-11.457v55.531c0 0.67187 0.54297 1.2188 1.2188 1.2188 0.67188 0 1.2188-0.54297 1.2188-1.2188l-0.003906-57.211v-0.003906c0-0.03125-0.003907-0.058594-0.003907-0.089844 0-0.011719 0-0.023438-0.003906-0.035156-0.003906-0.019532-0.007812-0.039063-0.007812-0.058594-0.003906-0.023438-0.007813-0.042969-0.011719-0.066406-0.003906-0.007813-0.003906-0.019532-0.007813-0.027344-0.003906-0.03125-0.015624-0.0625-0.023437-0.089844v-0.003906c-0.003906-0.007812-0.003906-0.011719-0.007813-0.019531-0.011718-0.03125-0.019531-0.058594-0.035156-0.089844-0.007812-0.011719-0.011718-0.027344-0.019531-0.039063-0.011719-0.023437-0.019531-0.042968-0.035156-0.066406-0.007813-0.019531-0.019531-0.035156-0.03125-0.050781-0.007813-0.015625-0.019531-0.03125-0.03125-0.046875-0.011719-0.019531-0.027344-0.039062-0.042969-0.054688-0.007812-0.011718-0.019531-0.023437-0.027344-0.039062-0.015625-0.019531-0.03125-0.035156-0.046875-0.054688-0.011719-0.011718-0.019531-0.023437-0.03125-0.035156-0.015625-0.015625-0.03125-0.03125-0.050781-0.042968-0.011719-0.011719-0.023438-0.023438-0.039062-0.035157-0.015626-0.011719-0.03125-0.023437-0.046876-0.035156-0.015624-0.011719-0.03125-0.023437-0.050781-0.035156-0.015625-0.007813-0.03125-0.019531-0.042969-0.027344-0.019531-0.011719-0.039062-0.023437-0.058593-0.03125-0.015625-0.007813-0.027344-0.015625-0.042969-0.019531-0.019531-0.007813-0.042969-0.019532-0.0625-0.027344-0.015625-0.007812-0.03125-0.011719-0.046875-0.019531-0.019531-0.007813-0.042969-0.015625-0.0625-0.019531-0.019531-0.007813-0.039063-0.011719-0.058594-0.015626-0.019531-0.003906-0.035156-0.007812-0.054687-0.011718-0.027344-0.003906-0.054688-0.007813-0.082032-0.011719-0.011718 0-0.023437-0.003906-0.035156-0.003906-0.035156-0.003907-0.070312-0.003907-0.10156-0.003907h-0.015625-0.003907c-0.035156 0-0.070312 0.003907-0.10156 0.003907h-0.023438c-0.023437 0.003906-0.046874 0.007812-0.070312 0.011719-0.019531 0.003906-0.035156 0.003906-0.054688 0.007812-0.011718 0.003906-0.023437 0.007812-0.035156 0.007812-0.027344 0.007813-0.058594 0.015626-0.085937 0.023438h-0.003907l-37.25 12.129-37.254-12.129h-0.003906c-0.027344-0.011719-0.058594-0.019531-0.089844-0.027344-0.011718-0.003906-0.019531-0.003906-0.03125-0.007812-0.019531-0.003906-0.042968-0.007813-0.0625-0.011719-0.019531 0-0.039062-0.003906-0.058594-0.007813-0.011718 0-0.023437 0-0.03125-0.003906-0.03125-0.003906-0.0625-0.003906-0.089843-0.003906h-0.003907-0.023437c-0.03125 0-0.0625 0.003906-0.09375 0.003906-0.019531 0.003906-0.035156 0.007813-0.046875 0.007813-0.023438 0.003906-0.050781 0.007812-0.074219 0.011719-0.019531 0.003906-0.039062 0.007812-0.058593 0.015624-0.019532 0.003907-0.035157 0.007813-0.050782 0.011719-0.023437 0.007813-0.046875 0.015625-0.070312 0.023438-0.015625 0.007812-0.027344 0.011719-0.042969 0.015625-0.023437 0.011718-0.042969 0.019531-0.066406 0.03125-0.011719 0.007812-0.027344 0.011718-0.039063 0.019531-0.019531 0.011719-0.039062 0.023437-0.058594 0.035156-0.015624 0.007813-0.03125 0.015625-0.042968 0.023438-0.019532 0.011719-0.035156 0.023437-0.050782 0.035156-0.015624 0.011719-0.03125 0.023437-0.046874 0.035156-0.015626 0.011719-0.027344 0.023438-0.039063 0.035157-0.019531 0.015624-0.035156 0.03125-0.050781 0.046874-0.011719 0.007813-0.023438 0.019532-0.03125 0.03125-0.015625 0.015626-0.03125 0.035157-0.046875 0.050782-0.011719 0.015625-0.023438 0.027344-0.03125 0.039062-0.015625 0.019532-0.027344 0.035156-0.042969 0.054688-0.011719 0.015625-0.019531 0.03125-0.03125 0.046875s-0.023438 0.035156-0.03125 0.050781c-0.011719 0.019531-0.023438 0.042969-0.035156 0.066406 0 0.015625-0.007813 0.027344-0.015625 0.039063-0.011719 0.03125-0.023438 0.0625-0.03125 0.089843-0.003907 0.007813-0.003907 0.011719-0.007813 0.019532v0.003906c-0.011718 0.03125-0.019531 0.0625-0.027344 0.09375-0.003906 0.007812-0.003906 0.019531-0.007812 0.027344-0.003906 0.023437-0.007812 0.042968-0.011719 0.066406 0 0.019531-0.003906 0.039062-0.007812 0.058594 0 0.011718 0 0.023437-0.003907 0.035156 0 0.03125-0.003906 0.058594-0.003906 0.089844v0.003906 63.301c0 0.52734 0.33984 0.99609 0.83984 1.1562l10.852 3.5352c0.125 0.039062 0.25391 0.058593 0.37891 0.058593 0.51172 0 0.99219-0.32812 1.1562-0.83984 0.20703-0.64063-0.14062-1.3242-0.78125-1.5352l-10.012-3.2578 0.003906-60.742 35.195 11.457v45.234l-19.477 8.0508c-0.45703 0.1875-0.75391 0.63281-0.75391 1.125 0 0.49219 0.29688 0.9375 0.75391 1.125l16 6.6094v8.0195 0.019531c0 0.023438 0.003906 0.046875 0.003906 0.070313 0 0.019531 0.003907 0.039062 0.003907 0.054687 0.003906 0.019532 0.003906 0.039063 0.007812 0.054688 0.003907 0.023437 0.007813 0.042968 0.011719 0.0625 0.003906 0.015625 0.007812 0.03125 0.011719 0.046875 0.007812 0.023437 0.011719 0.046875 0.019531 0.070312 0.003906 0.015625 0.011719 0.027344 0.015625 0.042969 0.007813 0.023438 0.015625 0.042969 0.027344 0.066406 0.007812 0.015625 0.015625 0.03125 0.023437 0.046875 0.007813 0.019531 0.019532 0.039063 0.027344 0.054688 0.011719 0.019531 0.023438 0.035156 0.035156 0.054687 0.007813 0.015625 0.019532 0.027344 0.027344 0.042969 0.011719 0.019531 0.027344 0.039063 0.042969 0.058594 0.007812 0.011719 0.019531 0.023437 0.027343 0.035156 0.015626 0.019531 0.03125 0.035156 0.046876 0.054687 0.011718 0.011719 0.023437 0.023438 0.035156 0.035157 0.015625 0.015625 0.03125 0.03125 0.050781 0.042969 0.015625 0.011718 0.027344 0.023437 0.042969 0.035156 0.015625 0.011718 0.03125 0.023437 0.046875 0.035156 0.019531 0.011719 0.035156 0.027344 0.054687 0.039062 0.007813 0.003907 0.011719 0.007813 0.019532 0.011719 0.007812 0.003907 0.015624 0.007813 0.027343 0.015625 0.019531 0.011719 0.042969 0.023438 0.0625 0.035156 0.015625 0.007813 0.03125 0.015626 0.046875 0.023438 0.019532 0.007812 0.042969 0.019531 0.0625 0.027344 0.015625 0.007812 0.035156 0.011718 0.050782 0.019531 0.019531 0.007813 0.039062 0.011719 0.058593 0.019531 0.019531 0.003906 0.039063 0.011719 0.058594 0.015625 0.019531 0.003907 0.035156 0.007813 0.054687 0.011719 0.023438 0.003906 0.042969 0.007812 0.066407 0.011719 0.015625 0.003906 0.035156 0.003906 0.050781 0.003906 0.023438 0.003906 0.046875 0.003906 0.070312 0.003906h0.027344 0.019532c0.023437 0 0.046874-0.003906 0.066406-0.003906 0.019531 0 0.039062-0.003906 0.054687-0.003906 0.019531-0.003907 0.039063-0.003907 0.054688-0.007813 0.023437-0.003906 0.042969-0.007812 0.0625-0.011718 0.015625-0.003907 0.03125-0.007813 0.046875-0.011719 0.023437-0.007813 0.046875-0.011719 0.066406-0.019531 0.015625-0.003907 0.03125-0.011719 0.042969-0.015626 0.023437-0.007812 0.042969-0.015624 0.0625-0.023437 0.015625-0.007813 0.035156-0.015625 0.050781-0.023437 0.019531-0.007813 0.035156-0.019532 0.054688-0.027344 0.019531-0.011719 0.039062-0.023438 0.054687-0.035156 0.015625-0.007813 0.027344-0.019532 0.042969-0.027344 0.019531-0.011719 0.039062-0.027344 0.058594-0.042969 0.011718-0.007813 0.023437-0.019531 0.035156-0.027344 0.019531-0.015625 0.035156-0.03125 0.054687-0.050781 0.011719-0.011719 0.023438-0.019531 0.035157-0.03125 0.015624-0.015625 0.03125-0.03125 0.042968-0.050781 0.011719-0.011719 0.023438-0.027344 0.035156-0.042969 0.011719-0.015625 0.023438-0.03125 0.035157-0.046875 0.011719-0.019531 0.027343-0.035156 0.039062-0.054687 0.003907-0.007813 0.007813-0.011719 0.011719-0.019532 2.6172-4.2305 8.8281-6.9648 15.824-6.9648 7 0 13.211 2.7344 15.824 6.9648 0.003906 0.003906 0.007812 0.007813 0.007812 0.011719 0.023438 0.039063 0.050781 0.074219 0.078125 0.10547 0.003906 0.003906 0.007813 0.007812 0.007813 0.011718 0.027343 0.035157 0.058593 0.066407 0.09375 0.10156 0.011718 0.011719 0.023437 0.023437 0.039062 0.035156 0.023438 0.019531 0.046875 0.039063 0.070312 0.058594 0.011719 0.011719 0.027344 0.019531 0.039063 0.03125 0.035156 0.023437 0.066406 0.042969 0.10156 0.066406 0.003906 0.003907 0.007812 0.003907 0.011718 0.007813 0.039063 0.023437 0.082032 0.042968 0.12891 0.058594 0.011719 0.003906 0.019532 0.007812 0.03125 0.011718 0.035157 0.011719 0.066407 0.023438 0.10156 0.035156 0.011719 0.003907 0.027344 0.007813 0.039063 0.011719 0.035156 0.007813 0.070312 0.015625 0.10156 0.019531 0.011719 0.003907 0.027344 0.003907 0.039062 0.007813 0.042969 0.003906 0.085938 0.007813 0.12891 0.007813h0.011719 0.015624c0.042969 0 0.085938-0.003907 0.12891-0.007813 0.015625-0.003906 0.03125-0.003906 0.046875-0.007813 0.035156-0.007812 0.070312-0.011718 0.10547-0.023437 0.011719-0.003906 0.027344-0.007813 0.039063-0.011719 0.050781-0.015625 0.097656-0.03125 0.14062-0.050781 0.003906-0.003906 0.011719-0.003906 0.015625-0.007813 0.042969-0.019531 0.082031-0.039062 0.12109-0.066406 0.007812-0.003906 0.011719-0.007812 0.019531-0.007812 0.007812-0.003906 0.011719-0.007813 0.019531-0.011719 0.019531-0.011719 0.039063-0.023437 0.054688-0.039063 0.015625-0.011718 0.03125-0.023437 0.046875-0.035156 0.015625-0.011718 0.027344-0.023437 0.042968-0.035156 0.015626-0.015625 0.035157-0.027344 0.050782-0.042969 0.011718-0.011719 0.023437-0.023437 0.035156-0.035156 0.015625-0.019531 0.035156-0.035156 0.046875-0.054687 0.007813-0.011719 0.019531-0.023438 0.027344-0.035157 0.015625-0.019531 0.027343-0.039062 0.042969-0.058593 0.007812-0.015626 0.019531-0.027344 0.027343-0.042969 0.011719-0.019531 0.023438-0.035157 0.035157-0.054688 0.011718-0.019531 0.019531-0.039062 0.027343-0.054687 0.007813-0.015625 0.015625-0.03125 0.023438-0.046875 0.007812-0.023438 0.019531-0.042969 0.027343-0.066407 0.003907-0.015624 0.011719-0.027343 0.015626-0.042968 0.007812-0.023438 0.011718-0.046875 0.019531-0.070313 0.003906-0.015625 0.007812-0.03125 0.011719-0.046875 0.003906-0.019531 0.007812-0.042968 0.011718-0.0625 0.003906-0.019531 0.007813-0.039062 0.007813-0.054687 0.003906-0.019531 0.003906-0.035157 0.003906-0.054688 0.003906-0.023437 0.003906-0.046875 0.003906-0.070312v-0.019531-8.0195l14.316-5.9141v8.7148l-2.543 3.9141c-0.26172 0.40234-0.26172 0.92188 0 1.3242l2.7422 4.2188c0.22656 0.34766 0.60938 0.55469 1.0195 0.55469 0.41406 0 0.79687-0.20703 1.0195-0.55469l2.7422-4.2188c0.28125-0.41016 0.28125-0.92969 0.019532-1.332zm-37.375-7.4531c-6.2773 0-12.035 2.0508-15.645 5.4102v-5.4883-0.011719-3.4609c2.7109-4.0703 8.8008-6.6836 15.645-6.6836s12.934 2.6133 15.645 6.6836v3.4609 0.011719 5.4883c-3.6094-3.3594-9.3711-5.4102-15.645-5.4102zm18.078-1.8945v-2.0156-0.027344c0-0.023437-0.003906-0.050781-0.003906-0.074218 0-0.015625-0.003906-0.035156-0.003906-0.050782-0.003906-0.023437-0.007812-0.042968-0.011719-0.066406-0.003906-0.019531-0.007812-0.035156-0.011719-0.054687-0.003906-0.019531-0.007812-0.039063-0.015624-0.058594-0.003907-0.019531-0.011719-0.039063-0.019532-0.058594-0.007812-0.019531-0.011718-0.035156-0.019531-0.050781-0.007813-0.019531-0.015625-0.042969-0.027344-0.0625-0.007812-0.015625-0.015625-0.03125-0.023437-0.046875-0.011719-0.019531-0.023438-0.042969-0.035156-0.0625-0.003907-0.007813-0.007813-0.019531-0.015626-0.027344-0.007812-0.011719-0.015624-0.023437-0.023437-0.035156-0.003906-0.003906-0.003906-0.007813-0.007813-0.007813-3.0625-4.9062-10.07-8.0742-17.871-8.0742s-14.805 3.168-17.871 8.0742c-0.003906 0.003907-0.003906 0.007813-0.007813 0.007813-0.007812 0.011719-0.015624 0.023437-0.023437 0.035156-0.003906 0.007813-0.007813 0.019531-0.015625 0.027344-0.011719 0.019531-0.023438 0.042969-0.035156 0.0625-0.007813 0.015625-0.015625 0.03125-0.023438 0.046875-0.007812 0.019531-0.019531 0.039062-0.027344 0.0625-0.007812 0.019531-0.011718 0.035156-0.019531 0.050781-0.007812 0.019531-0.011719 0.039063-0.019531 0.058594-0.003906 0.019531-0.011719 0.039063-0.015625 0.058594s-0.007813 0.035156-0.011719 0.054687c-0.003906 0.023438-0.007812 0.042969-0.011718 0.066406-0.003907 0.015626-0.003907 0.035157-0.003907 0.050782-0.003906 0.023437-0.003906 0.050781-0.003906 0.074218v0.027344 2.0156l-12.328-5.1016 17.504-7.2305c0.003906-0.003906 0.011719-0.003906 0.015625-0.007812l12.91-5.332 30.426 12.57zm15.535 11.996-1.2891-1.9844 1.2891-1.9844 1.2891 1.9844zm-72.625-13.285c-0.16797 0.51562-0.64453 0.83984-1.1562 0.83984-0.125 0-0.25391-0.019531-0.37891-0.058593l-14.793-4.8164c-0.5-0.16406-0.83984-0.62891-0.83984-1.1562v-61.523c0-0.67188 0.54297-1.2188 1.2188-1.2188 0.67188 0 1.2188 0.54297 1.2188 1.2188v60.637l13.953 4.543c0.63672 0.20703 0.98828 0.89453 0.77734 1.5352zm65.977-14.145v-52.57c0-0.67188 0.54297-1.2188 1.2188-1.2188 0.67188 0 1.2188 0.54297 1.2188 1.2188v52.57c0 0.67187-0.54297 1.2188-1.2188 1.2188-0.67188-0.003907-1.2188-0.54688-1.2188-1.2188zm-69.738-45.723c0.20312-0.64062 0.88672-0.99609 1.5273-0.79297l18.816 5.9844c0.64062 0.20312 0.99609 0.88672 0.79297 1.5273-0.16406 0.51953-0.64453 0.84766-1.1602 0.84766-0.12109 0-0.24609-0.019532-0.37109-0.058594l-18.812-5.9766c-0.64062-0.20703-0.99609-0.89062-0.79297-1.5312zm0 11.461c0.20312-0.64062 0.88672-0.99609 1.5273-0.79297l18.816 5.9844c0.64062 0.20312 0.99609 0.88672 0.79297 1.5273-0.16406 0.51953-0.64453 0.84766-1.1602 0.84766-0.12109 0-0.24609-0.019531-0.37109-0.058594l-18.812-5.9766c-0.64062-0.20312-0.99609-0.89062-0.79297-1.5312zm0 11.465c0.20312-0.64062 0.88672-0.99609 1.5273-0.79297l18.816 5.9844c0.64062 0.20312 0.99609 0.88672 0.79297 1.5273-0.16406 0.51953-0.64453 0.84766-1.1602 0.84766-0.12109 0-0.24609-0.019531-0.37109-0.058594l-18.812-5.9766c-0.64062-0.20703-0.99609-0.89062-0.79297-1.5312zm0 11.465c0.20312-0.64062 0.88672-0.99609 1.5273-0.79297l18.816 5.9844c0.64062 0.20313 0.99609 0.88672 0.79297 1.5273-0.16406 0.51953-0.64453 0.84766-1.1602 0.84766-0.12109 0-0.24609-0.019531-0.37109-0.058593l-18.812-5.9805c-0.64062-0.20312-0.99609-0.88672-0.79297-1.5273zm57.977-32.859-18.816 5.9844c-0.12109 0.039063-0.24609 0.058594-0.37109 0.058594-0.51562 0-0.99609-0.33203-1.1602-0.84766-0.20312-0.64062 0.14844-1.3242 0.79297-1.5273l18.816-5.9844c0.64062-0.20312 1.3242 0.14844 1.5273 0.79297 0.20312 0.63281-0.14844 1.3164-0.78906 1.5234zm0 11.461-18.816 5.9844c-0.12109 0.039062-0.24609 0.058594-0.37109 0.058594-0.51562 0-0.99609-0.33203-1.1602-0.84766-0.20312-0.64062 0.14844-1.3242 0.79297-1.5273l18.816-5.9844c0.64062-0.20312 1.3242 0.14844 1.5273 0.79297 0.20312 0.63281-0.14844 1.3203-0.78906 1.5234zm0.78906 9.9336c0.20312 0.64063-0.14844 1.3242-0.79297 1.5273l-18.816 5.9844c-0.12109 0.039063-0.24609 0.058594-0.37109 0.058594-0.51562 0-0.99609-0.33203-1.1602-0.84766-0.20312-0.64062 0.14844-1.3242 0.79297-1.5273l18.816-5.9844c0.64453-0.20703 1.3281 0.14844 1.5312 0.78906z"/>
<text x="0.0" y="117.5" font-size="5.0" font-weight="bold" font-family="Arbeit Regular, Helvetica, Arial-Unicode, Arial, Sans-serif" fill="#000000">Created by jumiati</text><text x="0.0" y="122.5" font-size="5.0" font-weight="bold" font-family="Arbeit Regular, Helvetica, Arial-Unicode, Arial, Sans-serif" fill="#000000">from Noun Project</text></svg>