<svg xmlns="http://www.w3.org/2000/svg" xmlns:xlink="http://www.w3.org/1999/xlink" xmlns:serif="http://www.serif.com/" viewBox="0 0 96 120" version="1.1" xml:space="preserve" style="" x="0px" y="0px" fill-rule="evenodd" clip-rule="evenodd" stroke-linejoin="round" stroke-miterlimit="2"><path d="M25.604,78.032L4.536,65.382C3.996,65.058 3.779,64.386 4.027,63.808L29.688,3.953C29.717,3.882 29.752,3.814 29.793,3.75C29.922,3.547 30.106,3.387 30.32,3.287C30.48,3.212 30.658,3.17 30.844,3.168C30.874,3.168 30.903,3.169 30.933,3.171C30.946,3.172 30.96,3.173 30.974,3.174C31.185,3.194 31.379,3.266 31.545,3.376C31.742,3.505 31.902,3.69 32.002,3.913L52.383,49.558L52.383,46.011C52.383,45.551 52.634,45.128 53.038,44.908L71.93,34.593C72.306,34.388 72.76,34.388 73.136,34.593L92.028,44.908C92.432,45.128 92.683,45.551 92.683,46.011L92.683,66.64C92.683,67.1 92.432,67.523 92.028,67.743L73.136,78.058C72.76,78.263 72.306,78.263 71.93,78.058L67.126,75.435C65.904,84.736 57.937,91.926 48.304,91.926C39.096,91.926 31.411,85.357 29.683,76.653L26.811,78.08C26.615,78.178 26.395,78.223 26.172,78.209C25.969,78.196 25.775,78.135 25.604,78.032ZM29.136,11.623L6.771,63.79C6.771,63.79 20.899,72.273 25.127,74.812L29.136,11.623ZM51.73,54.266L31.785,9.598L27.645,74.857L29.349,74.011C29.33,73.657 29.32,73.3 29.32,72.942C29.32,62.464 37.826,53.957 48.304,53.957C49.474,53.957 50.619,54.063 51.73,54.266ZM67.287,72.657L71.275,74.834L71.275,57.068L54.898,48.019L54.898,55.135C62.045,57.786 67.168,64.62 67.287,72.657ZM73.791,74.834L90.168,65.893C90.168,65.893 90.168,52.516 90.168,48.131L73.791,57.072L73.791,74.834ZM88.801,46.011L72.533,37.13C72.533,37.13 60.599,43.645 56.366,45.956L72.537,54.891L88.801,46.011ZM31.923,74.649C32.778,82.937 39.791,89.411 48.304,89.411C57.247,89.411 64.534,82.268 64.768,73.382C64.768,73.372 64.768,73.363 64.768,73.353C64.772,73.216 64.773,73.079 64.773,72.942C64.773,63.852 57.394,56.473 48.304,56.473C39.215,56.473 31.835,63.852 31.835,72.942C31.835,73.506 31.863,74.063 31.919,74.613C31.92,74.625 31.921,74.637 31.923,74.649Z"/><text x="0" y="111" fill="#000000" font-size="5px" font-weight="bold" font-family="'Helvetica Neue', Helvetica, Arial-Unicode, Arial, Sans-serif">Created by Puspito</text><text x="0" y="116" fill="#000000" font-size="5px" font-weight="bold" font-family="'Helvetica Neue', Helvetica, Arial-Unicode, Arial, Sans-serif">from the Noun Project</text></svg>