<svg xmlns="http://www.w3.org/2000/svg" version="1.1" viewBox="-5.0 -10.0 110.0 135.0">
 <path d="m80.016 3.125h-60.031c-3.0039 0-5.4453 2.4414-5.4453 5.4453v82.855c0 3.0039 2.4414 5.4453 5.4453 5.4453h60.027c3.0039 0 5.4453-2.4414 5.4453-5.4453l0.003907-82.855c0-3.0039-2.4414-5.4453-5.4453-5.4453zm3.0117 88.305c0 1.6602-1.3516 3.0117-3.0117 3.0117h-60.031c-1.6602 0-3.0117-1.3516-3.0117-3.0117v-82.859c0-1.6602 1.3516-3.0117 3.0117-3.0117h60.027c1.6602 0 3.0117 1.3516 3.0117 3.0117zm-55.297-48.531c0.69141 0 1.3906-0.19531 2.0078-0.60547l17.906-11.891 2.1055 3.1719c-0.070312 0.15625-0.125 0.32031-0.16016 0.49219-0.12109 0.60156-0.003906 1.2148 0.33594 1.7266l1.2773 1.9219c0.23438 0.35156 0.62109 0.54297 1.0156 0.54297 0.23047 0 0.46484-0.066406 0.67188-0.20312l11.324-7.5195c0.26953-0.17969 0.45703-0.45703 0.51953-0.77344 0.0625-0.31641 0-0.64453-0.17969-0.91406l-1.2773-1.9219c-0.33984-0.51172-0.85547-0.85938-1.4609-0.98047-0.17188-0.035156-0.34375-0.046874-0.51562-0.042968l-2.2539-3.3906c0.59375-0.95312 0.62109-2.2031-0.039063-3.1992l-0.75781-1.1406c-0.43359-0.65625-1.1016-1.1016-1.875-1.2578-0.35547-0.070312-0.71094-0.074218-1.0547-0.019531l-2.2539-3.3945c0.3125-0.69531 0.27734-1.5352-0.17578-2.2148l-1.2773-1.9297c-0.17969-0.26953-0.45703-0.45703-0.77344-0.51953s-0.64453 0-0.91406 0.17969l-11.324 7.5195c-0.26953 0.17969-0.45703 0.45703-0.51953 0.77344s0 0.64453 0.17969 0.91406l1.2773 1.9219c0.33984 0.51172 0.85547 0.85938 1.4609 0.98047 0.15234 0.03125 0.30859 0.046875 0.46094 0.046875 0.019531 0 0.039062-0.003906 0.054687-0.003906l2.1055 3.168-17.906 11.891c-0.80859 0.53516-1.3594 1.3555-1.5508 2.3125-0.19141 0.95313-0.003906 1.9258 0.53125 2.7305 0.69531 1.0547 1.8555 1.6289 3.0352 1.6289zm24.828-7.5508-0.52734-0.79297 9.293-6.1719 0.52734 0.79297zm-2.3008-23.633 0.52734 0.79297-9.293 6.1719-0.52734-0.79297zm-23.711 27.309c0.0625-0.31641 0.24609-0.58984 0.51172-0.76563l18.918-12.562c0.55859-0.37109 0.71094-1.1289 0.33984-1.6875l-2.5859-3.8906 7.4961-4.9766 2.5859 3.8906c0.37109 0.55859 1.1289 0.71484 1.6875 0.33984 0.15234-0.10156 0.30859-0.089844 0.38672-0.074219s0.22656 0.066406 0.33203 0.21875l0.75781 1.1406c0.15625 0.23438 0.089844 0.5625-0.14453 0.71875-0.37891 0.25-0.57031 0.67578-0.53906 1.0977v0.027344 0.003906c0.019531 0.19531 0.082031 0.38672 0.19922 0.55859l2.582 3.8906-7.4961 4.9766-2.5859-3.8906c-0.37109-0.55859-1.1289-0.71094-1.6875-0.33984l-18.914 12.562c-0.55469 0.36719-1.3008 0.21484-1.668-0.33594-0.17969-0.26562-0.24219-0.58594-0.17578-0.90234zm21.102 3.9883v0.89062h-1.1055c-1.832 0-3.3242 1.4922-3.3242 3.3242v2.1055c0 0.67188 0.54297 1.2188 1.2188 1.2188h30.258c0.67188 0 1.2188-0.54297 1.2188-1.2188v-2.1055c0-1.832-1.4922-3.3242-3.3242-3.3242h-1.1055v-0.89062c0-1.832-1.4922-3.3242-3.3242-3.3242h-17.188c-1.832-0.003906-3.3242 1.4883-3.3242 3.3242zm25.828 4.2109v0.89062h-27.824v-0.89062c0-0.49219 0.39844-0.89062 0.89062-0.89062h2.3203 0.003907 0.003906 21.395 0.003906 0.003907 2.3203c0.48438 0.003907 0.88281 0.40234 0.88281 0.89062zm-4.4297-4.2109v0.89062l-18.961-0.003906v-0.88672c0-0.49219 0.39844-0.89062 0.89062-0.89062h17.184c0.48828 0 0.88672 0.39844 0.88672 0.89062zm-34.504 12.422h-12.527c-0.67188 0-1.2188 0.54297-1.2188 1.2188v12.527c0 0.67187 0.54297 1.2188 1.2188 1.2188h12.527c0.67188 0 1.2188-0.54297 1.2188-1.2188v-12.527c0-0.67188-0.54688-1.2188-1.2188-1.2188zm-1.2148 12.527h-10.094v-10.094h10.094zm-9.0195-3.8398c-0.4375-0.51172-0.375-1.2812 0.13672-1.7148 0.51172-0.4375 1.2812-0.375 1.7148 0.13672l1.0352 1.2148 3.1445-4.3594c0.39453-0.54688 1.1523-0.66797 1.6992-0.27344 0.54297 0.39453 0.66797 1.1523 0.27344 1.6992l-4.0508 5.6172c-0.21875 0.30469-0.56641 0.48828-0.9375 0.50391h-0.050781c-0.35547 0-0.69531-0.15625-0.92578-0.42578zm16.934-5.5977c0-0.67188 0.54297-1.2188 1.2188-1.2188h17.762c0.67188 0 1.2188 0.54297 1.2188 1.2188 0 0.67187-0.54297 1.2188-1.2188 1.2188h-17.762c-0.67188 0-1.2188-0.54688-1.2188-1.2188zm1.2188 7.5664h35.523c0.67188 0 1.2188 0.54297 1.2188 1.2188 0 0.67188-0.54297 1.2188-1.2188 1.2188h-35.523c-0.67188 0-1.2188-0.54297-1.2188-1.2188 0-0.67188 0.54687-1.2188 1.2188-1.2188zm-7.918 10.137h-12.527c-0.67188 0-1.2188 0.54297-1.2188 1.2188v12.527c0 0.67188 0.54297 1.2188 1.2188 1.2188h12.527c0.67188 0 1.2188-0.54297 1.2188-1.2188v-12.527c0-0.67187-0.54688-1.2188-1.2188-1.2188zm-1.2148 12.527h-10.094v-10.094h10.094zm-9.0195-3.8398c-0.4375-0.51172-0.375-1.2812 0.13672-1.7148 0.51172-0.4375 1.2812-0.375 1.7148 0.13672l1.0352 1.2148 3.1445-4.3594c0.39453-0.54688 1.1523-0.66797 1.6992-0.27344 0.54297 0.39453 0.66797 1.1523 0.27344 1.6992l-4.0508 5.6172c-0.21875 0.30469-0.56641 0.48828-0.9375 0.50391h-0.050781c-0.35547 0-0.69531-0.15625-0.92578-0.42578zm54.891-5.5977c0 0.67188-0.54297 1.2188-1.2188 1.2188h-35.52c-0.67188 0-1.2188-0.54297-1.2188-1.2188 0-0.67188 0.54297-1.2188 1.2188-1.2188h35.523c0.67188 0 1.2148 0.54688 1.2148 1.2188zm0 8.7852c0 0.67188-0.54297 1.2188-1.2188 1.2188h-35.52c-0.67188 0-1.2188-0.54297-1.2188-1.2188 0-0.67187 0.54297-1.2188 1.2188-1.2188h35.523c0.67188 0 1.2148 0.54688 1.2148 1.2188z"/>
<text x="0.0" y="117.5" font-size="5.0" font-weight="bold" font-family="Arbeit Regular, Helvetica, Arial-Unicode, Arial, Sans-serif" fill="#000000">Created by Dahlia nur aini</text><text x="0.0" y="122.5" font-size="5.0" font-weight="bold" font-family="Arbeit Regular, Helvetica, Arial-Unicode, Arial, Sans-serif" fill="#000000">from Noun Project</text></svg>