<svg xmlns="http://www.w3.org/2000/svg" xmlns:xlink="http://www.w3.org/1999/xlink" version="1.1" x="0px" y="0px" viewBox="0 0 96 120" style="enable-background:new 0 0 96 96;" xml:space="preserve"><style type="text/css">
	.st0{fill-rule:evenodd;clip-rule:evenodd;}
</style><path d="M3.476,14.679h6.339l7.796,18.222c0.205,0.478,0.674,0.788,1.194,0.788c0.004,0,0.008,0,0.013,0  c0.524-0.005,0.994-0.325,1.191-0.811l7.378-18.199h7.09c0.529,0,1.005-0.321,1.204-0.811l2.979-7.347l8.228,15.253  c0.21,0.39,0.605,0.646,1.047,0.679c0.441,0.032,0.87-0.162,1.135-0.517l5.434-7.257h29.433c0.574,2.145,2.534,3.73,4.858,3.73  c2.773,0,5.029-2.256,5.029-5.029c0-2.773-2.256-5.029-5.029-5.029c-2.324,0-4.284,1.585-4.858,3.73H53.853  c-0.409,0-0.794,0.193-1.039,0.52l-4.606,6.151L39.634,2.859c-0.239-0.443-0.712-0.708-1.214-0.68  c-0.502,0.027-0.943,0.343-1.132,0.809l-3.686,9.093h-7.09c-0.529,0-1.005,0.321-1.204,0.811l-6.536,16.121l-6.907-16.144  c-0.204-0.478-0.674-0.788-1.194-0.788H3.476c-0.717,0-1.299,0.581-1.299,1.299C2.177,14.097,2.759,14.679,3.476,14.679z   M88.794,10.949c1.341,0,2.431,1.091,2.431,2.431s-1.091,2.431-2.431,2.431s-2.431-1.091-2.431-2.431S87.454,10.949,88.794,10.949z   M40.52,82.948l-0.78,0c-0.648-2.586-1.322-5.303-1.955-7.989c-1.198-5.086-2.425-8.332-9.245-10.266l-6.592-4.735  c-1.132-0.814-2.489-1.093-3.768-0.888l-4.39-10.362c-2.973-7.018-6.836-6.198-7.95-5.779c-2.741,1.03-4.35,4.662-3.376,7.62  l5.596,16.986c0.059,0.179,0.119,0.362,0.18,0.549c0.914,2.805,2.051,6.296,4.669,8.095l7.631,5.244  c0.605,0.416,1.033,0.912,1.318,1.524l-0.169,0c0,0,0,0,0,0c-0.838,0-1.623,0.324-2.212,0.913c-0.588,0.589-0.912,1.375-0.911,2.213  l0.004,4.629c0.002,1.72,1.403,3.12,3.123,3.12l18.83,0.001c0.838,0,1.624-0.324,2.212-0.913c0.588-0.589,0.912-1.375,0.911-2.213  l-0.004-4.629C43.642,84.347,42.241,82.948,40.52,82.948z M22.012,79.282l-7.631-5.244c-1.892-1.3-2.878-4.327-3.671-6.759  c-0.062-0.19-0.122-0.376-0.182-0.557L4.932,49.735c-0.583-1.769,0.515-3.884,1.823-4.376c1.512-0.568,3.247,1.063,4.645,4.361  l4.405,10.398c-0.353,0.282-0.673,0.617-0.949,1.001c-0.79,1.099-1.103,2.444-0.883,3.787c0.22,1.343,0.947,2.517,2.046,3.306  l9.009,6.471c0.583,0.419,1.394,0.285,1.812-0.297c0.419-0.583,0.285-1.394-0.297-1.812l-9.009-6.472  c-0.536-0.385-0.89-0.959-0.998-1.617c-0.108-0.658,0.045-1.315,0.429-1.851c0.799-1.113,2.355-1.368,3.468-0.569l6.779,4.869  c0.125,0.09,0.265,0.157,0.414,0.198c5.782,1.587,6.556,3.853,7.631,8.42c0.585,2.483,1.204,4.989,1.805,7.393l-12.45-0.001  C24.202,81.419,23.329,80.187,22.012,79.282z M40.899,91.074c-0.069,0.069-0.19,0.152-0.376,0.152l-18.828-0.001  c-0.29,0-0.526-0.236-0.526-0.525l-0.004-4.629c0-0.184,0.082-0.305,0.151-0.375c0.069-0.069,0.19-0.152,0.375-0.152l18.83,0.001  c0.29,0,0.526,0.236,0.526,0.525l0.004,4.629C41.051,90.883,40.968,91.005,40.899,91.074z M90.159,42.928  c-1.113-0.418-4.977-1.238-7.95,5.779l-4.391,10.364c-1.336-0.214-2.673,0.101-3.767,0.886l-6.592,4.735  c-6.819,1.934-8.047,5.18-9.245,10.266c-0.63,2.677-1.306,5.397-1.955,7.989l-0.78,0c-1.72,0-3.121,1.4-3.123,3.12l-0.004,4.629  c-0.001,0.838,0.323,1.624,0.911,2.213c0.588,0.589,1.374,0.913,2.213,0.913l18.828-0.001c1.72,0,3.121-1.4,3.123-3.12l0.004-4.629  c0.001-0.838-0.323-1.624-0.911-2.213s-1.374-0.913-2.212-0.913l-0.169,0c0.285-0.612,0.713-1.108,1.318-1.524l7.631-5.244  c2.618-1.799,3.755-5.291,4.669-8.096c0.061-0.187,0.121-0.37,0.179-0.549l5.596-16.986C94.509,47.59,92.9,43.958,90.159,42.928z   M74.309,85.544c0.184,0,0.305,0.083,0.375,0.152c0.069,0.069,0.152,0.19,0.151,0.375l-0.004,4.629c0,0.29-0.236,0.525-0.526,0.525  l-18.829,0.001c-0.184,0-0.305-0.083-0.375-0.152c-0.069-0.069-0.152-0.19-0.151-0.375l0.004-4.629c0-0.29,0.236-0.525,0.526-0.525  L74.309,85.544z M91.068,49.735l-5.596,16.986c-0.06,0.181-0.12,0.368-0.182,0.557c-0.792,2.432-1.779,5.46-3.671,6.76l-7.631,5.244  c-1.316,0.905-2.189,2.137-2.6,3.664l-12.45,0.001c0.602-2.41,1.222-4.918,1.805-7.393c1.076-4.567,1.849-6.833,7.631-8.42  c0.149-0.041,0.289-0.108,0.414-0.198l6.779-4.87c0.536-0.385,1.193-0.537,1.851-0.429c0.658,0.108,1.232,0.462,1.617,0.998  c0.385,0.536,0.537,1.193,0.429,1.851c-0.108,0.658-0.462,1.232-0.998,1.617l-9.009,6.471c-0.582,0.418-0.716,1.23-0.297,1.812  c0.418,0.583,1.23,0.716,1.812,0.297l9.009-6.471c1.099-0.79,1.826-1.964,2.046-3.306c0.22-1.343-0.093-2.687-0.883-3.787  c-0.273-0.38-0.593-0.716-0.949-1.002L84.6,49.72c1.398-3.299,3.134-4.928,4.645-4.361C90.552,45.851,91.65,47.966,91.068,49.735z   M64.95,53.739c4.771-5.773,7.09-10.899,7.09-15.67c0-6.311-5.684-11.445-12.67-11.445c-5.114,0-8.411,1.852-11.371,6.391  c-2.96-4.539-6.257-6.391-11.371-6.391c-6.986,0-12.67,5.134-12.67,11.445c0,4.771,2.319,9.897,7.09,15.67  c4.014,4.856,9.277,9.659,15.241,14.984c0.487,0.435,1.099,0.653,1.71,0.653s1.222-0.218,1.71-0.653  C55.674,63.398,60.937,58.595,64.95,53.739z M48,66.768c-10.056-8.978-21.444-19.153-21.444-28.699  c0-4.879,4.518-8.848,10.072-8.848c4.235,0,6.734,1.422,9.218,5.247c0.475,0.731,1.28,1.168,2.153,1.168  c0.873,0,1.678-0.437,2.153-1.168c2.485-3.825,4.983-5.247,9.218-5.247c5.554,0,10.072,3.969,10.072,8.848  C69.444,47.615,58.056,57.789,48,66.768z M55.833,43.67H52.33v-3.503c0-0.717-0.581-1.299-1.299-1.299h-6.063  c-0.717,0-1.299,0.581-1.299,1.299v3.503h-3.503c-0.717,0-1.299,0.581-1.299,1.299v6.063c0,0.717,0.581,1.299,1.299,1.299h3.503  v3.503c0,0.717,0.581,1.299,1.299,1.299h6.063c0.717,0,1.299-0.581,1.299-1.299V52.33h3.503c0.717,0,1.299-0.581,1.299-1.299v-6.063  C57.132,44.252,56.551,43.67,55.833,43.67z M54.535,49.733h-3.503c-0.717,0-1.299,0.581-1.299,1.299v3.503h-3.466v-3.503  c0-0.717-0.581-1.299-1.299-1.299h-3.503v-3.466h3.503c0.717,0,1.299-0.581,1.299-1.299v-3.503h3.466v3.503  c0,0.717,0.581,1.299,1.299,1.299h3.503V49.733z"/><text x="0" y="111" fill="#000000" font-size="5px" font-weight="bold" font-family="'Helvetica Neue', Helvetica, Arial-Unicode, Arial, Sans-serif">Created by Puspito</text><text x="0" y="116" fill="#000000" font-size="5px" font-weight="bold" font-family="'Helvetica Neue', Helvetica, Arial-Unicode, Arial, Sans-serif">from the Noun Project</text></svg>