<svg xmlns="http://www.w3.org/2000/svg" version="1.1" viewBox="-5.0 -10.0 110.0 135.0">
 <path d="m95.129 87.898-7.7891-11.27c0.92188-1.0742 1.1602-2.6406 0.47656-3.9766l-0.82422-1.6094c2.082-2.1602 3.6641-4.7773 4.6133-7.7148 1.6367-5.0703 1.1992-10.477-1.2305-15.219s-6.5586-8.2539-11.629-9.8906c-1.6289-0.52734-3.293-0.83594-4.9609-0.9375v-28.824c0-0.67188-0.54297-1.2188-1.2188-1.2188-0.67188 0-1.2188 0.54297-1.2188 1.2188v28.836c-0.5625 0.035156-1.1211 0.097656-1.6797 0.17969v-33.129c0-0.67578-0.54688-1.2188-1.2188-1.2188h-63.238c-0.67188 0-1.2148 0.54297-1.2148 1.2188v79.82c0 0.67188 0.54297 1.2188 1.2188 1.2188h63.238c0.67188 0 1.2188-0.54297 1.2188-1.2188v-7.2227c0.55859 0.085938 1.1211 0.14453 1.6797 0.17969v9.9414l-62.023-0.003906c-0.67188 0-1.2188 0.54297-1.2188 1.2188 0 0.67188 0.54297 1.2188 1.2188 1.2188h63.238c0.67188 0 1.2188-0.54297 1.2188-1.2188l-0.003906-11.145c0.55859-0.03125 1.1133-0.089843 1.668-0.16797l0.82031 1.6055c0.63281 1.2383 1.8945 1.9531 3.1992 1.9531 0.10156 0 0.20312-0.007813 0.30469-0.015626l4.5938 12.906c0.49219 1.3828 1.5586 2.457 3 3.0312 0.73437 0.28516 1.5234 0.42969 2.3164 0.42969 1 0 2.0039-0.23047 2.8984-0.69141 1.6016-0.82031 2.8164-2.3438 3.2539-4.082 0.375-1.5039 0.125-2.9961-0.70703-4.2031zm-6.9219-38.672c2.1328 4.1641 2.5156 8.9102 1.0781 13.359-1.4375 4.4531-4.5195 8.0781-8.6836 10.211-2.5273 1.293-5.2695 1.9414-8.0273 1.9297h-0.007813-0.011718c-1.7812-0.007812-3.5703-0.28906-5.3125-0.85156-4.4531-1.4375-8.0781-4.5195-10.211-8.6836-4.4023-8.5938-0.99219-19.168 7.6055-23.57 1.2969-0.66406 2.6484-1.1562 4.0312-1.4805 0.023437-0.003906 0.046875-0.007813 0.070312-0.015625 3.0352-0.69531 6.2148-0.56641 9.2578 0.41797 4.4531 1.4336 8.0781 4.5195 10.211 8.6836zm-20.977 33.719h-60.801v-77.387h60.801v32.434c-1.2656 0.35937-2.5078 0.84375-3.707 1.457-9.7891 5.0117-13.676 17.059-8.6602 26.848 2.4297 4.7422 6.5586 8.2539 11.629 9.8906 0.24609 0.078125 0.49219 0.15234 0.73828 0.22266zm11.211-5.4883-0.51953-1.0117c1.2969-0.35937 2.5664-0.85156 3.7891-1.4805 1.2266-0.62891 2.3672-1.3711 3.418-2.2109l0.51953 1.0156c0.28906 0.56641 0.066406 1.2617-0.5 1.5508l-5.1523 2.6406c-0.57031 0.28516-1.2656 0.0625-1.5547-0.50391zm15.031 14.055c-0.26172 1.0508-1.0312 2.0078-2 2.5078-0.96875 0.49609-2.1992 0.55859-3.2031 0.16016-0.55469-0.21875-1.2812-0.67188-1.6055-1.582l-4.6133-12.961 3.2539-1.668 7.8203 11.316c0.55078 0.79297 0.49219 1.6484 0.34766 2.2266zm-23.762-28.371 10.496-14.547c0.39453-0.54297 1.1523-0.66797 1.6992-0.27344 0.54297 0.39453 0.66797 1.1523 0.27344 1.6992l-11.398 15.801c-0.21875 0.30469-0.56641 0.48828-0.9375 0.50391h-0.050781c-0.35547 0-0.69531-0.15625-0.92578-0.42578l-5.75-6.7383c-0.4375-0.51172-0.375-1.2812 0.13672-1.7148 0.51172-0.4375 1.2812-0.375 1.7148 0.13672zm-57.871-40.305h49.977c0.67188 0 1.2188-0.54297 1.2188-1.2188v-10.195c0-0.67188-0.54297-1.2188-1.2188-1.2188l-49.977 0.003906c-0.67188 0-1.2188 0.54297-1.2188 1.2188v10.195c0.003906 0.67188 0.54688 1.2148 1.2188 1.2148zm1.2188-10.191h47.543v7.7578h-47.543zm-2.4336 21.484c0-0.67188 0.54297-1.2188 1.2188-1.2188h49.977c0.67188 0 1.2188 0.54297 1.2188 1.2188 0 0.67188-0.54297 1.2188-1.2188 1.2188l-49.98-0.003906c-0.67188 0-1.2148-0.54297-1.2148-1.2148zm36.664 12.508c0 0.67188-0.54297 1.2188-1.2188 1.2188h-34.23c-0.67188 0-1.2188-0.54297-1.2188-1.2188 0-0.67188 0.54297-1.2188 1.2188-1.2188h34.23c0.67188 0 1.2188 0.54688 1.2188 1.2188zm0 12.508c0 0.67188-0.54297 1.2188-1.2188 1.2188h-34.23c-0.67188 0-1.2188-0.54297-1.2188-1.2188 0-0.67188 0.54297-1.2188 1.2188-1.2188h34.23c0.67188 0 1.2188 0.54688 1.2188 1.2188zm0 12.508c0 0.67188-0.54297 1.2188-1.2188 1.2188h-34.23c-0.67188 0-1.2188-0.54297-1.2188-1.2188 0-0.67188 0.54297-1.2188 1.2188-1.2188h34.23c0.67188 0 1.2188 0.54688 1.2188 1.2188z"/>
<text x="0.0" y="117.5" font-size="5.0" font-weight="bold" font-family="Arbeit Regular, Helvetica, Arial-Unicode, Arial, Sans-serif" fill="#000000">Created by Dahlia nur aini</text><text x="0.0" y="122.5" font-size="5.0" font-weight="bold" font-family="Arbeit Regular, Helvetica, Arial-Unicode, Arial, Sans-serif" fill="#000000">from Noun Project</text></svg>