<svg xmlns="http://www.w3.org/2000/svg" version="1.1" viewBox="-5.0 -10.0 110.0 135.0">
 <path d="m25.453 25.277c-0.67188 0-1.2188-0.54297-1.2188-1.2188 0-0.67188 0.54297-1.2188 1.2188-1.2188h20.902c0.67188 0 1.2188 0.54297 1.2188 1.2188 0 0.67188-0.54297 1.2188-1.2188 1.2188zm-3.168 6.1445c0 0.67188 0.54297 1.2188 1.2188 1.2188h22.852c0.67188 0 1.2188-0.54297 1.2188-1.2188 0-0.67188-0.54297-1.2188-1.2188-1.2188h-22.852c-0.67188 0-1.2188 0.54688-1.2188 1.2188zm-1.9492 7.3594c0 0.67188 0.54297 1.2188 1.2188 1.2188h24.801c0.67188 0 1.2188-0.54297 1.2188-1.2188 0-0.67188-0.54297-1.2188-1.2188-1.2188h-24.801c-0.67188 0.003906-1.2188 0.54688-1.2188 1.2188zm12.785 41.449c0.23047 0.27344 0.57031 0.42578 0.92578 0.42578h0.050781c0.37109-0.015625 0.71875-0.19922 0.9375-0.50391l9.1133-12.633c0.39453-0.54688 0.26953-1.3047-0.27344-1.6992-0.54297-0.39453-1.3047-0.26953-1.6992 0.27344l-8.207 11.379-3.5898-4.207c-0.4375-0.51172-1.207-0.57422-1.7148-0.13672-0.51172 0.4375-0.57031 1.207-0.13672 1.7148zm-13.793-7.1055c0-9.3633 7.6172-16.98 16.98-16.98 4.5117 0 8.6133 1.7734 11.656 4.6523 0.89062-0.55859 1.918-0.85938 2.9883-0.85938h3.8125v-1.4258c0-2.1289 1.7305-3.8594 3.8594-3.8594h3.3047l3.1133-26.062c-4.1875-2.1484-7.0898-6.4531-7.2305-11.441h-36.812l-15.176 76.938h76.961l-2.7031-13.699h-22.027c-0.67188 0-1.2188-0.54297-1.2188-1.2188 0-0.67188 0.54297-1.2188 1.2188-1.2188h23.035 0.011718 14.559c0.67188 0 1.2188 0.54297 1.2188 1.2188 0 0.67188-0.54297 1.2188-1.2188 1.2188h-13.094l2.8945 14.668v0.007812 0.007812c0.003906 0.011719 0.003906 0.023438 0.003906 0.035157 0.003906 0.027343 0.007812 0.054687 0.011718 0.082031 0.003907 0.03125 0.003907 0.058594 0.003907 0.089844v0.027344 0.003906c0 0.039062-0.003907 0.078125-0.007813 0.11719v0.003907c-0.003906 0.039062-0.007812 0.074218-0.015625 0.11328v0.007812c-0.003906 0.027344-0.011719 0.054688-0.019531 0.078125-0.035156 0.12109-0.085938 0.23828-0.15625 0.34375-0.003906 0.003906-0.003906 0.007813-0.007812 0.011719-0.011719 0.019531-0.027344 0.039063-0.042969 0.058594-0.007813 0.011719-0.019531 0.023437-0.027344 0.039062-0.007813 0.011719-0.019531 0.019531-0.027344 0.027344-0.019531 0.019531-0.035156 0.039063-0.054687 0.058594l-0.003906 0.003906c-0.09375 0.09375-0.20313 0.16797-0.32422 0.23047-0.019531 0.011718-0.042969 0.019531-0.0625 0.03125-0.003907 0.003906-0.007813 0.003906-0.015625 0.003906-0.035156 0.011719-0.066406 0.027344-0.10156 0.035156-0.003906 0-0.007812 0.003906-0.011719 0.003906-0.035156 0.011719-0.070312 0.019532-0.10937 0.027344h-0.003907c-0.015625 0.003906-0.03125 0.003906-0.042969 0.007813-0.023437 0.003906-0.046874 0.007812-0.070312 0.011719-0.039062 0.003906-0.082031 0.007812-0.12109 0.007812h-0.003906l-79.902-0.007812h-0.003906c-0.039062 0-0.082031-0.003907-0.12109-0.007813-0.023437-0.003906-0.046875-0.007813-0.070312-0.011719-0.015625-0.003906-0.03125-0.003906-0.042969-0.007812h-0.003906c-0.035157-0.007813-0.074219-0.015625-0.10938-0.027344-0.003906 0-0.007813-0.003906-0.011719-0.003906-0.035156-0.011719-0.066406-0.023438-0.10156-0.035156-0.003906-0.003907-0.007812-0.003907-0.015624-0.003907-0.023438-0.007812-0.042969-0.019531-0.0625-0.03125-0.12109-0.058593-0.23047-0.13672-0.32422-0.23047l-0.003907-0.003906c-0.019531-0.019531-0.035156-0.039062-0.054687-0.058594-0.007813-0.011718-0.019531-0.019531-0.027344-0.027343-0.007812-0.011719-0.019531-0.023438-0.027343-0.039063-0.015626-0.019531-0.027344-0.039062-0.042969-0.058594-0.003907-0.003906-0.003907-0.007812-0.007813-0.011718-0.070312-0.10547-0.12109-0.21875-0.15625-0.34375-0.007812-0.027344-0.015625-0.050782-0.019531-0.078125v-0.007813c-0.007813-0.035156-0.011719-0.074218-0.015625-0.11328v-0.003906c0.003906-0.03125 0-0.070313 0-0.10938v-0.003906-0.027344c0-0.03125 0-0.058594 0.003906-0.089844 0.003906-0.027344 0.007813-0.054688 0.011719-0.082031 0.003906-0.011719 0.003906-0.023438 0.003906-0.035157v-0.007812-0.007812l15.652-79.363v-0.003906c0.007813-0.035156 0.015625-0.070312 0.027344-0.10547 0-0.003906 0.003906-0.007812 0.003906-0.015625 0.007813-0.03125 0.019531-0.0625 0.035156-0.09375 0.003907-0.007812 0.003907-0.015625 0.007813-0.023437 0.007812-0.015625 0.015625-0.03125 0.023437-0.046875 0.078125-0.16406 0.1875-0.30469 0.32422-0.41797l0.003906-0.003906c0.023438-0.019531 0.042969-0.035157 0.066406-0.050781 0.007813-0.007813 0.019532-0.015626 0.027344-0.019532 0.015625-0.011718 0.03125-0.019531 0.050782-0.027344 0.019531-0.011718 0.035156-0.023437 0.050781-0.03125 0.011719-0.003906 0.019531-0.007812 0.03125-0.015624 0.027343-0.011719 0.054687-0.027344 0.085937-0.039063 0.14453-0.058594 0.30078-0.089844 0.46094-0.089844h0.003906 37.961c0.98828-6.3555 6.5-11.234 13.129-11.234 7.3242 0 13.285 5.9609 13.285 13.285 0 5.1484-2.9453 9.6211-7.2422 11.824l3.1133 26.062h3.3047c2.1289 0 3.8594 1.7305 3.8594 3.8594v1.4258h3.8125c3.1172 0 5.6523 2.5352 5.6523 5.6523v8.418c0 0.67188-0.54297 1.2188-1.2188 1.2188l-42.504 0.007812c-1.0391 8.375-8.1953 14.879-16.844 14.879-9.3633 0-16.98-7.6172-16.98-16.98zm51.758-45.512c5.9844 0 10.852-4.8672 10.852-10.852 0-5.9805-4.8672-10.848-10.852-10.848-5.9844 0-10.852 4.8672-10.852 10.852 0.003906 5.9805 4.8711 10.848 10.852 10.848zm-6.7031 27.039h13.414l-3.0039-25.133c-1.1758 0.33984-2.418 0.52734-3.7031 0.52734s-2.5273-0.1875-3.7031-0.52734zm-7.1836 5.2852h27.777v-1.4258c0-0.78516-0.64062-1.4258-1.4258-1.4258h-24.926c-0.78516 0-1.4258 0.64062-1.4258 1.4258zm-6.2461 2.4336c-0.45312 0-0.89062 0.097656-1.2969 0.27734 2.207 2.8047 3.5469 6.3203 3.6211 10.141h41.16v-7.2031c0-1.7734-1.4414-3.2148-3.2148-3.2148h-5.0234-0.003907-0.003906-30.207-0.003906-0.003907zm-29.191 10.754c0 8.0195 6.5234 14.543 14.543 14.543 8.0195 0 14.543-6.5234 14.543-14.543s-6.5234-14.543-14.543-14.543c-8.0156 0-14.543 6.5234-14.543 14.543z"/>
<text x="0.0" y="117.5" font-size="5.0" font-weight="bold" font-family="Arbeit Regular, Helvetica, Arial-Unicode, Arial, Sans-serif" fill="#000000">Created by Dahlia nur aini</text><text x="0.0" y="122.5" font-size="5.0" font-weight="bold" font-family="Arbeit Regular, Helvetica, Arial-Unicode, Arial, Sans-serif" fill="#000000">from Noun Project</text></svg>