<svg xmlns="http://www.w3.org/2000/svg" version="1.1" viewBox="-5.0 -10.0 110.0 135.0">
 <path d="m80.02 59.008v26.527c0 0.67188-0.54297 1.2188-1.2188 1.2188-0.67188 0-1.2188-0.54297-1.2188-1.2188l0.003907-26.527c0-0.67187 0.54297-1.2188 1.2188-1.2188 0.67187 0 1.2148 0.54688 1.2148 1.2188zm-44.148 29.648h-16.852l-2.7773-18.023c-0.089844-0.59375-0.60156-1.0312-1.2031-1.0312l-8.3633-0.003906c-0.41016 0-0.73828-0.1875-0.94922-0.53906-0.21094-0.35156-0.21484-0.73047-0.019531-1.0898l9.8711-18.16c0.003906-0.007813 0.007813-0.015625 0.011719-0.023438 0.011718-0.019531 0.019531-0.039062 0.027344-0.058594 0.007812-0.019531 0.015624-0.035156 0.023437-0.050781 0.007813-0.019531 0.011719-0.039062 0.019531-0.054687 0.007813-0.019532 0.011719-0.039063 0.019532-0.058594 0.003906-0.019531 0.007812-0.035156 0.011718-0.054688 0.003906-0.019531 0.007813-0.039062 0.011719-0.058593s0.007813-0.039063 0.007813-0.054688c0.003906-0.019531 0.003906-0.039062 0.007812-0.058593 0.003906-0.019532 0.003906-0.039063 0.003906-0.058594v-0.054688c0-0.019531-0.003906-0.042968-0.003906-0.0625 0-0.019531-0.003906-0.035156-0.003906-0.054687-0.003906-0.019531-0.003906-0.039063-0.007813-0.0625-0.003906-0.019531-0.007812-0.039063-0.011719-0.058594-0.003906-0.019531-0.007812-0.039063-0.011718-0.054687-0.003906-0.019532-0.011719-0.042969-0.019532-0.0625-0.003906-0.007813-0.003906-0.015626-0.007812-0.023438-1.1445-3.3242-1.7227-6.8047-1.7227-10.355 0-17.547 14.277-31.824 31.824-31.824 3.5547 0 7.0508 0.58203 10.379 1.7305 0.63672 0.21875 1.3281-0.11719 1.5469-0.75391s-0.11719-1.3281-0.75391-1.5469c-3.5859-1.2383-7.3477-1.8633-11.172-1.8633-18.891 0-34.258 15.367-34.258 34.258 0 3.6367 0.56641 7.2109 1.6836 10.633l-9.6211 17.699c-0.60938 1.1211-0.58594 2.3984 0.066406 3.4961s1.7617 1.7305 3.0391 1.7305h7.3203l2.7773 18.023c0 0.003907 0.003906 0.007813 0.003906 0.015626 0.011719 0.066406 0.027344 0.12891 0.046875 0.19141 0.003906 0.007812 0.007813 0.019531 0.011719 0.027344 0.023437 0.058593 0.046875 0.11719 0.078125 0.17578 0.003906 0.007812 0.007812 0.015625 0.011719 0.023437 0.03125 0.054688 0.070312 0.10938 0.10938 0.16016 0.003906 0.003907 0.003906 0.003907 0.007812 0.007813 0.039063 0.050781 0.085938 0.09375 0.13281 0.13672 0.003906 0.003906 0.011719 0.007812 0.015625 0.015625 0.046875 0.039062 0.10156 0.074219 0.15234 0.10938 0.007812 0.003906 0.015624 0.007812 0.023437 0.015625 0.054687 0.03125 0.10938 0.058593 0.16797 0.082031 0.007812 0.003906 0.019531 0.007812 0.027344 0.011719 0.058593 0.019531 0.11719 0.039062 0.17969 0.050781 0.007813 0.003906 0.019531 0.003906 0.027344 0.003906 0.0625 0.011719 0.125 0.015625 0.19141 0.019532h0.007813 0.003906 16.68v3.4766c0 0.67188 0.54297 1.2188 1.2188 1.2188 0.67188 0 1.2188-0.54297 1.2188-1.2188v-4.6914c0.007813-0.70312-0.53906-1.2461-1.2109-1.2461zm51.57-55.449c0 7.3789-3.5781 14.301-9.5859 18.582l-2.5547 4.7656c0.38281 0.57031 0.60547 1.2539 0.60547 1.9883v0.93359c0 1.3047-0.70703 2.4453-1.7539 3.0703 0.25781 0.49219 0.40625 1.0547 0.40625 1.6484v0.93359c0 1.6484-1.125 3.0391-2.6445 3.4492-0.875 3.1953-3.8047 5.5508-7.2734 5.5508s-6.3945-2.3555-7.2734-5.5508c-1.5195-0.41016-2.6445-1.8008-2.6445-3.4492v-0.93359c0-0.59375 0.14844-1.1523 0.40625-1.6484-1.0469-0.625-1.7539-1.7656-1.7539-3.0703v-0.93359c0-0.73438 0.22266-1.418 0.60547-1.9883l-2.5547-4.7656c-6.0078-4.2812-9.5859-11.203-9.5859-18.582 0-12.57 10.227-22.801 22.801-22.801 12.57 0 22.801 10.23 22.801 22.801zm-15.113 24.191h-15.371c-0.62891 0-1.1445 0.51172-1.1445 1.1445v0.93359c0 0.62891 0.51172 1.1445 1.1445 1.1445h15.375c0.62891 0 1.1445-0.51172 1.1445-1.1445l-0.003906-0.93359c0-0.63281-0.51172-1.1445-1.1445-1.1445zm-1.3477 5.6562h-12.68c-0.62891 0-1.1445 0.51172-1.1445 1.1445v0.93359c0 0.62891 0.51172 1.1445 1.1445 1.1445h12.68c0.62891 0 1.1445-0.51172 1.1445-1.1445v-0.93359c0-0.63281-0.51172-1.1445-1.1445-1.1445zm-1.6953 5.6523h-9.2891c0.80859 1.7617 2.5859 2.9883 4.6445 2.9883 2.0625-0.003906 3.8398-1.2305 4.6445-2.9883zm15.723-35.5c0-11.23-9.1367-20.367-20.367-20.367-11.227 0.003906-20.363 9.1367-20.363 20.367 0 6.6797 3.2852 12.941 8.7812 16.75 0.16016 0.10938 0.28906 0.25391 0.37891 0.42578l2.5312 4.7227c0.3125-0.089844 0.64453-0.14062 0.98828-0.14062h15.375c0.34375 0 0.67188 0.050781 0.98828 0.14062l2.5312-4.7227c0.089844-0.16797 0.22266-0.31641 0.37891-0.42578 5.4961-3.8086 8.7773-10.07 8.7773-16.75zm0.70313-22.793-2.9688 2.9688c-0.47656 0.47656-0.47656 1.2461 0 1.7227 0.23828 0.23828 0.55078 0.35547 0.85937 0.35547 0.3125 0 0.62109-0.11719 0.85938-0.35547l2.9688-2.9688c0.47656-0.47656 0.47656-1.2461 0-1.7227-0.47266-0.47266-1.2422-0.47266-1.7188 0zm9.9453 21.578h-4.1992c-0.67188 0-1.2188 0.54297-1.2188 1.2188 0 0.67187 0.54297 1.2188 1.2188 1.2188h4.1992c0.67188 0 1.2188-0.54297 1.2188-1.2188 0-0.67578-0.54297-1.2188-1.2188-1.2188zm-11.191 19.316c-0.47656-0.47656-1.2461-0.47656-1.7227 0-0.47656 0.47656-0.47656 1.2461 0 1.7227l2.9688 2.9688c0.23828 0.23828 0.55078 0.35547 0.85937 0.35547 0.3125 0 0.62109-0.11719 0.85938-0.35547 0.47656-0.47656 0.47656-1.2461 0-1.7227zm-39.645 0-2.9688 2.9688c-0.47656 0.47656-0.47656 1.2461 0 1.7227 0.23828 0.23828 0.55078 0.35547 0.85938 0.35547 0.3125 0 0.62109-0.11719 0.85937-0.35547l2.9688-2.9688c0.47656-0.47656 0.47656-1.2461 0-1.7227-0.47266-0.47656-1.2461-0.47656-1.7188 0zm-6.9961-19.316h-4.1992c-0.67188 0-1.2188 0.54297-1.2188 1.2188 0 0.67187 0.54297 1.2188 1.2188 1.2188h4.1992c0.67188 0 1.2188-0.54297 1.2188-1.2188 0-0.67578-0.54688-1.2188-1.2188-1.2188zm4.0273-21.578c-0.47656 0.47656-0.47656 1.2461 0 1.7227l2.9688 2.9688c0.23828 0.23828 0.55078 0.35547 0.85938 0.35547 0.3125 0 0.62109-0.11719 0.85937-0.35547 0.47656-0.47656 0.47656-1.2461 0-1.7227l-2.9688-2.9688c-0.47266-0.47266-1.2461-0.47266-1.7188 0zm31.07 14.816c0.15234 0.20312 0.24219 0.45312 0.24219 0.72656v22.055c0 2.0977-1.707 3.8047-3.8047 3.8047h-9.4375c-2.0977 0-3.8047-1.707-3.8047-3.8047l0.003906-22.051c0-0.27344 0.089844-0.52344 0.24219-0.72656l7.3047-9.7812c0.23047-0.30859 0.58984-0.48828 0.97656-0.48828 0.38281 0 0.74609 0.17969 0.97656 0.48828l7.3047 9.7812zm-13.156-0.48828h9.7539l-4.875-6.5312zm10.965 2.4336h-1.6484v16.273h1.6484zm-10.527 16.273v-16.273h-1.6484v16.273zm2.4336 0h4.0117v-16.273h-4.0117zm8.0938 4.5625v-2.125h-12.176v2.125c0 0.75391 0.61328 1.3711 1.3711 1.3711h9.4375c0.75391 0 1.3672-0.61719 1.3672-1.3711z"/>
<text x="0.0" y="117.5" font-size="5.0" font-weight="bold" font-family="Arbeit Regular, Helvetica, Arial-Unicode, Arial, Sans-serif" fill="#000000">Created by jumiati</text><text x="0.0" y="122.5" font-size="5.0" font-weight="bold" font-family="Arbeit Regular, Helvetica, Arial-Unicode, Arial, Sans-serif" fill="#000000">from Noun Project</text></svg>