<svg xmlns="http://www.w3.org/2000/svg" version="1.1" viewBox="-5.0 -10.0 110.0 135.0">
 <path d="m68.953 58.547c-0.55859-0.375-1.3164-0.22656-1.6914 0.33203-1.957 2.9062-4.4102 5.3945-7.293 7.3906-0.16016 0.10938-0.28906 0.25391-0.37891 0.42578l-3.5781 6.6797c-0.48047-0.17969-0.99609-0.27734-1.5391-0.27734l-20.734-0.003906c-0.53906 0-1.0586 0.097656-1.5391 0.27734l-3.5781-6.6797c-0.089844-0.16797-0.22266-0.31641-0.37891-0.42578-7.5312-5.2188-12.027-13.797-12.027-22.941 0-15.383 12.512-27.895 27.895-27.895 9.4336 0 18.16 4.7148 23.34 12.613 0.36719 0.5625 1.125 0.71875 1.6836 0.35156 0.5625-0.36719 0.71875-1.125 0.35156-1.6836-5.6328-8.5859-15.121-13.711-25.375-13.711-16.723 0-30.328 13.605-30.328 30.328 0 9.8477 4.793 19.086 12.832 24.773l3.6172 6.7461c-0.55859 0.73828-0.89062 1.6562-0.89062 2.6484v1.2578c0 1.7539 1.0352 3.2734 2.5234 3.9805-0.44531 0.6875-0.70703 1.5078-0.70703 2.3867v1.2578c0 2.4258 1.9727 4.4023 4.4023 4.4023h1.3438c0.57422 3.4531 3.5859 6.0938 7.2031 6.0938 3.6172 0 6.6289-2.6406 7.2109-6.0938h1.3438c2.4258 0 4.4023-1.9727 4.4023-4.4023v-1.2578c0-0.87891-0.26172-1.6992-0.70703-2.3867 1.4922-0.70703 2.5234-2.2227 2.5234-3.9805v-1.2578c0-0.99219-0.33203-1.9102-0.89062-2.6484l3.6172-6.7461c3.0273-2.1406 5.6094-4.7852 7.6836-7.8633 0.37109-0.55859 0.22266-1.3164-0.33594-1.6914zm-24.848 35.895c-2.2695 0-4.1797-1.5586-4.7227-3.6602h9.4453c-0.54297 2.1016-2.4531 3.6602-4.7227 3.6602zm10.516-8.0625c0 1.0859-0.88281 1.9648-1.9648 1.9648h-17.102c-1.0859 0-1.9648-0.88281-1.9648-1.9648v-1.2578c0-1.082 0.88281-1.9648 1.9648-1.9648l17.102-0.003906c1.082 0 1.9648 0.88281 1.9648 1.9648zm1.8203-7.625c0 1.082-0.88281 1.9648-1.9648 1.9648h-20.738c-1.0859 0-1.9648-0.88281-1.9648-1.9648v-1.2578c0-1.082 0.88281-1.9648 1.9648-1.9648h20.738c1.0859 0 1.9648 0.88281 1.9648 1.9648zm-13.555-68.789v-5.6211c0-0.67578 0.54688-1.2188 1.2188-1.2188s1.2188 0.54297 1.2188 1.2188v5.6211c0 0.67188-0.54297 1.2188-1.2188 1.2188-0.67188-0.003906-1.2188-0.54688-1.2188-1.2188zm23.945 10.633c-0.47656-0.47656-0.47656-1.2461 0-1.7227l3.9766-3.9766c0.47656-0.47656 1.2461-0.47656 1.7227 0 0.47656 0.47656 0.47656 1.2461 0 1.7227l-3.9766 3.9766c-0.23828 0.23828-0.55078 0.35547-0.85938 0.35547-0.3125 0-0.625-0.12109-0.86328-0.35547zm5.6992 49.43c0.47656 0.47656 0.47656 1.2461 0 1.7227-0.23828 0.23828-0.55078 0.35547-0.85938 0.35547-0.3125 0-0.62109-0.11719-0.85938-0.35547l-3.9766-3.9766c-0.47656-0.47656-0.47656-1.2461 0-1.7227 0.47656-0.47656 1.2461-0.47656 1.7227 0zm-51.152-3.9766c0.47656 0.47656 0.47656 1.2461 0 1.7227l-3.9766 3.9766c-0.23828 0.23828-0.55078 0.35547-0.85938 0.35547-0.3125 0-0.62109-0.11719-0.85938-0.35547-0.47656-0.47656-0.47656-1.2461 0-1.7227l3.9766-3.9766c0.47266-0.47656 1.2422-0.47656 1.7188 0zm-9.418-22.727c0 0.67188-0.54297 1.2188-1.2188 1.2188h-5.6172c-0.67188 0-1.2188-0.54297-1.2188-1.2188 0-0.67188 0.54297-1.2188 1.2188-1.2188h5.6211c0.67188 0 1.2148 0.54688 1.2148 1.2188zm3.7188-26.703c-0.47656-0.47656-0.47656-1.2461 0-1.7227 0.47656-0.47656 1.2461-0.47656 1.7227 0l3.9766 3.9766c0.47656 0.47656 0.47656 1.2461 0 1.7227-0.23828 0.23828-0.55078 0.35547-0.85938 0.35547-0.3125 0-0.62109-0.11719-0.85938-0.35547zm73.977 36.5c-3.1328 0-5.7461 2.25-6.3203 5.2188h-7.9062l-6.3945-6.3945c-0.22656-0.22656-0.53906-0.35547-0.85938-0.35547h-7.0703c0.48047-0.99219 0.87891-2.0195 1.1797-3.082l3.4414-0.87109c0.53906-0.13672 0.91797-0.62109 0.91797-1.1797v-1.9141h10.238c0.57422 3.082 3.2812 5.4219 6.5273 5.4219 3.6602 0 6.6406-2.9805 6.6406-6.6406 0-3.6602-2.9805-6.6406-6.6406-6.6406-3.2461 0-5.9531 2.3398-6.5273 5.4219h-10.238v-1.9141c0-0.55859-0.37891-1.043-0.91797-1.1797l-3.4414-0.87109c-0.27344-0.96094-0.62109-1.8945-1.043-2.7969h6.7656c0.32422 0 0.63281-0.12891 0.85938-0.35547l6.3945-6.3984h7.9062c0.57031 2.9688 3.1875 5.2188 6.3203 5.2188 3.5508 0 6.4375-2.8867 6.4375-6.4375 0-3.5508-2.8867-6.4375-6.4375-6.4375-3.1328 0-5.7461 2.25-6.3203 5.2188h-8.4102c-0.32422 0-0.63281 0.12891-0.85937 0.35547l-6.3945 6.3984h-6.1484l1.0859-1.8242c0.28516-0.48047 0.21094-1.0898-0.18359-1.4844l-4.4258-4.4258c-0.39453-0.39453-1.0039-0.46875-1.4844-0.18359l-3.0508 1.8164c-1.2695-0.70703-2.6133-1.2656-4.0039-1.6602l-0.87109-3.4414c-0.13672-0.53906-0.62109-0.91797-1.1797-0.91797h-6.2617c-0.55859 0-1.043 0.37891-1.1797 0.91797l-0.87109 3.4414c-1.3945 0.39844-2.7383 0.95312-4.0078 1.6602l-3.0508-1.8164c-0.48047-0.28516-1.0898-0.21094-1.4844 0.18359l-4.4258 4.4258c-0.39453 0.39453-0.46875 1.0039-0.18359 1.4844l1.8164 3.0508c-0.70703 1.2695-1.2656 2.6133-1.6602 4.0078l-3.4414 0.87109c-0.53906 0.13672-0.91797 0.62109-0.91797 1.1797v6.2617c0 0.55859 0.37891 1.043 0.91797 1.1797l3.4414 0.87109c0.39844 1.3945 0.95312 2.7383 1.6602 4.0078l-1.8164 3.0508c-0.28516 0.48047-0.21094 1.0898 0.18359 1.4844l4.4258 4.4258c0.39453 0.39453 1.0039 0.46875 1.4844 0.18359l3.0508-1.8164c1.2695 0.70703 2.6133 1.2656 4.0039 1.6602l0.87109 3.4414c0.13672 0.53906 0.62109 0.91797 1.1797 0.91797h6.2617c0.55859 0 1.043-0.37891 1.1797-0.91797l0.87109-3.4414c1.3945-0.39844 2.7383-0.95312 4.0078-1.6602l3.0508 1.8164c0.48047 0.28516 1.0898 0.21094 1.4844-0.18359l4.4258-4.4258c0.39453-0.39453 0.46875-1.0039 0.18359-1.4844l-0.91797-1.543h6.1484l6.3945 6.3945c0.22656 0.22656 0.53906 0.35547 0.85938 0.35547h8.4102c0.57031 2.9688 3.1875 5.2188 6.3203 5.2188 3.5508 0 6.4375-2.8867 6.4375-6.4375 0-3.5469-2.8867-6.4297-6.4375-6.4297zm-6.2461-14.004c2.3203 0 4.207 1.8867 4.207 4.207 0 2.3203-1.8867 4.207-4.207 4.207-2.3203 0-4.207-1.8867-4.207-4.207 0-2.3203 1.8867-4.207 4.207-4.207zm6.0781-15.742c2.207 0 4 1.793 4 4s-1.793 4-4 4-4-1.793-4-4 1.793-4 4-4zm-32.711 35.707-2.8516-1.6992c-0.38672-0.23047-0.87109-0.22656-1.2578 0.007813-1.4492 0.88672-3.0234 1.5352-4.668 1.9375-0.4375 0.10547-0.78125 0.44531-0.89453 0.88281l-0.81641 3.2148h-4.3672l-0.81641-3.2188c-0.11328-0.4375-0.45703-0.77734-0.89453-0.88281-1.6484-0.39844-3.2188-1.0508-4.668-1.9336-0.38672-0.23438-0.87109-0.23828-1.2578-0.007813l-2.8516 1.6992-3.0859-3.0859 1.6992-2.8516c0.23047-0.38672 0.22656-0.87109-0.007813-1.2578-0.88672-1.4492-1.5352-3.0234-1.9375-4.668-0.10547-0.4375-0.44531-0.78125-0.88281-0.89453l-3.2148-0.81641v-4.3672l3.2148-0.81641c0.4375-0.10938 0.77734-0.45703 0.88281-0.89453 0.39844-1.6484 1.0508-3.2188 1.9375-4.668 0.23438-0.38672 0.23828-0.86719 0.007813-1.2578l-1.6992-2.8516 3.0859-3.0859 2.8516 1.6992c0.38672 0.23047 0.87109 0.23047 1.2578-0.007813 1.4492-0.88672 3.0234-1.5352 4.668-1.9336 0.4375-0.10547 0.78125-0.44531 0.89453-0.88281l0.81641-3.2188h4.3672l0.81641 3.2188c0.10938 0.4375 0.45703 0.77734 0.89453 0.88281 1.6484 0.39844 3.2188 1.0508 4.668 1.9336 0.38672 0.23438 0.87109 0.23828 1.2578 0.007813l2.8555-1.6992 3.0859 3.0859-1.6992 2.8516c-0.003907 0.003906-0.003907 0.007813-0.007813 0.011719-0.050781 0.085937-0.089844 0.17969-0.11719 0.27734-0.003907 0.011719-0.007813 0.023437-0.007813 0.035156-0.007812 0.039063-0.019531 0.078125-0.023437 0.11719-0.003907 0.011719-0.003907 0.023438-0.003907 0.035157-0.003906 0.046875-0.007812 0.097656-0.007812 0.14453v0.003906 0.015625c0 0.042969 0.003906 0.089844 0.007812 0.13281 0.003907 0.011718 0.003907 0.027344 0.007813 0.039062 0.007813 0.039063 0.015625 0.078125 0.023437 0.11719 0.003907 0.007812 0.003907 0.019531 0.007813 0.027344 0.015625 0.050781 0.03125 0.097656 0.050781 0.14453 0 0.003906 0.003906 0.007812 0.003906 0.007812 0.019532 0.042969 0.042969 0.085938 0.066407 0.125 0.003906 0.003907 0.003906 0.011719 0.007812 0.015625 0.88672 1.4492 1.5352 3.0234 1.9375 4.668 0.10547 0.4375 0.44531 0.78125 0.88281 0.89453l3.2148 0.81641v2.1797 0.003906 0.003906 2.1797l-3.2188 0.81641c-0.4375 0.10938-0.77734 0.45703-0.88281 0.89453-0.39844 1.6445-1.0508 3.2148-1.9336 4.668-0.23438 0.38672-0.23828 0.86719-0.007812 1.2578l1.6992 2.8555zm32.879 4.4766c-2.207 0-4-1.793-4-4 0-2.207 1.793-4 4-4s4 1.793 4 4c0.003906 2.2031-1.793 4-4 4zm-45.551-32.027c-6.5039 0-11.793 5.2891-11.793 11.793 0 6.5039 5.2891 11.793 11.793 11.793 6.5039 0 11.793-5.2891 11.793-11.793 0-6.5039-5.2891-11.793-11.793-11.793zm0 21.152c-5.1602 0-9.3594-4.1992-9.3594-9.3594 0-5.1602 4.1992-9.3594 9.3594-9.3594 5.1602 0 9.3594 4.1992 9.3594 9.3594 0 5.1602-4.1992 9.3594-9.3594 9.3594z"/>
<text x="0.0" y="117.5" font-size="5.0" font-weight="bold" font-family="Arbeit Regular, Helvetica, Arial-Unicode, Arial, Sans-serif" fill="#000000">Created by jumiati</text><text x="0.0" y="122.5" font-size="5.0" font-weight="bold" font-family="Arbeit Regular, Helvetica, Arial-Unicode, Arial, Sans-serif" fill="#000000">from Noun Project</text></svg>